<svg version="1.1" id="Layer_1" xmlns="http://www.w3.org/2000/svg" xmlns:xlink="http://www.w3.org/1999/xlink" x="0px" y="0px"
	 width="100%" viewBox="0 0 187 143" enable-background="new 0 0 187 143" xml:space="preserve">
<path fill="#E7ECFF" opacity="1.000000" stroke="none" 
	d="
M70.000000,144.000000 
	C47.036110,144.000000 24.072222,144.000000 1.054167,144.000000 
	C1.054167,96.444336 1.054167,48.888592 1.054167,1.000000 
	C23.019777,1.000000 45.041229,1.000000 67.531517,1.436512 
	C68.719727,5.710360 69.439110,9.547696 70.204109,13.628394 
	C68.914467,13.820148 67.136223,13.705446 65.776962,14.404929 
	C64.661560,14.978919 64.044388,16.521080 63.206367,17.634092 
	C64.137985,18.089701 65.069603,18.545307 66.000824,19.334030 
	C66.000496,20.111303 66.000557,20.555460 65.688400,21.052935 
	C66.012489,23.246824 66.648796,25.387398 67.292694,27.784451 
	C67.171059,28.356794 67.041840,28.672657 66.507179,28.992310 
	C64.324165,29.325003 62.556618,29.851538 60.766953,29.942402 
	C56.823338,30.142632 55.478939,31.753237 57.901951,35.678844 
	C56.248070,35.812824 55.124111,35.903873 53.999405,35.621468 
	C53.475239,33.982864 52.951817,32.717716 52.428394,31.452564 
	C51.951908,31.968952 51.475418,32.485340 50.633442,33.007202 
	C47.848770,33.396084 45.889942,34.041286 47.994179,37.369781 
	C47.349926,40.433182 46.483383,43.257984 51.000462,43.427704 
	C50.044983,46.967403 49.089649,50.079487 48.093689,53.182426 
	C48.053062,53.173286 48.121407,53.125694 47.730881,53.083450 
	C43.604271,53.014008 43.604271,53.014008 44.141846,55.374794 
	C44.101601,56.057793 44.080788,56.448212 44.049007,57.261887 
	C44.203270,60.543541 45.593533,64.779373 44.266361,65.959709 
	C41.862354,68.097725 43.176476,69.956024 42.743008,72.010269 
	C42.385483,72.235420 42.228611,72.410011 41.869129,72.862320 
	C41.391136,73.737404 41.160255,74.374725 40.602329,75.075737 
	C39.874069,76.157303 39.472858,77.175179 38.583202,79.432236 
	C40.304920,78.328629 40.679718,78.119804 41.018120,77.863014 
	C41.388695,77.581810 41.725655,77.256310 42.377121,77.105148 
	C46.419834,80.437019 50.405319,83.240471 45.546810,88.939842 
	C44.173206,90.551178 43.680225,94.434486 47.605717,95.888596 
	C55.371819,98.765388 55.373760,98.846764 53.633896,107.000275 
	C51.886070,107.171455 50.545925,107.342651 49.205784,107.513840 
	C48.975677,108.108795 48.745575,108.703751 48.515472,109.298698 
	C50.710209,110.705017 52.775352,112.474274 55.167282,113.328331 
	C56.050034,113.643524 57.702656,111.802589 59.336655,110.936249 
	C60.112343,110.941734 60.555527,110.956024 61.044853,111.355331 
	C61.727383,115.160133 62.363770,118.579910 62.879173,122.283798 
	C62.838894,123.712029 62.919601,124.856171 63.038147,126.339005 
	C64.050652,127.451797 65.025330,128.225906 66.000008,129.414719 
	C66.363739,131.729523 66.581558,133.672531 67.124947,135.519760 
	C67.966583,138.380844 69.030396,141.176559 70.000000,144.000000 
z"/>
<path fill="#EEF0FD" opacity="1.000000" stroke="none" 
	d="
M127.000000,1.000000 
	C147.295258,1.000000 167.590500,1.000000 187.941498,1.000000 
	C187.941498,48.666668 187.941498,96.333336 187.941498,144.000000 
	C178.234436,144.000000 168.585876,144.000000 158.468658,143.548462 
	C157.217911,138.456467 157.191910,133.512375 155.478653,129.245834 
	C152.828659,122.646584 147.985092,116.906952 148.905319,109.077461 
	C149.097626,107.441216 147.962891,105.685593 147.659515,103.946632 
	C147.092743,100.697861 145.305557,97.283401 149.604660,94.848946 
	C152.280594,93.333641 150.437103,91.978455 148.791840,90.570770 
	C148.211868,88.849655 147.921234,87.278008 147.050415,86.157074 
	C143.673096,81.809639 143.786087,78.257942 148.657318,75.040756 
	C149.754410,74.316193 150.075058,72.416016 150.704895,70.759727 
	C150.030594,69.994873 149.404526,69.527313 148.681122,68.785049 
	C148.086746,68.227493 147.589706,67.944641 147.090485,67.409874 
	C147.086182,66.990021 147.084076,66.822083 147.068085,66.305405 
	C147.693787,64.667381 147.995361,62.892899 149.030670,62.171795 
	C153.829132,58.829563 147.742386,55.282455 149.426041,51.982342 
	C147.409912,51.382683 145.393768,50.783020 143.301193,50.292366 
	C143.224747,50.401371 142.972290,50.316696 142.981720,49.895485 
	C140.667267,44.556290 145.291122,39.396236 142.808029,34.438091 
	C140.813873,35.081535 139.147400,35.619251 137.362976,36.237213 
	C137.245041,36.317463 136.993820,36.182240 136.813324,35.880615 
	C135.122772,33.941071 133.311203,32.488403 132.166840,30.625811 
	C129.938507,26.998920 128.031754,23.168686 126.112152,19.361986 
	C125.642929,18.431461 125.377937,17.244297 125.465118,16.212835 
	C125.894302,11.134921 126.473656,6.069701 127.000000,1.000000 
z"/>
<path fill="#ECEEFD" opacity="1.000000" stroke="none" 
	d="
M148.814651,90.927277 
	C150.437103,91.978455 152.280594,93.333641 149.604660,94.848946 
	C145.305557,97.283401 147.092743,100.697861 147.659515,103.946632 
	C147.962891,105.685593 149.097626,107.441216 148.905319,109.077461 
	C147.985092,116.906952 152.828659,122.646584 155.478653,129.245834 
	C157.191910,133.512375 157.217911,138.456467 158.000000,143.548462 
	C128.979111,144.000000 99.958214,144.000000 70.468658,144.000000 
	C69.030396,141.176559 67.966583,138.380844 67.124947,135.519760 
	C66.581558,133.672531 66.363739,131.729523 66.260391,129.192719 
	C69.965134,121.631302 70.334259,131.553146 73.426537,129.075089 
	C73.797256,128.298676 74.525032,126.774445 75.204254,125.351913 
	C78.767937,127.557961 82.089546,129.614151 86.289848,132.214294 
	C86.660767,129.492630 86.828354,128.262939 87.315071,126.979401 
	C87.839577,126.859779 88.044960,126.794029 88.502625,126.746826 
	C89.091644,126.778343 89.428375,126.791313 90.040115,126.794983 
	C90.532021,126.505913 90.748932,126.226143 90.981155,125.973785 
	C90.996468,126.001213 90.947235,125.961998 91.196671,125.904831 
	C91.636871,125.576111 91.827637,125.304550 92.088562,124.839523 
	C92.158737,124.646049 92.193619,124.235916 92.431618,124.208878 
	C92.669617,124.181847 93.132538,124.057022 93.433975,124.036980 
	C94.119476,123.604439 94.503548,123.191933 95.002670,122.583244 
	C95.311424,122.134926 95.564560,121.979790 96.282211,121.964935 
	C98.288071,122.216110 99.888832,122.423996 101.637611,122.685852 
	C101.785629,122.739807 102.000450,122.970314 102.046692,123.309662 
	C102.819954,123.979111 103.546974,124.309212 104.147171,124.740021 
	C104.020340,124.840729 104.295448,124.669823 104.349823,124.981323 
	C104.957062,125.506721 105.509926,125.720634 106.029541,125.963058 
	C105.996300,125.991585 106.058823,125.926697 106.068520,126.228561 
	C111.404724,128.056824 111.448265,124.253967 111.948914,120.507195 
	C112.693970,119.104309 113.338272,118.004822 114.296753,116.951263 
	C115.388390,117.275444 116.165833,117.553680 117.129890,118.109406 
	C117.943336,118.522896 118.570168,118.658913 119.139229,118.812614 
	C119.081451,118.830292 119.093201,118.710022 119.263535,119.038681 
	C120.621109,119.577690 121.808357,119.788040 122.997955,119.998886 
	C123.000305,119.999390 123.002205,120.003075 123.073013,120.355133 
	C127.657242,123.871918 127.233597,119.757851 128.106857,117.397224 
	C128.998596,114.986626 129.437210,111.437805 131.177429,110.550171 
	C133.506302,109.362274 136.897064,110.256226 140.775833,110.256226 
	C141.039444,108.401817 141.372620,105.362183 141.926086,102.363205 
	C142.462402,99.457031 143.225159,96.592636 143.899139,93.763351 
	C143.909821,93.816803 143.804779,93.787605 144.213470,93.854691 
	C145.705597,93.136810 146.789032,92.351830 147.963318,91.379929 
	C148.263199,90.977150 148.516693,90.888573 148.814651,90.927277 
z"/>
<path fill="#ECEDFA" opacity="1.000000" stroke="none" 
	d="
M126.531342,1.000000 
	C126.473656,6.069701 125.894302,11.134921 125.465118,16.212835 
	C125.377937,17.244297 125.642929,18.431461 126.112152,19.361986 
	C128.031754,23.168686 129.938507,26.998920 132.166840,30.625811 
	C133.311203,32.488403 135.122772,33.941071 136.357361,35.949436 
	C127.105560,36.319160 126.994873,36.353306 124.468857,28.165174 
	C123.520630,25.091511 122.032112,24.869205 119.316238,25.827471 
	C110.920288,28.789877 112.819458,29.202509 107.447342,22.130009 
	C106.711906,21.161800 105.007317,20.929737 103.480392,20.423681 
	C102.832199,20.888962 102.455048,21.287407 101.739655,21.765522 
	C101.103600,22.188807 100.805786,22.532421 100.185768,22.935102 
	C98.849213,23.826424 97.834862,24.658680 96.465790,25.427284 
	C95.384254,25.323500 94.657455,25.283365 93.765617,24.989452 
	C93.065285,24.493252 92.529976,24.250832 91.997391,24.004387 
	C92.000114,24.000366 91.990997,24.005810 91.848892,23.693935 
	C86.266632,18.911518 86.090225,18.806728 82.771996,24.392834 
	C80.298218,28.557327 77.659210,30.182295 72.974014,27.514704 
	C71.543854,26.700424 69.206818,27.478918 67.285103,27.527969 
	C66.648796,25.387398 66.012489,23.246824 66.038445,21.092794 
	C69.460999,22.763910 72.221298,24.448481 74.981598,26.133053 
	C73.779198,20.950829 71.217247,17.938534 66.001221,19.000916 
	C65.069603,18.545307 64.137985,18.089701 63.206367,17.634092 
	C64.044388,16.521080 64.661560,14.978919 65.776962,14.404929 
	C67.136223,13.705446 68.914467,13.820148 70.204109,13.628394 
	C69.439110,9.547696 68.719727,5.710360 68.000175,1.436512 
	C87.354225,1.000000 106.708458,1.000000 126.531342,1.000000 
z"/>
<path fill="#F49429" opacity="1.000000" stroke="none" 
	d="
M67.292694,27.784451 
	C69.206818,27.478918 71.543854,26.700424 72.974014,27.514704 
	C77.659210,30.182295 80.298218,28.557327 82.771996,24.392834 
	C86.090225,18.806728 86.266632,18.911518 91.481430,23.689175 
	C86.338562,21.445526 83.712746,21.957104 85.843147,28.449488 
	C84.159996,28.855072 82.801468,29.182434 81.751854,29.435356 
	C81.471893,31.572418 81.243439,33.316227 80.820251,35.306297 
	C79.416504,36.366844 78.207504,37.181129 76.655830,38.033649 
	C74.546494,39.052444 72.779831,40.033012 71.012520,40.598175 
	C70.722420,38.201595 70.432968,36.220417 70.238495,34.889278 
	C67.374268,36.909550 65.192978,38.448112 62.774731,39.720806 
	C61.867966,39.198570 61.198166,38.942207 60.873009,38.493820 
	C68.154610,38.278442 65.536079,32.412010 66.912613,28.988522 
	C67.041840,28.672657 67.171059,28.356794 67.292694,27.784451 
z"/>
<path fill="#E8EDFD" opacity="1.000000" stroke="none" 
	d="
M86.995941,127.033257 
	C86.828354,128.262939 86.660767,129.492630 86.289848,132.214294 
	C82.089546,129.614151 78.767937,127.557961 75.204254,125.351913 
	C74.525032,126.774445 73.797256,128.298676 73.426537,129.075089 
	C70.334259,131.553146 69.965134,121.631302 66.260376,128.778015 
	C65.025330,128.225906 64.050652,127.451797 63.400043,126.330154 
	C64.415985,125.347473 65.107872,124.712326 65.799759,124.077179 
	C64.866562,123.384682 63.933357,122.692184 63.000156,121.999695 
	C62.363770,118.579910 61.727383,115.160133 61.444839,111.342880 
	C64.117607,110.966095 66.689674,110.543427 66.841599,114.127289 
	C67.055290,114.866699 67.499107,115.435081 67.975876,116.390198 
	C68.642410,118.221306 69.275993,119.665695 70.202408,121.348412 
	C72.276375,121.687019 74.057510,121.787300 76.190521,122.057663 
	C79.048668,122.818810 81.554916,123.409866 84.079956,124.231735 
	C84.098732,124.462547 84.124077,124.925003 83.875862,125.123810 
	C84.455231,125.865112 85.282806,126.407616 86.332932,126.958527 
	C86.555489,126.966934 86.995941,127.033257 86.995941,127.033257 
z"/>
<path fill="#FAD1C0" opacity="1.000000" stroke="none" 
	d="
M67.071724,113.956261 
	C66.689674,110.543427 64.117607,110.966095 61.398697,110.957870 
	C60.555527,110.956024 60.112343,110.941734 58.961311,110.922768 
	C56.849503,109.612152 55.445541,108.306213 54.041580,107.000275 
	C55.373760,98.846764 55.371819,98.765388 47.605717,95.888596 
	C43.680225,94.434486 44.173206,90.551178 45.546810,88.939842 
	C50.405319,83.240471 46.419834,80.437019 42.388268,76.816284 
	C42.124111,76.180794 42.148670,75.989212 42.401299,75.746078 
	C42.629364,75.694527 43.052429,75.493713 43.346073,75.681183 
	C45.759865,77.570709 47.880013,79.272766 50.138458,81.215378 
	C50.490955,81.965073 50.705154,82.474220 50.742855,83.204025 
	C50.388077,83.951469 50.209801,84.478249 49.800468,85.264534 
	C48.452564,87.845802 47.335720,90.167580 46.094322,92.748276 
	C49.891850,94.437286 54.547039,95.062637 56.099438,97.592186 
	C57.753227,100.286949 56.471649,104.783165 56.471649,108.728218 
	C57.571148,108.859482 58.690262,109.066597 59.816261,109.115700 
	C67.725105,109.460670 67.725563,109.450256 69.815918,117.350143 
	C69.975670,118.694855 70.161316,119.667305 70.236908,120.756676 
	C70.126854,120.873604 69.909569,121.110085 69.909569,121.110085 
	C69.275993,119.665695 68.642410,118.221306 67.968536,116.096283 
	C67.642738,114.929192 67.357231,114.442726 67.071724,113.956261 
z"/>
<path fill="#F18020" opacity="1.000000" stroke="none" 
	d="
M44.059975,56.838631 
	C44.080788,56.448212 44.101601,56.057793 44.471191,55.356003 
	C45.920448,54.404987 47.020927,53.765343 48.121407,53.125694 
	C48.121407,53.125694 48.053062,53.173286 48.472843,53.207531 
	C53.124260,52.252857 56.426632,50.653297 54.400364,45.283264 
	C54.214874,44.791676 54.660309,44.062019 54.899380,43.061462 
	C55.042732,42.426758 55.099472,42.173500 55.375999,42.168457 
	C56.266529,45.162029 56.789967,47.956875 57.686642,50.626343 
	C58.007477,51.581482 59.230381,52.233612 59.994568,53.365234 
	C59.628197,54.802464 59.308819,55.898502 58.777664,57.107151 
	C58.297226,57.422127 58.132015,57.688637 58.058235,58.417061 
	C58.031166,59.875950 58.016132,60.937069 57.786163,62.111210 
	C57.306297,62.425816 57.113247,62.681652 56.661293,62.930717 
	C56.168137,61.237743 56.486725,59.314335 55.719799,58.048714 
	C54.792629,56.518650 52.965790,54.588299 51.492973,54.558167 
	C49.337978,54.514072 47.562908,56.120110 48.768173,59.056011 
	C49.168228,60.030495 48.771523,61.332069 48.427589,62.339146 
	C46.764057,60.409004 45.412018,58.623817 44.059975,56.838631 
z"/>
<path fill="#ECEDFA" opacity="1.000000" stroke="none" 
	d="
M66.507187,28.992311 
	C65.536079,32.412010 68.154610,38.278442 60.486137,38.420120 
	C58.169189,38.742390 56.583755,38.946331 54.685650,39.118271 
	C53.954071,39.095112 53.535168,39.103958 53.069515,39.073097 
	C53.022766,39.033390 52.926636,38.957195 52.950111,38.624367 
	C53.315773,37.526005 53.657963,36.760464 54.000153,35.994923 
	C55.124111,35.903873 56.248070,35.812824 57.901951,35.678844 
	C55.478939,31.753237 56.823338,30.142632 60.766953,29.942402 
	C62.556618,29.851538 64.324165,29.325003 66.507187,28.992311 
z"/>
<path fill="#ECEDFA" opacity="1.000000" stroke="none" 
	d="
M44.049011,57.261887 
	C45.412018,58.623817 46.764057,60.409004 48.442093,62.501511 
	C48.768085,62.808830 49.038887,62.993710 49.033089,63.289635 
	C49.333843,64.065720 49.640392,64.545883 49.908531,65.279968 
	C49.913509,65.699509 49.956898,65.865128 49.735325,66.187790 
	C48.661743,67.231995 47.853115,68.119133 46.740211,69.103500 
	C45.303429,70.144875 44.170921,71.089027 43.004086,72.004227 
	C42.969757,71.975273 42.899155,71.919769 42.899155,71.919769 
	C43.176476,69.956024 41.862354,68.097725 44.266361,65.959709 
	C45.593533,64.779373 44.203270,60.543541 44.049011,57.261887 
z"/>
<path fill="#ECEDFA" opacity="1.000000" stroke="none" 
	d="
M54.812767,43.442913 
	C54.660309,44.062019 54.214874,44.791676 54.400364,45.283264 
	C56.426632,50.653297 53.124260,52.252857 48.513470,53.216671 
	C49.089649,50.079487 50.044983,46.967403 51.254086,43.212399 
	C51.980782,41.365379 52.453709,40.161285 52.926636,38.957195 
	C52.926636,38.957195 53.022766,39.033390 53.074203,39.410614 
	C53.688019,41.006199 54.250393,42.224556 54.812767,43.442913 
z"/>
<path fill="#E7EDFE" opacity="1.000000" stroke="none" 
	d="
M52.950111,38.624367 
	C52.453709,40.161285 51.980782,41.365379 51.254234,42.784782 
	C46.483383,43.257984 47.349926,40.433182 48.375221,37.357662 
	C49.507801,35.651405 50.253368,34.326565 50.998932,33.001728 
	C51.475418,32.485340 51.951908,31.968952 52.428394,31.452564 
	C52.951817,32.717716 53.475239,33.982864 53.999409,35.621468 
	C53.657963,36.760464 53.315773,37.526005 52.950111,38.624367 
z"/>
<path fill="#E8EDFD" opacity="1.000000" stroke="none" 
	d="
M53.633896,107.000275 
	C55.445541,108.306213 56.849503,109.612152 58.628807,110.931580 
	C57.702656,111.802589 56.050034,113.643524 55.167282,113.328331 
	C52.775352,112.474274 50.710209,110.705017 48.515472,109.298698 
	C48.745575,108.703751 48.975677,108.108795 49.205784,107.513840 
	C50.545925,107.342651 51.886070,107.171455 53.633896,107.000275 
z"/>
<path fill="#E6EFFD" opacity="1.000000" stroke="none" 
	d="
M66.000824,19.334030 
	C71.217247,17.938534 73.779198,20.950829 74.981598,26.133053 
	C72.221298,24.448481 69.460999,22.763910 66.350655,21.039478 
	C66.000557,20.555460 66.000496,20.111303 66.000824,19.334030 
z"/>
<path fill="#ECEDFA" opacity="1.000000" stroke="none" 
	d="
M50.633442,33.007202 
	C50.253368,34.326565 49.507801,35.651405 48.381195,36.988365 
	C45.889942,34.041286 47.848770,33.396084 50.633442,33.007202 
z"/>
<path fill="#ECEEFD" opacity="1.000000" stroke="none" 
	d="
M62.879173,122.283798 
	C63.933357,122.692184 64.866562,123.384682 65.799759,124.077179 
	C65.107872,124.712326 64.415985,125.347473 63.362206,125.991463 
	C62.919601,124.856171 62.838894,123.712029 62.879173,122.283798 
z"/>
<path fill="#ECEDFA" opacity="1.000000" stroke="none" 
	d="
M42.173233,75.797623 
	C42.148670,75.989212 42.124111,76.180794 42.088406,76.661240 
	C41.725655,77.256310 41.388695,77.581810 41.018120,77.863014 
	C40.679718,78.119804 40.304920,78.328629 38.583202,79.432236 
	C39.472858,77.175179 39.874069,76.157303 40.846783,75.081650 
	C41.418285,75.023888 41.905369,74.999977 41.974274,75.198944 
	C42.043182,75.397919 42.173233,75.797623 42.173233,75.797623 
z"/>
<path fill="#ECEDFA" opacity="1.000000" stroke="none" 
	d="
M47.730881,53.083450 
	C47.020927,53.765343 45.920448,54.404987 44.490623,55.063423 
	C43.604271,53.014008 43.604271,53.014008 47.730881,53.083450 
z"/>
<path fill="#FAD1C0" opacity="1.000000" stroke="none" 
	d="
M41.905369,74.999977 
	C41.905369,74.999977 41.418285,75.023888 41.173832,75.017975 
	C41.160255,74.374725 41.391136,73.737404 41.883965,73.018402 
	C42.145908,72.936722 42.102936,73.247330 42.134125,73.544998 
	C42.078667,74.228432 41.992020,74.614204 41.905369,74.999977 
z"/>
<path fill="#ECEDFA" opacity="1.000000" stroke="none" 
	d="
M42.131073,72.780640 
	C42.228611,72.410011 42.385483,72.235420 42.743008,72.010269 
	C42.899155,71.919769 42.969757,71.975273 42.981804,72.249863 
	C42.993855,72.524460 42.983398,73.017693 42.756550,73.049286 
	C42.529701,73.080879 42.102936,73.247330 42.102936,73.247330 
	C42.102936,73.247330 42.145908,72.936722 42.131073,72.780640 
z"/>
<path fill="#F7A729" opacity="1.000000" stroke="none" 
	d="
M103.751434,20.356846 
	C105.007317,20.929737 106.711906,21.161800 107.447342,22.130009 
	C112.819458,29.202509 110.920288,28.789877 119.316238,25.827471 
	C122.032112,24.869205 123.520630,25.091511 124.468857,28.165174 
	C126.994873,36.353306 127.105560,36.319160 136.537857,36.251060 
	C136.993820,36.182240 137.245041,36.317463 137.498657,36.662136 
	C137.737762,39.114506 138.103149,41.311554 137.632645,43.312004 
	C136.522110,48.033672 138.606552,49.954941 142.972290,50.316696 
	C142.972290,50.316696 143.224747,50.401371 143.511505,50.585361 
	C144.560852,52.388702 149.683823,51.137028 146.281784,55.158417 
	C141.870117,55.487362 142.437790,57.184963 144.574585,59.754864 
	C144.379883,61.758324 144.221344,63.355587 143.697937,64.926651 
	C142.510956,63.642841 141.553238,62.451641 140.897400,61.112583 
	C139.823364,58.919640 138.589996,57.450516 135.727081,59.010567 
	C135.307434,59.020695 135.139557,59.028057 134.710907,58.790016 
	C132.983475,56.020603 131.516830,53.496605 129.883652,50.675560 
	C125.853668,43.593567 120.729561,38.277985 112.748093,35.761200 
	C110.679604,35.021015 108.844833,34.540081 106.988617,33.810066 
	C106.954056,33.394836 106.940948,33.228683 107.283340,33.034691 
	C108.284401,32.759018 108.929970,32.511185 109.575546,32.263355 
	C109.347435,31.757215 109.119324,31.251074 108.891220,30.744934 
	C107.595940,31.488588 106.300659,32.232243 104.588928,32.985649 
	C102.113754,32.689034 100.055038,32.382675 98.212280,31.806660 
	C99.818344,31.450056 101.208443,31.363113 103.256386,31.235025 
	C103.422165,27.592249 103.586800,23.974548 103.751434,20.356846 
M142.569504,61.513210 
	C142.569504,61.513210 142.475479,61.565865 142.569504,61.513210 
z"/>
<path fill="#F69625" opacity="1.000000" stroke="none" 
	d="
M148.791840,90.570770 
	C148.516693,90.888573 148.263199,90.977150 147.624268,91.447647 
	C146.064514,92.397400 144.934647,93.092499 143.804779,93.787605 
	C143.804779,93.787605 143.909821,93.816803 143.503784,93.722198 
	C142.312027,93.741333 141.526306,93.855057 140.653473,94.031548 
	C140.566345,94.094307 140.212799,94.325356 139.937805,94.547012 
	C139.433426,94.821922 139.204056,94.875175 138.750977,94.681107 
	C136.681686,93.617294 134.836136,92.800819 132.998840,91.611588 
	C134.332138,88.156937 135.657150,85.075043 136.987701,81.594849 
	C137.001984,80.134338 137.010681,79.072136 137.382355,78.013649 
	C140.451492,79.004684 142.510590,78.410355 144.508118,76.134758 
	C146.253220,74.146729 148.646317,72.727524 150.753128,71.057022 
	C150.075058,72.416016 149.754410,74.316193 148.657318,75.040756 
	C143.786087,78.257942 143.673096,81.809639 147.050415,86.157074 
	C147.921234,87.278008 148.211868,88.849655 148.791840,90.570770 
z"/>
<path fill="#F99D24" opacity="1.000000" stroke="none" 
	d="
M150.704895,70.759735 
	C148.646317,72.727524 146.253220,74.146729 144.508118,76.134758 
	C142.510590,78.410355 140.451492,79.004684 137.376373,77.637794 
	C137.006439,76.507164 137.005493,75.756104 137.282364,74.721924 
	C137.033081,69.295135 136.505981,64.151474 135.978882,59.007805 
	C138.589996,57.450516 139.823364,58.919640 140.897400,61.112583 
	C141.553238,62.451641 142.510956,63.642841 143.678909,64.940811 
	C144.024734,64.981178 144.023438,64.937569 144.131042,65.171997 
	C144.522018,65.590088 144.805374,65.773758 145.052887,65.970039 
	C145.017059,65.982658 145.039520,65.910072 145.156982,66.158371 
	C145.588608,66.578903 145.902756,66.751137 146.435760,66.864334 
	C146.654587,66.805305 147.081955,66.654144 147.081955,66.654144 
	C147.084076,66.822083 147.086182,66.990021 147.174988,67.698700 
	C147.767288,68.512871 148.272888,68.786308 148.778473,69.059753 
	C149.404526,69.527313 150.030594,69.994873 150.704895,70.759735 
z"/>
<path fill="#ECEDFA" opacity="1.000000" stroke="none" 
	d="
M142.981720,49.895485 
	C138.606552,49.954941 136.522110,48.033672 137.632645,43.312004 
	C138.103149,41.311554 137.737762,39.114506 137.616608,36.581886 
	C139.147400,35.619251 140.813873,35.081535 142.808029,34.438091 
	C145.291122,39.396236 140.667267,44.556290 142.981720,49.895485 
z"/>
<path fill="#ECEDFA" opacity="1.000000" stroke="none" 
	d="
M147.068085,66.305405 
	C147.081955,66.654144 146.654587,66.805305 146.325089,66.610565 
	C145.676910,66.247238 145.358215,66.078651 145.039520,65.910065 
	C145.039520,65.910072 145.017059,65.982658 144.983063,65.706100 
	C144.640518,65.265556 144.331970,65.101562 144.023438,64.937569 
	C144.023438,64.937569 144.024734,64.981178 144.043762,64.967010 
	C144.221344,63.355587 144.379883,61.758324 144.736359,59.626564 
	C145.127457,58.862560 145.192169,58.601223 145.407547,58.087036 
	C145.929596,57.209156 146.172531,56.552288 146.566864,55.757202 
	C146.718277,55.618984 146.721481,55.208992 146.721481,55.208992 
	C149.683823,51.137028 144.560852,52.388702 143.587952,50.476357 
	C145.393768,50.783020 147.409912,51.382683 149.426041,51.982342 
	C147.742386,55.282455 153.829132,58.829563 149.030670,62.171795 
	C147.995361,62.892899 147.693787,64.667381 147.068085,66.305405 
z"/>
<path fill="#F7A729" opacity="1.000000" stroke="none" 
	d="
M148.681122,68.785049 
	C148.272888,68.786308 147.767288,68.512871 147.177185,67.950607 
	C147.589706,67.944641 148.086746,68.227493 148.681122,68.785049 
z"/>
<path fill="#F68B24" opacity="1.000000" stroke="none" 
	d="
M132.990570,91.984344 
	C134.836136,92.800819 136.681686,93.617294 138.675079,95.126892 
	C139.109909,99.264778 139.396896,102.709526 139.726730,106.668678 
	C137.733597,107.037773 135.647247,107.812653 133.597763,107.725060 
	C128.922333,107.525230 127.242180,109.601555 126.797592,114.128128 
	C126.595001,116.190804 124.331131,118.051025 123.002205,120.003075 
	C123.002205,120.003075 123.000305,119.999390 122.807755,119.689552 
	C121.441200,119.156479 120.267197,118.933250 119.093201,118.710022 
	C119.093201,118.710022 119.081451,118.830292 118.967621,118.530731 
	C118.216957,118.098091 117.580116,117.965004 116.943283,117.831924 
	C116.165833,117.553680 115.388390,117.275444 114.297226,116.717224 
	C113.983513,116.437241 113.999649,115.969429 114.451317,115.973557 
	C116.535843,115.988876 118.274063,116.360565 119.775398,115.921768 
	C121.737244,115.348366 124.958237,114.304413 125.092979,113.162628 
	C125.482765,109.859573 129.391327,106.230431 125.033447,102.637970 
	C127.052063,99.530624 129.029449,96.768631 131.245850,93.846779 
	C131.986755,93.119392 132.488663,92.551865 132.990570,91.984344 
z"/>
<path fill="#F2761F" opacity="1.000000" stroke="none" 
	d="
M113.999649,115.969429 
	C113.999649,115.969429 113.983513,116.437241 113.983040,116.671280 
	C113.338272,118.004822 112.693970,119.104309 111.658936,120.680099 
	C109.531746,122.746506 107.795288,124.336601 106.058823,125.926697 
	C106.058823,125.926697 105.996300,125.991585 105.913017,125.695801 
	C105.318306,125.156616 104.806877,124.913223 104.295448,124.669823 
	C104.295448,124.669823 104.020340,124.840729 104.033760,124.462601 
	C103.364937,123.713081 102.682693,123.341698 102.000450,122.970314 
	C102.000450,122.970314 101.785629,122.739807 101.483871,122.387337 
	C99.812576,121.388115 98.443031,120.741364 97.032028,120.036621 
	C96.990570,119.978622 96.911446,119.860016 97.164368,119.613434 
	C99.529381,118.066864 102.924644,117.863449 102.291512,113.707260 
	C104.698738,113.279900 106.832314,113.128799 109.188606,113.237823 
	C110.940773,114.321785 112.470207,115.145607 113.999649,115.969429 
z"/>
<path fill="#EEF0FD" opacity="1.000000" stroke="none" 
	d="
M123.073013,120.355133 
	C124.331131,118.051025 126.595001,116.190804 126.797592,114.128128 
	C127.242180,109.601555 128.922333,107.525230 133.597763,107.725060 
	C135.647247,107.812653 137.733597,107.037773 139.726730,106.668678 
	C139.396896,102.709526 139.109909,99.264778 138.898804,95.374229 
	C139.204056,94.875175 139.433426,94.821922 140.072510,94.609688 
	C140.714294,94.368835 140.800430,94.208191 140.740601,93.968788 
	C141.526306,93.855057 142.312027,93.741333 143.493103,93.668747 
	C143.225159,96.592636 142.462402,99.457031 141.926086,102.363205 
	C141.372620,105.362183 141.039444,108.401817 140.775833,110.256226 
	C136.897064,110.256226 133.506302,109.362274 131.177429,110.550171 
	C129.437210,111.437805 128.998596,114.986626 128.106857,117.397224 
	C127.233597,119.757851 127.657242,123.871918 123.073013,120.355133 
z"/>
<path fill="#FAD1C0" opacity="1.000000" stroke="none" 
	d="
M106.068520,126.228561 
	C107.795288,124.336601 109.531746,122.746506 111.558182,120.983505 
	C111.448265,124.253967 111.404724,128.056824 106.068520,126.228561 
z"/>
<path fill="#FAD1C0" opacity="1.000000" stroke="none" 
	d="
M84.124077,124.925003 
	C84.124077,124.925003 84.098732,124.462547 84.074615,123.900620 
	C84.026306,122.898041 84.002106,122.457390 84.136421,121.867531 
	C84.294937,121.718315 84.611320,121.419205 84.790741,121.541512 
	C85.173103,121.882462 85.418961,122.029152 85.777344,122.393509 
	C86.227547,123.112206 86.608154,123.541298 86.988571,123.986366 
	C86.988373,124.002342 87.020004,124.011856 87.092155,124.306305 
	C87.526314,125.309929 87.888321,126.019096 88.250336,126.728271 
	C88.044960,126.794029 87.839577,126.859779 87.315071,126.979401 
	C86.995941,127.033257 86.555489,126.966934 86.194725,126.702957 
	C85.264000,125.934319 84.694038,125.429657 84.124077,124.925003 
z"/>
<path fill="#F2761F" opacity="1.000000" stroke="none" 
	d="
M88.502625,126.746826 
	C87.888321,126.019096 87.526314,125.309929 87.498573,124.297722 
	C89.182182,123.940300 90.531532,123.885910 91.958450,123.933090 
	C92.036034,124.034660 92.193619,124.235916 92.193619,124.235916 
	C92.193619,124.235916 92.158737,124.646049 91.832779,124.887238 
	C91.320297,125.406288 91.133766,125.684143 90.947235,125.961998 
	C90.947235,125.961998 90.996468,126.001213 90.719101,126.016075 
	C90.216202,126.288719 89.990662,126.546494 89.765114,126.804276 
	C89.428375,126.791313 89.091644,126.778343 88.502625,126.746826 
z"/>
<path fill="#FAD1C0" opacity="1.000000" stroke="none" 
	d="
M97.073486,120.094612 
	C98.443031,120.741364 99.812576,121.388115 101.335861,122.333374 
	C99.888832,122.423996 98.288071,122.216110 96.376831,121.702400 
	C96.402061,120.962593 96.737770,120.528603 97.073486,120.094612 
z"/>
<path fill="#F2761F" opacity="1.000000" stroke="none" 
	d="
M97.032028,120.036613 
	C96.737770,120.528603 96.402061,120.962593 95.971733,121.659119 
	C95.564560,121.979790 95.311424,122.134926 94.712669,122.618423 
	C93.933243,122.953751 93.558861,123.057701 93.105118,123.094589 
	C93.025749,123.027527 92.865997,122.894630 92.954666,122.557632 
	C94.332710,121.433769 95.622078,120.646889 96.911446,119.860016 
	C96.911446,119.860016 96.990570,119.978622 97.032028,120.036613 
z"/>
<path fill="#EEF0FD" opacity="1.000000" stroke="none" 
	d="
M144.213470,93.854691 
	C144.934647,93.092499 146.064514,92.397400 147.533417,91.634567 
	C146.789032,92.351830 145.705597,93.136810 144.213470,93.854691 
z"/>
<path fill="#EEF0FD" opacity="1.000000" stroke="none" 
	d="
M119.263535,119.038681 
	C120.267197,118.933250 121.441200,119.156479 122.805405,119.689056 
	C121.808357,119.788040 120.621109,119.577690 119.263535,119.038681 
z"/>
<path fill="#FAD1C0" opacity="1.000000" stroke="none" 
	d="
M102.046692,123.309662 
	C102.682693,123.341698 103.364937,123.713081 104.160591,124.361893 
	C103.546974,124.309212 102.819954,123.979111 102.046692,123.309662 
z"/>
<path fill="#FAD1C0" opacity="1.000000" stroke="none" 
	d="
M93.184479,123.161652 
	C93.558861,123.057701 93.933243,122.953751 94.597626,122.814621 
	C94.503548,123.191933 94.119476,123.604439 93.427567,123.811974 
	C93.119728,123.607010 93.184479,123.161652 93.184479,123.161652 
z"/>
<path fill="#FAD1C0" opacity="1.000000" stroke="none" 
	d="
M104.349823,124.981323 
	C104.806877,124.913223 105.318306,125.156616 105.946259,125.667282 
	C105.509926,125.720634 104.957062,125.506721 104.349823,124.981323 
z"/>
<path fill="#EEF0FD" opacity="1.000000" stroke="none" 
	d="
M117.129890,118.109398 
	C117.580116,117.965004 118.216957,118.098091 119.025398,118.513062 
	C118.570168,118.658913 117.943336,118.522896 117.129890,118.109398 
z"/>
<path fill="#F2761F" opacity="1.000000" stroke="none" 
	d="
M93.105118,123.094589 
	C93.184479,123.161652 93.119728,123.607010 93.126129,123.832016 
	C93.132538,124.057022 92.669617,124.181847 92.431618,124.208878 
	C92.193619,124.235916 92.036034,124.034660 92.098541,123.753311 
	C92.364769,123.241348 92.599754,123.048904 92.865997,122.894630 
	C92.865997,122.894630 93.025749,123.027527 93.105118,123.094589 
z"/>
<path fill="#FAD1C0" opacity="1.000000" stroke="none" 
	d="
M91.196671,125.904831 
	C91.133766,125.684143 91.320297,125.406288 91.762611,125.080711 
	C91.827637,125.304550 91.636871,125.576111 91.196671,125.904831 
z"/>
<path fill="#FAD1C0" opacity="1.000000" stroke="none" 
	d="
M90.040115,126.794983 
	C89.990662,126.546494 90.216202,126.288719 90.703789,125.988647 
	C90.748932,126.226143 90.532021,126.505913 90.040115,126.794983 
z"/>
<path fill="#F89C22" opacity="1.000000" stroke="none" 
	d="
M103.480392,20.423681 
	C103.586800,23.974548 103.422165,27.592249 103.256386,31.235025 
	C101.208443,31.363113 99.818344,31.450056 97.864319,31.802895 
	C96.198891,32.373013 95.097389,32.677238 93.580933,32.972931 
	C90.779266,33.319756 88.392555,33.675110 85.641129,34.063564 
	C83.855949,34.417782 82.435471,34.738907 81.014992,35.060032 
	C81.243439,33.316227 81.471893,31.572418 81.751854,29.435356 
	C82.801468,29.182434 84.159996,28.855072 85.843147,28.449488 
	C83.712746,21.957104 86.338562,21.445526 91.623535,24.001049 
	C91.990997,24.005810 92.000114,24.000366 92.040619,24.319057 
	C92.711906,25.077711 93.342697,25.517673 94.276855,25.982489 
	C95.326996,25.835205 96.073753,25.663071 96.820511,25.490936 
	C97.834862,24.658680 98.849213,23.826424 100.526443,22.857353 
	C101.485512,22.375641 101.781708,22.030746 102.077896,21.685852 
	C102.455048,21.287407 102.832199,20.888962 103.480392,20.423681 
z"/>
<path fill="#F49429" opacity="1.000000" stroke="none" 
	d="
M93.973480,25.957638 
	C93.342697,25.517673 92.711906,25.077711 92.037895,24.323078 
	C92.529976,24.250832 93.065285,24.493252 93.780304,25.167740 
	C93.960030,25.599806 93.973480,25.957640 93.973480,25.957638 
z"/>
<path fill="#F7A729" opacity="1.000000" stroke="none" 
	d="
M94.276855,25.982491 
	C93.973480,25.957640 93.960030,25.599806 93.945343,25.421518 
	C94.657455,25.283365 95.384254,25.323500 96.465790,25.427286 
	C96.073753,25.663071 95.326996,25.835205 94.276855,25.982491 
z"/>
<path fill="#F7A729" opacity="1.000000" stroke="none" 
	d="
M101.739655,21.765522 
	C101.781708,22.030746 101.485512,22.375641 100.848648,22.798286 
	C100.805786,22.532421 101.103600,22.188807 101.739655,21.765522 
z"/>
<path fill="#FDBE2F" opacity="1.000000" stroke="none" 
	d="
M71.013168,41.013577 
	C72.779831,40.033012 74.546494,39.052444 76.656570,38.501961 
	C76.531754,51.095127 77.012276,62.516727 88.250137,71.032684 
	C98.928589,79.124710 118.586670,79.040573 128.234604,69.560654 
	C130.475159,67.359100 132.743317,65.185631 134.999908,63.424149 
	C135.784271,68.104950 134.247589,71.659073 130.679810,73.675896 
	C125.265800,76.736351 119.727226,79.867279 113.852928,81.765709 
	C98.867668,86.608551 81.492340,77.651001 75.120224,63.979797 
	C72.127068,57.558044 71.600372,49.986687 70.066376,42.684353 
	C70.455589,41.959465 70.734383,41.486523 71.013168,41.013577 
z"/>
<path fill="#FDC831" opacity="1.000000" stroke="none" 
	d="
M134.998779,62.999237 
	C132.743317,65.185631 130.475159,67.359100 128.234604,69.560654 
	C118.586670,79.040573 98.928589,79.124710 88.250137,71.032684 
	C77.012276,62.516727 76.531754,51.095127 76.999237,38.463730 
	C78.207504,37.181129 79.416504,36.366844 80.820251,35.306297 
	C82.435471,34.738907 83.855949,34.417782 85.632263,34.441120 
	C82.629387,41.153622 81.825676,47.604424 84.009483,54.695156 
	C87.925865,67.411514 99.529884,74.162277 113.374298,71.046150 
	C120.985878,72.848694 127.952644,68.519859 129.066895,61.389515 
	C129.604401,57.949986 129.735229,54.446907 130.050186,50.972603 
	C131.516830,53.496605 132.983475,56.020603 134.718933,59.185349 
	C134.991409,60.883808 134.995102,61.941525 134.998779,62.999237 
z"/>
<path fill="#FC8610" opacity="1.000000" stroke="none" 
	d="
M71.012520,40.598175 
	C70.734383,41.486523 70.455589,41.959465 69.783264,42.842377 
	C68.569557,44.462399 67.749397,45.672455 66.619827,46.958363 
	C65.861511,47.678959 65.412605,48.323704 64.982178,48.983482 
	C65.000656,48.998520 64.966019,48.963638 64.651283,49.012222 
	C63.882763,49.692104 63.428974,50.323399 62.707047,51.092560 
	C61.639790,51.828297 60.840675,52.426167 60.041561,53.024040 
	C59.230381,52.233612 58.007477,51.581482 57.686642,50.626343 
	C56.789967,47.956875 56.266529,45.162029 55.342995,41.864880 
	C55.114899,40.906960 55.139584,40.500832 55.597370,40.068996 
	C58.357544,40.024422 60.684620,40.005550 63.011696,39.986679 
	C65.192978,38.448112 67.374268,36.909550 70.238495,34.889278 
	C70.432968,36.220417 70.722420,38.201595 71.012520,40.598175 
z"/>
<path fill="#F18020" opacity="1.000000" stroke="none" 
	d="
M62.774731,39.720810 
	C60.684620,40.005550 58.357544,40.024422 55.545540,39.834137 
	C55.060608,39.624981 54.998325,39.150272 54.998325,39.150272 
	C56.583755,38.946331 58.169189,38.742390 60.141495,38.612148 
	C61.198166,38.942207 61.867966,39.198570 62.774731,39.720810 
z"/>
<path fill="#FAD1C0" opacity="1.000000" stroke="none" 
	d="
M75.838638,121.887581 
	C74.057510,121.787300 72.276375,121.687019 70.202408,121.348412 
	C69.909569,121.110085 70.126854,120.873604 70.582039,120.776718 
	C73.994514,119.667374 76.951813,118.654907 80.284470,117.668182 
	C81.976990,118.935684 83.294151,120.177444 84.611320,121.419205 
	C84.611320,121.419205 84.294937,121.718315 83.906342,121.741684 
	C83.072029,121.489120 82.626312,121.213196 82.030975,120.711121 
	C81.576416,120.300949 81.271484,120.116936 80.596428,119.919907 
	C78.763748,120.567116 77.301193,121.227348 75.838638,121.887581 
z"/>
<path fill="#ECEEFD" opacity="1.000000" stroke="none" 
	d="
M82.180603,120.937263 
	C82.626312,121.213196 83.072029,121.489120 83.747826,121.890900 
	C84.002106,122.457390 84.026306,122.898041 84.055840,123.669800 
	C81.554916,123.409866 79.048668,122.818810 76.190521,122.057663 
	C77.301193,121.227348 78.763748,120.567116 80.733505,120.158310 
	C81.554008,120.585579 81.867310,120.761421 82.180603,120.937263 
z"/>
<path fill="#ECEEFD" opacity="1.000000" stroke="none" 
	d="
M83.875862,125.123810 
	C84.694038,125.429657 85.264000,125.934319 85.972168,126.694550 
	C85.282806,126.407616 84.455231,125.865112 83.875862,125.123810 
z"/>
<path fill="#ECEEFD" opacity="1.000000" stroke="none" 
	d="
M66.841599,114.127289 
	C67.357231,114.442726 67.642738,114.929192 67.935577,115.709564 
	C67.499107,115.435081 67.055290,114.866699 66.841599,114.127289 
z"/>
<path fill="#F8690D" opacity="1.000000" stroke="none" 
	d="
M84.790741,121.541512 
	C83.294151,120.177444 81.976990,118.935684 80.005402,117.470169 
	C77.597336,117.528595 75.841087,118.040680 74.090889,118.020767 
	C72.670753,118.004601 71.257896,117.349564 69.841812,116.977875 
	C67.725563,109.450256 67.725105,109.460670 59.816261,109.115700 
	C58.690262,109.066597 57.571148,108.859482 56.471649,108.728218 
	C56.471649,104.783165 57.753227,100.286949 56.099438,97.592186 
	C54.547039,95.062637 49.891850,94.437286 46.094322,92.748276 
	C47.335720,90.167580 48.452564,87.845802 50.058693,85.361153 
	C50.671768,84.459969 50.795563,83.721672 50.919357,82.983368 
	C50.705154,82.474220 50.490955,81.965073 50.154953,80.832993 
	C51.080402,79.490913 52.150169,78.199089 53.167576,78.239082 
	C53.941055,78.269501 54.749699,79.933342 55.361023,80.976852 
	C56.315643,82.606339 57.116501,84.325912 58.004005,86.373718 
	C61.676907,91.829979 65.328308,96.919838 69.134583,102.312119 
	C76.631310,109.193680 85.162025,113.090416 95.017685,114.352707 
	C95.401512,115.320663 95.778015,115.950142 96.154510,116.579620 
	C96.769730,115.725395 97.384949,114.871178 98.401550,114.014297 
	C99.874573,114.002258 100.946213,113.992897 102.017853,113.983528 
	C102.924644,117.863449 99.529381,118.066864 97.164368,119.613434 
	C95.622078,120.646889 94.332710,121.433769 92.954666,122.557632 
	C92.599754,123.048904 92.364769,123.241348 92.020958,123.651749 
	C90.531532,123.885910 89.182182,123.940300 87.426422,124.003273 
	C87.020004,124.011856 86.988373,124.002342 86.966751,123.673737 
	C86.532677,122.931389 86.120209,122.517647 85.707748,122.103897 
	C85.418961,122.029152 85.173103,121.882462 84.790741,121.541512 
z"/>
<path fill="#F67313" opacity="1.000000" stroke="none" 
	d="
M57.982506,86.007317 
	C57.116501,84.325912 56.315643,82.606339 55.361023,80.976852 
	C54.749699,79.933342 53.941055,78.269501 53.167576,78.239082 
	C52.150169,78.199089 51.080402,79.490913 50.016655,80.592438 
	C47.880013,79.272766 45.759865,77.570709 43.344948,75.372696 
	C43.027916,74.257065 43.005657,73.637383 42.983398,73.017693 
	C42.983398,73.017693 42.993855,72.524460 43.016136,72.278824 
	C44.170921,71.089027 45.303429,70.144875 47.106918,69.105194 
	C48.518696,68.016693 49.259491,67.023720 50.000282,66.030739 
	C49.956898,65.865128 49.913509,65.699509 50.140148,65.114471 
	C49.953079,64.127937 49.495983,63.560822 49.038887,62.993710 
	C49.038887,62.993710 48.768085,62.808830 48.753586,62.646465 
	C48.771523,61.332069 49.168228,60.030495 48.768173,59.056011 
	C47.562908,56.120110 49.337978,54.514072 51.492973,54.558167 
	C52.965790,54.588299 54.792629,56.518650 55.719799,58.048714 
	C56.486725,59.314335 56.168137,61.237743 56.670372,63.185799 
	C57.023308,63.671478 57.036373,63.841064 57.032974,64.383987 
	C57.007797,65.504601 56.999081,66.251869 56.712204,67.296234 
	C56.624130,71.728462 56.814209,75.863609 57.000572,80.386108 
	C57.325409,82.518089 57.653961,84.262703 57.982506,86.007317 
z"/>
<path fill="#F2761F" opacity="1.000000" stroke="none" 
	d="
M69.815918,117.350143 
	C71.257896,117.349564 72.670753,118.004601 74.090889,118.020767 
	C75.841087,118.040680 77.597336,117.528595 79.630043,117.444427 
	C76.951813,118.654907 73.994514,119.667374 70.692093,120.659790 
	C70.161316,119.667305 69.975670,118.694855 69.815918,117.350143 
z"/>
<path fill="#F67313" opacity="1.000000" stroke="none" 
	d="
M50.742855,83.204025 
	C50.795563,83.721672 50.671768,84.459969 50.289749,85.101654 
	C50.209801,84.478249 50.388077,83.951469 50.742855,83.204025 
z"/>
<path fill="#F18020" opacity="1.000000" stroke="none" 
	d="
M42.756550,73.049286 
	C43.005657,73.637383 43.027916,74.257065 43.051300,75.185234 
	C43.052429,75.493713 42.629364,75.694527 42.401299,75.746078 
	C42.173233,75.797623 42.043182,75.397919 41.974274,75.198944 
	C41.992020,74.614204 42.078667,74.228432 42.134125,73.544998 
	C42.102936,73.247330 42.529701,73.080879 42.756550,73.049286 
z"/>
<path fill="#FCA628" opacity="1.000000" stroke="none" 
	d="
M56.990364,66.999146 
	C56.999081,66.251869 57.007797,65.504601 57.315353,64.345627 
	C57.743164,63.288689 57.872131,62.643440 58.001099,61.998192 
	C58.016132,60.937069 58.031166,59.875950 58.276558,58.400711 
	C58.667755,57.655910 58.828594,57.325222 58.989437,56.994537 
	C59.308819,55.898502 59.628197,54.802464 59.994568,53.365234 
	C60.840675,52.426167 61.639790,51.828297 62.715572,51.512238 
	C61.685215,56.889599 62.100685,61.271217 64.716843,66.406036 
	C76.344582,89.228172 102.046448,99.980042 126.653519,88.588470 
	C130.326889,86.887917 133.550476,84.215805 136.982147,81.993149 
	C135.657150,85.075043 134.332138,88.156937 132.998840,91.611588 
	C132.488663,92.551865 131.986755,93.119392 130.825211,93.844193 
	C128.226562,94.282272 125.935555,93.998528 124.413277,94.947678 
	C119.464569,98.033203 114.141724,98.055069 108.629440,98.061989 
	C101.151169,98.071365 93.779671,98.150581 86.852493,94.554474 
	C84.322044,93.240845 82.118599,93.552483 81.751953,97.405960 
	C81.659081,98.382118 79.311325,99.143753 78.146698,99.667809 
	C80.150101,95.421173 77.598770,93.019302 75.157852,90.750786 
	C74.063255,89.733505 72.486275,89.235252 71.128197,88.501465 
	C70.419098,90.000748 69.710007,91.500031 68.698318,92.839066 
	C66.929222,90.452438 65.462708,88.226067 63.995705,85.666885 
	C63.993092,84.890343 63.990974,84.446602 64.289360,83.852913 
	C65.010452,82.048615 66.128380,80.182648 65.704132,78.784691 
	C64.863007,76.013062 63.426659,73.318321 61.741909,70.942398 
	C60.591778,69.320435 58.603760,68.292610 56.990364,66.999146 
z"/>
<path fill="#F49429" opacity="1.000000" stroke="none" 
	d="
M54.685650,39.118271 
	C54.998325,39.150272 55.060608,39.624981 55.112442,39.859840 
	C55.139584,40.500832 55.114899,40.906960 55.123215,41.616669 
	C55.099472,42.173500 55.042732,42.426758 54.899376,43.061462 
	C54.250393,42.224556 53.688019,41.006199 53.120956,39.450321 
	C53.535168,39.103958 53.954071,39.095112 54.685650,39.118271 
z"/>
<path fill="#FD9B26" opacity="1.000000" stroke="none" 
	d="
M57.786163,62.111210 
	C57.872131,62.643440 57.743164,63.288689 57.331818,63.972294 
	C57.036373,63.841064 57.023308,63.671478 57.001160,63.246811 
	C57.113247,62.681652 57.306297,62.425816 57.786163,62.111210 
z"/>
<path fill="#FD9B26" opacity="1.000000" stroke="none" 
	d="
M58.777664,57.107151 
	C58.828594,57.325222 58.667755,57.655910 58.288589,58.002945 
	C58.132015,57.688637 58.297226,57.422127 58.777664,57.107151 
z"/>
<path fill="#F18020" opacity="1.000000" stroke="none" 
	d="
M49.735325,66.187790 
	C49.259491,67.023720 48.518696,68.016693 47.411194,69.007973 
	C47.853115,68.119133 48.661743,67.231995 49.735325,66.187790 
z"/>
<path fill="#F18020" opacity="1.000000" stroke="none" 
	d="
M49.033089,63.289635 
	C49.495983,63.560822 49.953079,64.127937 50.178558,64.860550 
	C49.640392,64.545883 49.333843,64.065720 49.033089,63.289635 
z"/>
<path fill="#FDB52B" opacity="1.000000" stroke="none" 
	d="
M66.929237,46.882511 
	C67.749397,45.672455 68.569557,44.462399 69.672836,43.094315 
	C71.600372,49.986687 72.127068,57.558044 75.120224,63.979797 
	C81.492340,77.651001 98.867668,86.608551 113.852928,81.765709 
	C119.727226,79.867279 125.265800,76.736351 130.679810,73.675896 
	C134.247589,71.659073 135.784271,68.104950 134.999908,63.424149 
	C134.995102,61.941525 134.991409,60.883808 134.979706,59.430759 
	C135.139557,59.028057 135.307434,59.020695 135.727081,59.010567 
	C136.505981,64.151474 137.033081,69.295135 136.946320,74.775810 
	C130.333908,82.262222 122.408997,86.612389 113.473457,87.767540 
	C103.782822,89.020317 94.153847,88.141006 85.365746,82.304886 
	C73.240013,74.252281 66.327461,63.406078 64.966019,48.963638 
	C64.966019,48.963638 65.000656,48.998520 65.312149,48.946632 
	C66.058846,48.223999 66.494041,47.553253 66.929237,46.882511 
z"/>
<path fill="#FEE64C" opacity="1.000000" stroke="none" 
	d="
M107.010063,34.059147 
	C108.844833,34.540081 110.679604,35.021015 112.757492,36.129204 
	C113.790482,37.906002 114.560143,39.070065 115.373955,40.202408 
	C118.015831,43.878307 122.448318,45.508587 123.838295,50.969997 
	C126.693550,62.188736 123.762070,67.002701 111.832657,66.684067 
	C107.308334,63.279316 102.463264,60.685001 98.707970,56.984711 
	C91.854408,50.231541 91.719536,40.612530 103.749565,36.530243 
	C104.974823,36.114460 105.929710,34.901939 107.010063,34.059147 
M97.994865,46.797157 
	C98.067963,51.246937 101.375824,57.216785 104.986618,57.568005 
	C108.129982,57.873756 111.887825,57.199059 114.556099,55.595993 
	C117.393387,53.891388 117.613647,50.408813 116.074257,47.096386 
	C113.716034,42.022003 109.451881,38.169735 105.177505,39.388699 
	C102.390678,40.183437 100.379555,43.698238 97.994865,46.797157 
z"/>
<path fill="#FEDA37" opacity="1.000000" stroke="none" 
	d="
M106.988617,33.810066 
	C105.929710,34.901939 104.974823,36.114460 103.749565,36.530243 
	C91.719536,40.612530 91.854408,50.231541 98.707970,56.984711 
	C102.463264,60.685001 107.308334,63.279316 111.659271,66.924805 
	C111.103035,67.652832 110.549538,67.828400 109.602386,68.002281 
	C106.595100,67.081154 103.861404,66.406693 101.390617,65.195778 
	C94.309845,61.725540 89.258698,56.411655 89.520439,48.109306 
	C89.636292,44.434589 91.644058,40.821854 92.775764,37.175636 
	C93.207291,35.785286 93.590599,34.379959 93.995880,32.981461 
	C95.097389,32.677238 96.198891,32.373013 97.648361,32.072556 
	C100.055038,32.382675 102.113754,32.689034 104.909241,33.008316 
	C106.073288,33.035004 106.500565,33.048771 106.927841,33.062538 
	C106.940948,33.228683 106.954056,33.394836 106.988617,33.810066 
z"/>
<path fill="#FDD438" opacity="1.000000" stroke="none" 
	d="
M109.996048,68.003967 
	C110.549538,67.828400 111.103035,67.652832 111.829918,67.236526 
	C123.762070,67.002701 126.693550,62.188736 123.838295,50.969997 
	C122.448318,45.508587 118.015831,43.878307 115.373955,40.202408 
	C114.560143,39.070065 113.790482,37.906002 112.991211,36.388451 
	C120.729561,38.277985 125.853668,43.593567 129.883652,50.675560 
	C129.735229,54.446907 129.604401,57.949986 129.066895,61.389515 
	C127.952644,68.519859 120.985878,72.848694 113.167976,70.792755 
	C111.723389,69.664009 110.859718,68.833984 109.996048,68.003967 
z"/>
<path fill="#F89C22" opacity="1.000000" stroke="none" 
	d="
M107.283340,33.034691 
	C106.500565,33.048771 106.073288,33.035004 105.325699,32.998566 
	C106.300659,32.232243 107.595940,31.488588 108.891220,30.744934 
	C109.119324,31.251074 109.347435,31.757215 109.575546,32.263355 
	C108.929970,32.511185 108.284401,32.759018 107.283340,33.034691 
z"/>
<path fill="#F99D24" opacity="1.000000" stroke="none" 
	d="
M146.281784,55.158417 
	C146.721481,55.208992 146.718277,55.618984 146.233490,55.937370 
	C145.541931,56.939854 145.335175,57.623951 145.128418,58.308052 
	C145.192169,58.601223 145.127457,58.862560 144.772522,59.220367 
	C142.437790,57.184963 141.870117,55.487362 146.281784,55.158417 
z"/>
<path fill="#F99D24" opacity="1.000000" stroke="none" 
	d="
M142.522491,61.539536 
	C142.475479,61.565865 142.569504,61.513210 142.522491,61.539536 
z"/>
<path fill="#FDAD29" opacity="1.000000" stroke="none" 
	d="
M64.651283,49.012222 
	C66.327461,63.406078 73.240013,74.252281 85.365746,82.304886 
	C94.153847,88.141006 103.782822,89.020317 113.473457,87.767540 
	C122.408997,86.612389 130.333908,82.262222 136.668488,75.058929 
	C137.005493,75.756104 137.006439,76.507164 137.013382,77.634071 
	C137.010681,79.072136 137.001984,80.134338 136.987701,81.594849 
	C133.550476,84.215805 130.326889,86.887917 126.653519,88.588470 
	C102.046448,99.980042 76.344582,89.228172 64.716843,66.406036 
	C62.100685,61.271217 61.685215,56.889599 62.983715,51.374374 
	C63.428974,50.323399 63.882763,49.692104 64.651283,49.012222 
z"/>
<path fill="#F68B24" opacity="1.000000" stroke="none" 
	d="
M140.653473,94.031548 
	C140.800430,94.208191 140.714294,94.368835 140.347504,94.388031 
	C140.212799,94.325356 140.566345,94.094307 140.653473,94.031548 
z"/>
<path fill="#F7A729" opacity="1.000000" stroke="none" 
	d="
M145.156982,66.158371 
	C145.358215,66.078651 145.676910,66.247238 146.106262,66.669601 
	C145.902756,66.751137 145.588608,66.578903 145.156982,66.158371 
z"/>
<path fill="#F7A729" opacity="1.000000" stroke="none" 
	d="
M144.131042,65.171997 
	C144.331970,65.101562 144.640518,65.265556 145.018890,65.693481 
	C144.805374,65.773758 144.522018,65.590088 144.131042,65.171997 
z"/>
<path fill="#F7A729" opacity="1.000000" stroke="none" 
	d="
M145.407547,58.087036 
	C145.335175,57.623951 145.541931,56.939854 146.082092,56.075592 
	C146.172531,56.552288 145.929596,57.209156 145.407547,58.087036 
z"/>
<path fill="#FC9C26" opacity="1.000000" stroke="none" 
	d="
M77.999695,100.003967 
	C79.311325,99.143753 81.659081,98.382118 81.751953,97.405960 
	C82.118599,93.552483 84.322044,93.240845 86.852493,94.554474 
	C93.779671,98.150581 101.151169,98.071365 108.629440,98.061989 
	C114.141724,98.055069 119.464569,98.033203 124.413277,94.947678 
	C125.935555,93.998528 128.226562,94.282272 130.586212,94.004059 
	C129.029449,96.768631 127.052063,99.530624 124.778725,102.753403 
	C123.990486,103.477287 123.498207,103.740395 122.615814,103.952042 
	C120.608711,103.634827 118.669556,102.656105 117.426445,103.217804 
	C108.657524,107.180023 100.015579,104.275017 91.620857,102.438934 
	C87.082802,101.446365 84.002853,101.873970 80.623795,105.006821 
	C79.501076,105.002258 78.752594,104.999443 77.957130,104.679214 
	C77.273537,103.907867 76.636925,103.453934 76.000153,103.000000 
	C76.000000,103.000000 76.000000,102.999695 75.999512,102.628922 
	C75.993301,101.516594 75.987579,100.775055 76.318146,100.022614 
	C77.102859,100.009132 77.551277,100.006546 77.999695,100.003967 
z"/>
<path fill="#FB7D11" opacity="1.000000" stroke="none" 
	d="
M123.005920,104.003502 
	C123.498207,103.740395 123.990486,103.477287 124.737495,103.098747 
	C129.391327,106.230431 125.482765,109.859573 125.092979,113.162628 
	C124.958237,114.304413 121.737244,115.348366 119.775398,115.921768 
	C118.274063,116.360565 116.535843,115.988876 114.451317,115.973557 
	C112.470207,115.145607 110.940773,114.321785 109.265526,112.897827 
	C110.420067,111.204552 111.720421,110.111412 113.399155,109.008018 
	C116.184074,108.317406 118.590607,107.637054 121.314331,106.922501 
	C122.081848,106.257996 122.532188,105.627678 122.990265,104.748947 
	C122.998009,104.500526 123.005920,104.003502 123.005920,104.003502 
z"/>
<path fill="#FD891F" opacity="1.000000" stroke="none" 
	d="
M113.020767,109.018265 
	C111.720421,110.111412 110.420067,111.204552 109.042801,112.637695 
	C106.832314,113.128799 104.698738,113.279900 102.291512,113.707260 
	C100.946213,113.992897 99.874573,114.002258 98.027748,114.008026 
	C96.505165,114.007690 95.757759,114.010956 95.010361,114.014221 
	C85.162025,113.090416 76.631310,109.193680 69.535515,102.309311 
	C71.854378,102.335953 73.927193,102.667824 76.000000,102.999695 
	C76.000000,102.999695 76.000000,103.000000 76.045914,103.318069 
	C76.729256,104.089638 77.366684,104.543137 78.004112,104.996628 
	C78.752594,104.999443 79.501076,105.002258 80.703262,105.371040 
	C81.481171,106.093269 81.746300,106.667694 82.138237,106.773834 
	C91.460251,109.298248 100.729706,112.528717 110.548714,109.048759 
	C111.283974,108.788170 112.192688,109.016975 113.020767,109.018265 
z"/>
<path fill="#F2761F" opacity="1.000000" stroke="none" 
	d="
M85.777344,122.393509 
	C86.120209,122.517647 86.532677,122.931389 86.966949,123.657761 
	C86.608154,123.541298 86.227547,123.112206 85.777344,122.393509 
z"/>
<path fill="#FED132" opacity="1.000000" stroke="none" 
	d="
M109.602386,68.002289 
	C110.859718,68.833984 111.723389,69.664009 112.793381,70.747421 
	C99.529884,74.162277 87.925865,67.411514 84.009483,54.695156 
	C81.825676,47.604424 82.629387,41.153622 85.996964,34.408024 
	C88.392555,33.675110 90.779266,33.319756 93.580933,32.972931 
	C93.590599,34.379959 93.207291,35.785286 92.775764,37.175636 
	C91.644058,40.821854 89.636292,44.434589 89.520439,48.109306 
	C89.258698,56.411655 94.309845,61.725540 101.390617,65.195778 
	C103.861404,66.406693 106.595100,67.081154 109.602386,68.002289 
z"/>
<path fill="#FDAD29" opacity="1.000000" stroke="none" 
	d="
M66.619827,46.958363 
	C66.494041,47.553253 66.058846,48.223999 65.293671,48.931595 
	C65.412605,48.323704 65.861511,47.678959 66.619827,46.958363 
z"/>
<path fill="#E8EDFD" opacity="1.000000" stroke="none" 
	d="
M82.030975,120.711121 
	C81.867310,120.761421 81.554008,120.585579 81.103630,120.171326 
	C81.271484,120.116936 81.576416,120.300949 82.030975,120.711121 
z"/>
<path fill="#FC8F21" opacity="1.000000" stroke="none" 
	d="
M75.999512,102.628922 
	C73.927193,102.667824 71.854378,102.335953 69.380646,102.006897 
	C65.328308,96.919838 61.676907,91.829979 58.004005,86.373718 
	C57.653961,84.262703 57.325409,82.518089 57.344116,80.424500 
	C59.790531,81.384644 61.889694,82.693756 63.988857,84.002861 
	C63.990974,84.446602 63.993092,84.890343 63.737740,85.894974 
	C63.242722,90.649666 64.682060,93.757179 69.282684,95.124031 
	C70.369797,95.836563 71.184906,96.418068 72.142616,97.286453 
	C73.183708,98.056664 74.082199,98.539986 75.094788,99.238792 
	C75.412636,99.719276 75.670288,99.912361 75.981850,100.033508 
	C75.987579,100.775055 75.993301,101.516594 75.999512,102.628922 
z"/>
<path fill="#F2761F" opacity="1.000000" stroke="none" 
	d="
M95.017685,114.352707 
	C95.757759,114.010956 96.505165,114.007690 97.626366,114.010696 
	C97.384949,114.871178 96.769730,115.725395 96.154510,116.579620 
	C95.778015,115.950142 95.401512,115.320663 95.017685,114.352707 
z"/>
<path fill="#FD9B26" opacity="1.000000" stroke="none" 
	d="
M64.289360,83.852913 
	C61.889694,82.693756 59.790531,81.384644 57.347832,80.037140 
	C56.814209,75.863609 56.624130,71.728462 56.712204,67.296234 
	C58.603760,68.292610 60.591778,69.320435 61.741909,70.942398 
	C63.426659,73.318321 64.863007,76.013062 65.704132,78.784691 
	C66.128380,80.182648 65.010452,82.048615 64.289360,83.852913 
z"/>
<path fill="#FDB02E" opacity="1.000000" stroke="none" 
	d="
M76.318146,100.022614 
	C75.670288,99.912361 75.412636,99.719276 75.044708,98.894028 
	C73.920349,97.889046 72.960182,97.444305 72.000008,96.999573 
	C71.184906,96.418068 70.369797,95.836563 69.281693,94.791840 
	C69.006096,93.885521 69.003510,93.442421 69.000916,92.999313 
	C69.710007,91.500031 70.419098,90.000748 71.128197,88.501465 
	C72.486275,89.235252 74.063255,89.733505 75.157852,90.750786 
	C77.598770,93.019302 80.150101,95.421173 78.146698,99.667809 
	C77.551277,100.006546 77.102859,100.009132 76.318146,100.022614 
z"/>
<path fill="#FA9B25" opacity="1.000000" stroke="none" 
	d="
M68.698318,92.839066 
	C69.003510,93.442421 69.006096,93.885521 69.009689,94.660812 
	C64.682060,93.757179 63.242722,90.649666 63.738228,86.227776 
	C65.462708,88.226067 66.929222,90.452438 68.698318,92.839066 
z"/>
<path fill="#FEF190" opacity="1.000000" stroke="none" 
	d="
M98.007904,46.395851 
	C100.379555,43.698238 102.390678,40.183437 105.177505,39.388699 
	C109.451881,38.169735 113.716034,42.022003 116.074257,47.096386 
	C117.613647,50.408813 117.393387,53.891388 114.556099,55.595993 
	C111.887825,57.199059 108.129982,57.873756 104.986618,57.568005 
	C101.375824,57.216785 98.067963,51.246937 98.007904,46.395851 
M107.699707,54.032909 
	C110.858330,54.253052 113.498512,53.758568 112.919441,49.643707 
	C112.447479,46.289982 110.361679,44.157276 107.022972,44.161381 
	C105.693420,44.163017 103.465187,45.592339 103.210487,46.723862 
	C102.515099,49.813206 102.577667,53.129139 107.699707,54.032909 
z"/>
<path fill="#FB9223" opacity="1.000000" stroke="none" 
	d="
M113.399155,109.008011 
	C112.192688,109.016975 111.283974,108.788170 110.548714,109.048759 
	C100.729706,112.528717 91.460251,109.298248 82.138237,106.773834 
	C81.746300,106.667694 81.481171,106.093269 81.077499,105.372787 
	C84.002853,101.873970 87.082802,101.446365 91.620857,102.438934 
	C100.015579,104.275017 108.657524,107.180023 117.426445,103.217804 
	C118.669556,102.656105 120.608711,103.634827 122.615814,103.952042 
	C123.005920,104.003502 122.998009,104.500526 122.677612,104.794724 
	C121.903870,105.711517 121.450508,106.334106 120.997147,106.956696 
	C118.590607,107.637054 116.184074,108.317406 113.399155,109.008011 
z"/>
<path fill="#FC8F21" opacity="1.000000" stroke="none" 
	d="
M77.957130,104.679222 
	C77.366684,104.543137 76.729256,104.089638 76.046066,103.318069 
	C76.636925,103.453934 77.273537,103.907867 77.957130,104.679222 
z"/>
<path fill="#F68B24" opacity="1.000000" stroke="none" 
	d="
M121.314331,106.922508 
	C121.450508,106.334106 121.903870,105.711517 122.669876,105.043144 
	C122.532188,105.627678 122.081848,106.257996 121.314331,106.922508 
z"/>
<path fill="#FCA628" opacity="1.000000" stroke="none" 
	d="
M72.142616,97.286453 
	C72.960182,97.444305 73.920349,97.889046 74.930603,98.678551 
	C74.082199,98.539986 73.183708,98.056664 72.142616,97.286453 
z"/>
<path fill="#FEF7C7" opacity="1.000000" stroke="none" 
	d="
M107.278137,54.014446 
	C102.577667,53.129139 102.515099,49.813206 103.210487,46.723862 
	C103.465187,45.592339 105.693420,44.163017 107.022972,44.161381 
	C110.361679,44.157276 112.447479,46.289982 112.919441,49.643707 
	C113.498512,53.758568 110.858330,54.253052 107.278137,54.014446 
z"/>
</svg>