<svg version="1.1" id="Layer_1" xmlns="http://www.w3.org/2000/svg" xmlns:xlink="http://www.w3.org/1999/xlink" x="0px" y="0px"
	 width="100%" viewBox="0 0 187 143" enable-background="new 0 0 187 143" xml:space="preserve">
<path fill="#F0F2FF" opacity="1.000000" stroke="none" 
	d="
M99.000000,144.000000 
	C66.381676,144.000000 33.763355,144.000000 1.072516,144.000000 
	C1.072516,96.452316 1.072516,48.904488 1.072516,1.000000 
	C19.019325,1.000000 37.041004,1.000000 55.531342,1.429418 
	C57.022221,6.368020 58.112556,10.863130 59.048027,15.390241 
	C60.037605,20.179209 60.984692,24.983156 61.698215,29.817766 
	C61.841770,30.790432 61.123421,32.237751 60.332836,32.929478 
	C58.615879,34.431744 56.386761,35.368633 54.746857,36.934460 
	C52.072880,39.487637 52.168804,42.220520 55.500534,45.467075 
	C56.939667,43.163017 57.895058,41.077950 59.361240,39.454090 
	C60.635002,38.043354 62.486595,37.154343 64.025002,36.384880 
	C61.348698,42.838722 58.730221,48.942448 56.079700,55.392952 
	C55.342037,57.148151 54.636414,58.556561 53.596676,59.972652 
	C52.476341,60.296566 51.690117,60.612793 50.548691,60.942635 
	C49.112766,61.271584 48.032047,61.586922 46.612877,61.926338 
	C45.481804,62.278908 44.689186,62.607399 43.612041,63.078766 
	C42.178047,64.127777 41.028584,65.033913 39.608955,66.084167 
	C38.529079,67.136131 37.719368,68.043983 36.696426,69.063309 
	C36.220455,69.376297 36.033836,69.633141 35.632179,70.096619 
	C34.195278,71.822426 33.049541,73.396912 31.663443,75.134430 
	C31.250711,75.845940 31.078346,76.394409 30.631615,77.172760 
	C29.939604,79.270599 29.521959,81.138565 29.067902,83.465485 
	C29.051928,87.615395 29.072367,91.306351 29.054945,95.378738 
	C31.486958,104.344177 36.433674,110.766090 45.200813,114.334900 
	C51.281860,115.429848 57.141525,116.236229 62.987431,117.430183 
	C62.721031,118.403267 62.560902,119.432419 62.201775,119.507309 
	C57.329998,120.523239 55.821262,122.070656 61.024227,125.194359 
	C61.435341,125.441177 61.112938,126.712440 61.421051,127.372391 
	C61.939342,128.482513 62.717056,130.406769 63.339172,130.388687 
	C69.647430,130.205444 75.947212,129.711365 82.247322,129.274734 
	C85.095627,129.077332 89.575012,127.579918 90.494026,128.798798 
	C93.957413,133.392319 96.261696,138.859787 99.000000,144.000000 
z"/>
<path fill="#F6F6FF" opacity="1.000000" stroke="none" 
	d="
M134.000000,1.000000 
	C151.959579,1.000000 169.919174,1.000000 187.939377,1.000000 
	C187.939377,48.666622 187.939377,96.333298 187.941406,143.999985 
	C184.617599,144.000000 181.291763,144.000000 177.482956,143.552399 
	C175.738388,136.510330 174.868729,129.805191 173.050735,123.367844 
	C172.134079,120.122070 170.158875,116.157677 167.473816,114.684708 
	C164.064758,112.814552 161.418808,111.064079 160.055313,107.414299 
	C159.357590,105.546638 158.341812,103.797798 157.404175,101.754593 
	C157.338562,101.513939 157.237442,101.026527 157.273895,100.884644 
	C157.310364,100.742760 157.137039,100.506538 157.438660,100.398872 
	C158.150482,100.190193 158.560715,100.089180 159.344299,99.984024 
	C161.208115,98.385849 163.082062,97.003044 164.102676,95.150185 
	C165.798859,92.070923 165.833221,89.240219 161.063095,88.742203 
	C160.959473,88.322731 160.916855,88.155228 160.935013,87.742401 
	C161.034866,87.333221 161.073929,87.169357 161.455017,86.957863 
	C162.394135,86.076530 163.563431,85.183105 163.483795,84.420052 
	C163.217560,81.869560 162.739258,79.286392 161.919189,76.858620 
	C159.267059,69.007042 154.707062,62.687363 147.006332,58.970036 
	C144.796005,57.903057 142.746063,56.503883 140.870331,55.402496 
	C142.549057,52.948784 143.636917,51.358707 144.724792,49.768639 
	C143.801468,49.189434 142.787476,48.009796 141.970245,48.133194 
	C138.078415,48.720844 137.648148,45.245148 135.795410,43.381824 
	C132.548462,40.116322 134.283630,38.250523 137.363647,36.518703 
	C137.693527,36.333218 137.921097,35.631184 137.890274,35.190144 
	C137.556641,30.415049 138.379593,25.086290 136.507065,20.998909 
	C133.459137,14.345881 134.272598,7.715865 134.000000,1.000000 
z"/>
<path fill="#F2F4FF" opacity="1.000000" stroke="none" 
	d="
M157.469788,101.995247 
	C158.341812,103.797798 159.357590,105.546638 160.055313,107.414299 
	C161.418808,111.064079 164.064758,112.814552 167.473816,114.684708 
	C170.158875,116.157677 172.134079,120.122070 173.050735,123.367844 
	C174.868729,129.805191 175.738388,136.510330 177.000000,143.552399 
	C151.312439,144.000000 125.624878,144.000000 99.468658,144.000000 
	C96.261696,138.859787 93.957413,133.392319 90.494026,128.798798 
	C89.575012,127.579918 85.095627,129.077332 82.247322,129.274734 
	C75.947212,129.711365 69.647430,130.205444 63.339172,130.388687 
	C62.717056,130.406769 61.939342,128.482513 61.421051,127.372391 
	C61.112938,126.712440 61.435341,125.441177 61.024227,125.194359 
	C55.821262,122.070656 57.329998,120.523239 62.201775,119.507309 
	C62.560902,119.432419 62.721031,118.403267 63.453350,117.382050 
	C69.604668,116.847588 75.276306,116.748833 81.406342,116.742004 
	C85.918098,116.777344 89.971458,116.720749 94.475060,116.760300 
	C98.596512,116.799240 102.267715,116.742020 106.378586,116.770752 
	C108.900307,116.790741 110.982353,116.724777 113.519058,116.750977 
	C120.960220,116.755783 127.946716,116.668442 135.301025,116.643646 
	C139.460587,115.177124 143.252335,113.648071 147.361496,112.060547 
	C148.483734,111.345085 149.288544,110.688080 150.301590,109.943878 
	C150.777191,109.689590 150.958939,109.455917 151.384338,109.075211 
	C152.499451,108.012344 153.285309,107.029922 154.051147,106.021240 
	C154.031128,105.994980 154.029663,106.060989 154.264557,105.960617 
	C154.685730,105.582664 154.871994,105.305084 155.042938,105.036369 
	C155.027618,105.045227 155.062042,105.072525 155.396179,104.982391 
	C156.310135,103.926590 156.889969,102.960915 157.469788,101.995247 
z"/>
<path fill="#F2F5FF" opacity="1.000000" stroke="none" 
	d="
M133.531342,1.000000 
	C134.272598,7.715865 133.459137,14.345881 136.507065,20.998909 
	C138.379593,25.086290 137.556641,30.415049 137.890274,35.190144 
	C137.921097,35.631184 137.693527,36.333218 137.363647,36.518703 
	C134.283630,38.250523 132.548462,40.116322 135.795410,43.381824 
	C137.648148,45.245148 138.078415,48.720844 141.970245,48.133194 
	C142.787476,48.009796 143.801468,49.189434 144.724792,49.768639 
	C143.636917,51.358707 142.549057,52.948784 140.870331,55.402496 
	C142.746063,56.503883 144.796005,57.903057 147.006332,58.970036 
	C154.707062,62.687363 159.267059,69.007042 161.919189,76.858620 
	C162.739258,79.286392 163.217560,81.869560 163.483795,84.420052 
	C163.563431,85.183105 162.394135,86.076530 161.408325,86.621033 
	C160.706604,85.536003 160.393555,84.740173 160.061676,83.576309 
	C160.007599,82.471817 159.972351,81.735359 159.957367,80.609955 
	C158.844910,73.324661 155.257126,68.200272 148.840332,64.699265 
	C147.457443,63.923435 146.230057,63.453838 144.845749,62.667351 
	C142.793259,61.564007 140.897705,60.777550 138.785278,59.727570 
	C137.037506,58.644817 135.506607,57.825596 133.980103,56.636848 
	C133.645309,54.848434 133.306107,53.429546 132.949707,51.690773 
	C132.621460,50.580540 132.310425,49.790199 131.994904,48.627914 
	C128.002457,39.720806 123.416069,31.716846 113.724106,27.791317 
	C111.295296,26.725107 109.147797,25.862846 106.636620,24.957687 
	C104.853043,24.600586 103.433151,24.286383 101.974030,23.646784 
	C101.367485,22.676241 100.800171,22.031092 100.232864,21.385944 
	C99.821609,21.921673 99.410347,22.457403 98.582214,22.993963 
	C96.775360,23.003614 95.385399,23.012436 93.572632,23.015736 
	C90.099754,23.342236 87.049690,23.674257 83.933441,23.652225 
	C80.063431,21.433630 73.306053,24.958853 70.708191,30.162270 
	C68.301361,32.222725 66.192093,34.128746 64.082825,36.034767 
	C62.486595,37.154343 60.635002,38.043354 59.361240,39.454090 
	C57.895058,41.077950 56.939667,43.163017 55.500534,45.467075 
	C52.168804,42.220520 52.072880,39.487637 54.746857,36.934460 
	C56.386761,35.368633 58.615879,34.431744 60.332836,32.929478 
	C61.123421,32.237751 61.841770,30.790432 61.698215,29.817766 
	C60.984692,24.983156 60.037605,20.179209 59.048027,15.390241 
	C58.112556,10.863130 57.022221,6.368020 56.000000,1.429418 
	C81.687561,1.000000 107.375122,1.000000 133.531342,1.000000 
z"/>
<path fill="#C4E6FB" opacity="1.000000" stroke="none" 
	d="
M139.002136,59.991096 
	C140.897705,60.777550 142.793259,61.564007 144.848206,63.002495 
	C145.010071,64.101021 145.012543,64.547501 144.734589,65.254028 
	C144.968475,68.343140 145.623917,71.156456 145.942337,74.007416 
	C146.123291,75.627609 146.351776,77.837585 145.477798,78.828712 
	C144.404053,80.046417 142.163986,80.861778 140.499283,80.753723 
	C138.879532,80.648582 137.136993,79.397827 135.818466,78.231644 
	C130.928726,73.906891 126.067276,70.691338 118.849083,72.838661 
	C111.500206,75.024864 104.123573,73.328888 96.991570,70.871223 
	C96.053635,70.548019 95.101921,70.189178 94.128082,70.057182 
	C81.848427,68.392754 75.039078,60.228203 70.541328,49.713268 
	C69.184708,46.541721 69.176857,42.793236 68.551163,39.309036 
	C67.949753,39.068325 67.348343,38.827614 66.746925,38.586903 
	C64.831398,41.390202 62.915863,44.193497 60.959404,47.360558 
	C60.274002,49.810909 59.629532,51.897503 58.700321,54.109413 
	C57.647633,54.505207 56.879688,54.775688 56.111740,55.046169 
	C58.730221,48.942448 61.348698,42.838722 64.025002,36.384884 
	C66.192093,34.128746 68.301361,32.222725 71.065674,30.127953 
	C74.813683,28.622784 77.906662,27.306364 81.195999,26.266315 
	C85.235786,30.400831 80.496147,32.526207 79.250259,34.866444 
	C75.499535,41.911705 77.934998,54.696579 84.822678,58.828106 
	C91.588249,62.886375 98.309097,66.725266 106.720772,67.314293 
	C118.394966,68.131767 129.333771,67.286942 139.002136,59.991096 
z"/>
<path fill="#88BCF1" opacity="1.000000" stroke="none" 
	d="
M94.024811,116.664146 
	C89.971458,116.720749 85.918098,116.777344 81.289627,116.388618 
	C80.161438,115.642403 79.623108,115.111122 79.053108,115.074646 
	C67.704666,114.348396 56.352573,113.679321 44.730965,112.803085 
	C39.605942,107.829079 34.024170,103.649178 31.935305,96.640114 
	C31.708128,95.877838 30.074219,95.534805 29.092808,94.997307 
	C29.072367,91.306351 29.051928,87.615395 29.429768,83.469223 
	C31.600725,84.703522 33.388996,86.377060 35.140945,88.087799 
	C36.451168,89.367203 37.714542,90.694588 38.999786,92.333191 
	C39.001751,93.109200 39.002705,93.552643 39.003105,94.394043 
	C39.703770,98.475853 39.459679,102.850075 44.998711,103.250763 
	C44.999420,103.500305 45.001373,103.999390 45.006424,104.370163 
	C46.425457,106.047531 47.839443,107.354118 49.253426,108.660706 
	C50.167107,107.235657 51.782047,105.849899 51.864487,104.378288 
	C52.123669,99.751450 54.132084,99.280518 57.631184,101.317947 
	C67.782654,107.228889 78.944412,110.001801 90.350609,112.150894 
	C92.020447,112.465523 93.457497,114.015678 94.781540,115.131195 
	C94.382156,115.733551 94.203484,116.198853 94.024811,116.664146 
z"/>
<path fill="#B2DAF9" opacity="1.000000" stroke="none" 
	d="
M56.079700,55.392952 
	C56.879688,54.775688 57.647633,54.505207 59.003525,54.267845 
	C59.837040,54.521828 60.158588,54.698273 60.317356,54.969875 
	C71.813324,74.635704 90.350494,81.436646 111.637245,81.735069 
	C120.141899,81.854301 128.643692,80.166153 137.333389,82.999542 
	C138.109879,83.001434 138.553574,83.002548 139.030060,83.293762 
	C139.708572,83.723366 140.354294,83.862869 141.400024,84.002136 
	C142.866669,84.002052 143.933334,84.002205 145.197556,84.253807 
	C146.596344,84.003304 147.797562,83.501350 149.291870,82.765793 
	C150.029907,80.520042 150.964569,78.470833 150.815765,76.503578 
	C150.524307,72.650513 149.628769,68.843147 148.987579,65.012398 
	C148.991928,65.007935 148.995834,65.005493 148.995834,65.005493 
	C155.257126,68.200272 158.844910,73.324661 159.703018,80.479370 
	C158.949478,80.156197 158.470566,79.574646 157.861328,78.691338 
	C153.873947,73.248268 153.627548,78.746910 153.239288,80.283928 
	C152.071548,84.906654 149.125107,86.883148 144.754913,86.931999 
	C142.173203,86.960869 139.584183,86.334549 136.665375,86.002258 
	C135.888199,86.001205 135.444107,86.000755 134.752258,85.720184 
	C131.138962,85.277122 127.752266,84.798141 124.412544,85.021484 
	C118.663170,85.406013 112.836380,87.224991 107.236359,86.625916 
	C99.400024,85.787590 91.357353,84.215042 84.117760,81.225563 
	C77.153099,78.349640 70.963715,73.463379 64.693153,69.088539 
	C60.853100,66.409409 57.501659,63.029930 53.930786,59.964970 
	C54.636414,58.556561 55.342037,57.148151 56.079700,55.392952 
z"/>
<path fill="#94C5F4" opacity="1.000000" stroke="none" 
	d="
M39.003662,93.996078 
	C39.002705,93.552643 39.001751,93.109200 39.000374,91.999741 
	C38.999783,90.889153 38.999611,90.444572 39.275288,89.741440 
	C39.742599,88.026436 39.928017,86.569153 40.126598,85.113670 
	C40.894695,79.483994 37.610252,75.430664 31.903809,74.971397 
	C33.049541,73.396912 34.195278,71.822426 35.920914,70.300552 
	C38.178017,73.084251 39.346363,76.385994 41.637280,78.428856 
	C46.561321,82.819740 51.901043,86.805763 57.394463,90.472298 
	C60.369553,92.458000 63.955227,93.595734 67.362289,94.853752 
	C74.928711,97.647568 82.371597,101.222351 90.202095,102.749557 
	C101.850418,105.021355 113.817886,106.382393 125.684608,103.928345 
	C133.265823,102.360542 140.890625,100.625107 148.133087,97.973831 
	C151.269897,96.825531 153.851242,95.801353 157.000183,97.436256 
	C157.047958,98.750000 157.092499,99.628265 157.137039,100.506538 
	C157.137039,100.506538 157.310364,100.742760 156.978455,100.788177 
	C156.103012,100.558823 155.559448,100.284050 154.661011,100.009361 
	C152.870956,101.006401 151.435776,102.003357 149.750610,103.000702 
	C149.333923,103.001244 149.167252,103.001381 148.742065,102.723732 
	C146.876785,102.509430 145.240692,102.399139 143.668076,102.664680 
	C133.590546,104.366211 123.781418,107.837944 113.326675,107.020805 
	C107.549553,106.569260 101.726120,106.592781 95.975410,105.943153 
	C80.061455,104.145432 65.232155,99.295265 52.094601,89.806847 
	C50.757153,88.840897 48.769001,88.775902 47.082806,88.292824 
	C46.922153,89.955894 46.659790,91.616753 46.623451,93.282539 
	C46.560852,96.152199 48.846317,99.768791 43.723557,100.794739 
	C41.966095,98.391266 40.484879,96.193672 39.003662,93.996078 
z"/>
<path fill="#9BCAF5" opacity="1.000000" stroke="none" 
	d="
M160.874222,87.987717 
	C160.916855,88.155228 160.959473,88.322731 160.999298,88.995300 
	C160.954346,89.669044 160.912170,89.837715 160.503860,90.011261 
	C151.474487,93.970390 142.839005,97.546478 133.345703,99.683411 
	C116.215599,103.539368 99.325142,102.504898 82.839470,98.424606 
	C71.101456,95.519386 59.794315,90.177071 50.504864,81.718857 
	C47.835987,79.288803 45.009312,77.030846 42.364208,74.576279 
	C40.452492,72.802261 38.721340,70.833664 36.909660,68.951843 
	C37.719368,68.043983 38.529079,67.136131 39.971245,66.138756 
	C42.980934,69.111282 44.986324,72.575966 47.795471,75.170349 
	C66.695930,92.625816 89.700760,99.304764 114.779823,98.732262 
	C125.215759,98.494034 135.608582,95.752785 145.977890,93.907417 
	C147.445038,93.646317 148.666504,92.004555 150.334534,91.001343 
	C151.111176,91.000099 151.554977,90.999352 152.327850,90.968292 
	C153.771286,89.958557 154.885651,88.979126 156.143066,87.712021 
	C157.190948,86.949867 158.095779,86.475395 159.040009,86.310371 
	C159.677673,87.075783 160.275955,87.531746 160.874222,87.987717 
z"/>
<path fill="#A3D0F7" opacity="1.000000" stroke="none" 
	d="
M159.000610,86.000916 
	C158.095779,86.475395 157.190948,86.949867 155.779373,87.716873 
	C154.181351,89.005806 153.090057,90.002205 151.998779,90.998604 
	C151.554977,90.999352 151.111176,91.000099 149.922119,91.054878 
	C145.088684,91.583458 140.982971,91.942215 136.916245,92.558311 
	C129.915192,93.618935 122.974861,95.465408 115.944572,95.874725 
	C95.854156,97.044426 77.355865,91.831032 60.356426,80.968765 
	C53.176804,76.381134 48.378819,69.860764 43.896572,62.935890 
	C44.689186,62.607399 45.481804,62.278908 46.849670,62.213593 
	C48.645554,63.535679 49.961319,64.504128 51.069778,65.669716 
	C55.121563,69.930359 58.492680,75.156570 63.234608,78.379349 
	C74.685143,86.161575 87.367447,90.895317 101.418182,92.489655 
	C114.343071,93.956238 126.622818,91.726776 139.450867,89.000221 
	C144.534058,89.146957 149.332886,89.572495 152.917557,85.870674 
	C154.881729,83.842308 156.317566,81.302353 157.991653,78.993088 
	C158.470566,79.574646 158.949478,80.156197 159.682739,80.868332 
	C159.972351,81.735359 160.007599,82.471817 159.806488,83.750809 
	C159.380295,84.862541 159.190445,85.431725 159.000610,86.000916 
z"/>
<path fill="#97C8F4" opacity="1.000000" stroke="none" 
	d="
M36.696426,69.063309 
	C38.721340,70.833664 40.452492,72.802261 42.364208,74.576279 
	C45.009312,77.030846 47.835987,79.288803 50.504864,81.718857 
	C59.794315,90.177071 71.101456,95.519386 82.839470,98.424606 
	C99.325142,102.504898 116.215599,103.539368 133.345703,99.683411 
	C142.839005,97.546478 151.474487,93.970390 160.543945,90.381729 
	C160.591461,92.171097 160.232742,93.594856 159.574615,95.057617 
	C158.515793,95.731331 157.756363,96.366058 156.996948,97.000786 
	C153.851242,95.801353 151.269897,96.825531 148.133087,97.973831 
	C140.890625,100.625107 133.265823,102.360542 125.684608,103.928345 
	C113.817886,106.382393 101.850418,105.021355 90.202095,102.749557 
	C82.371597,101.222351 74.928711,97.647568 67.362289,94.853752 
	C63.955227,93.595734 60.369553,92.458000 57.394463,90.472298 
	C51.901043,86.805763 46.561321,82.819740 41.637280,78.428856 
	C39.346363,76.385994 38.178017,73.084251 36.212074,70.149231 
	C36.033836,69.633141 36.220455,69.376297 36.696426,69.063309 
z"/>
<path fill="#9FCEF6" opacity="1.000000" stroke="none" 
	d="
M43.612041,63.078766 
	C48.378819,69.860764 53.176804,76.381134 60.356426,80.968765 
	C77.355865,91.831032 95.854156,97.044426 115.944572,95.874725 
	C122.974861,95.465408 129.915192,93.618935 136.916245,92.558311 
	C140.982971,91.942215 145.088684,91.583458 149.589264,91.055367 
	C148.666504,92.004555 147.445038,93.646317 145.977890,93.907417 
	C135.608582,95.752785 125.215759,98.494034 114.779823,98.732262 
	C89.700760,99.304764 66.695930,92.625816 47.795471,75.170349 
	C44.986324,72.575966 42.980934,69.111282 40.241409,65.994644 
	C41.028584,65.033913 42.178047,64.127777 43.612041,63.078766 
z"/>
<path fill="#ABD6F8" opacity="1.000000" stroke="none" 
	d="
M53.596672,59.972652 
	C57.501659,63.029930 60.853100,66.409409 64.693153,69.088539 
	C70.963715,73.463379 77.153099,78.349640 84.117760,81.225563 
	C91.357353,84.215042 99.400024,85.787590 107.236359,86.625916 
	C112.836380,87.224991 118.663170,85.406013 124.412544,85.021484 
	C127.752266,84.798141 131.138962,85.277122 134.502075,86.001472 
	C123.005127,89.561890 111.535995,91.593658 99.548508,89.011154 
	C87.674088,86.453003 75.800797,83.949562 66.216316,75.984894 
	C60.730190,71.425941 55.983498,65.977173 50.903896,60.929020 
	C51.690117,60.612793 52.476341,60.296566 53.596672,59.972652 
z"/>
<path fill="#A7D3F8" opacity="1.000000" stroke="none" 
	d="
M50.548691,60.942635 
	C55.983498,65.977173 60.730190,71.425941 66.216316,75.984894 
	C75.800797,83.949562 87.674088,86.453003 99.548508,89.011154 
	C111.535995,91.593658 123.005127,89.561890 134.749817,86.281586 
	C135.444107,86.000755 135.888199,86.001205 136.704010,86.313904 
	C137.717133,87.417435 138.358566,88.208717 139.000000,89.000000 
	C126.622818,91.726776 114.343071,93.956238 101.418182,92.489655 
	C87.367447,90.895317 74.685143,86.161575 63.234608,78.379349 
	C58.492680,75.156570 55.121563,69.930359 51.069778,65.669716 
	C49.961319,64.504128 48.645554,63.535679 47.188126,62.189514 
	C48.032047,61.586922 49.112766,61.271584 50.548691,60.942635 
z"/>
<path fill="#88B6E6" opacity="1.000000" stroke="none" 
	d="
M45.001221,112.998665 
	C56.352573,113.679321 67.704666,114.348396 79.053108,115.074646 
	C79.623108,115.111122 80.161438,115.642403 80.831230,116.296692 
	C75.276306,116.748833 69.604668,116.847588 63.467106,116.994476 
	C57.141525,116.236229 51.281860,115.429848 45.209061,114.072906 
	C44.997684,113.347786 44.999454,113.173225 45.001221,112.998665 
z"/>
<path fill="#94BEE7" opacity="1.000000" stroke="none" 
	d="
M44.730965,112.803085 
	C44.999454,113.173225 44.997684,113.347786 44.987675,113.784340 
	C36.433674,110.766090 31.486958,104.344177 29.054947,95.378738 
	C30.074219,95.534805 31.708128,95.877838 31.935305,96.640114 
	C34.024170,103.649178 39.605942,107.829079 44.730965,112.803085 
z"/>
<path fill="#8CBFF2" opacity="1.000000" stroke="none" 
	d="
M38.999443,90.000000 
	C38.999611,90.444572 38.999783,90.889153 38.999367,91.667168 
	C37.714542,90.694588 36.451168,89.367203 35.140945,88.087799 
	C33.388996,86.377060 31.600725,84.703522 29.466183,83.010269 
	C29.521959,81.138565 29.939604,79.270599 30.956612,77.319725 
	C34.993210,78.750069 36.830784,81.254936 37.119839,85.124405 
	C37.244045,86.787125 38.343220,88.377022 38.999443,90.000000 
z"/>
<path fill="#90C3F3" opacity="1.000000" stroke="none" 
	d="
M39.275291,89.741440 
	C38.343220,88.377022 37.244045,86.787125 37.119839,85.124405 
	C36.830784,81.254936 34.993210,78.750069 31.230980,77.089851 
	C31.078346,76.394409 31.250711,75.845940 31.663443,75.134430 
	C37.610252,75.430664 40.894695,79.483994 40.126598,85.113670 
	C39.928017,86.569153 39.742599,88.026436 39.275291,89.741440 
z"/>
<path fill="#F2F5FF" opacity="1.000000" stroke="none" 
	d="
M159.874023,95.018623 
	C160.232742,93.594856 160.591461,92.171097 160.910095,90.376862 
	C160.912170,89.837715 160.954346,89.669044 161.060303,89.247284 
	C165.833221,89.240219 165.798859,92.070923 164.102676,95.150185 
	C163.082062,97.003044 161.208115,98.385849 159.362335,99.616714 
	C159.296005,97.841896 159.585022,96.430260 159.874023,95.018623 
z"/>
<path fill="#94BEE7" opacity="1.000000" stroke="none" 
	d="
M159.574615,95.057617 
	C159.585022,96.430260 159.296005,97.841896 158.988968,99.620850 
	C158.560715,100.089180 158.150482,100.190193 157.438660,100.398872 
	C157.092499,99.628265 157.047958,98.750000 157.000183,97.436256 
	C157.756363,96.366058 158.515793,95.731331 159.574615,95.057617 
z"/>
<path fill="#94BEE7" opacity="1.000000" stroke="none" 
	d="
M155.015900,100.009277 
	C155.559448,100.284050 156.103012,100.558823 156.942001,100.930069 
	C157.237442,101.026527 157.338562,101.513939 157.404175,101.754593 
	C156.889969,102.960915 156.310135,103.926590 155.373474,104.597740 
	C155.012497,103.535423 155.008377,102.767616 155.005432,101.667992 
	C155.009689,100.893867 155.012787,100.451576 155.015900,100.009277 
z"/>
<path fill="#97C8F4" opacity="1.000000" stroke="none" 
	d="
M159.040009,86.310364 
	C159.190445,85.431725 159.380295,84.862541 159.825317,84.118851 
	C160.393555,84.740173 160.706604,85.536003 161.066315,86.668663 
	C161.073929,87.169357 161.034866,87.333221 160.935013,87.742401 
	C160.275955,87.531746 159.677673,87.075783 159.040009,86.310364 
z"/>
<path fill="#8CBFF2" opacity="1.000000" stroke="none" 
	d="
M155.004272,101.999817 
	C155.008377,102.767616 155.012497,103.535423 155.039337,104.687874 
	C155.062042,105.072525 155.027618,105.045227 154.808624,105.137833 
	C154.402985,105.507278 154.216324,105.784134 154.029663,106.060989 
	C154.029663,106.060989 154.031128,105.994980 153.696686,106.039154 
	C152.593185,107.107437 151.824127,108.131546 151.055084,109.155655 
	C150.958939,109.455917 150.777191,109.689590 149.932404,109.937057 
	C148.584686,110.717964 147.814377,111.418488 147.044067,112.119019 
	C143.252335,113.648071 139.460587,115.177124 135.179550,116.299301 
	C127.712440,115.719353 120.734825,115.534149 113.756004,115.427933 
	C113.531761,115.424530 113.295212,116.230278 113.064400,116.658821 
	C110.982353,116.724777 108.900307,116.790741 106.271637,116.416916 
	C102.150764,115.649475 98.576508,115.321808 95.002258,114.994148 
	C93.457497,114.015678 92.020447,112.465523 90.350609,112.150894 
	C78.944412,110.001801 67.782654,107.228889 57.631184,101.317947 
	C54.132084,99.280518 52.123669,99.751450 51.864487,104.378288 
	C51.782047,105.849899 50.167107,107.235657 49.253426,108.660706 
	C47.839443,107.354118 46.425457,106.047531 45.375267,104.410812 
	C49.433472,105.650421 48.946125,103.028198 49.008411,100.863235 
	C49.185883,94.694962 50.057217,94.119514 55.708618,96.403893 
	C56.629852,96.776268 57.472702,97.348160 58.401085,97.696388 
	C66.428085,100.707222 74.275734,104.489296 82.553436,106.458450 
	C91.313385,108.542328 100.468506,109.066719 109.482063,109.958626 
	C122.566269,111.253357 134.976974,107.052582 147.616730,104.795395 
	C148.167252,104.697083 148.543289,103.621750 149.000595,103.001526 
	C149.167252,103.001381 149.333923,103.001244 150.119720,102.995834 
	C152.160645,102.660324 153.582458,102.330063 155.004272,101.999817 
z"/>
<path fill="#88B6E6" opacity="1.000000" stroke="none" 
	d="
M113.519058,116.750977 
	C113.295212,116.230278 113.531761,115.424530 113.756004,115.427933 
	C120.734825,115.534149 127.712440,115.719353 134.811737,116.236763 
	C127.946716,116.668442 120.960220,116.755783 113.519058,116.750977 
z"/>
<path fill="#88B6E6" opacity="1.000000" stroke="none" 
	d="
M94.781540,115.131195 
	C98.576508,115.321808 102.150764,115.649475 105.831970,116.330971 
	C102.267715,116.742020 98.596512,116.799240 94.475067,116.760300 
	C94.203484,116.198853 94.382156,115.733551 94.781540,115.131195 
z"/>
<path fill="#94BEE7" opacity="1.000000" stroke="none" 
	d="
M151.384338,109.075211 
	C151.824127,108.131546 152.593185,107.107437 153.716705,106.065414 
	C153.285309,107.029922 152.499451,108.012344 151.384338,109.075211 
z"/>
<path fill="#94BEE7" opacity="1.000000" stroke="none" 
	d="
M147.361496,112.060547 
	C147.814377,111.418488 148.584686,110.717964 149.724182,110.024261 
	C149.288544,110.688080 148.483734,111.345085 147.361496,112.060547 
z"/>
<path fill="#94BEE7" opacity="1.000000" stroke="none" 
	d="
M154.264557,105.960617 
	C154.216324,105.784134 154.402985,105.507278 154.823944,105.128967 
	C154.871994,105.305084 154.685730,105.582664 154.264557,105.960617 
z"/>
<path fill="#CBEAFD" opacity="1.000000" stroke="none" 
	d="
M138.785278,59.727570 
	C129.333771,67.286942 118.394966,68.131767 106.720772,67.314293 
	C98.309097,66.725266 91.588249,62.886375 84.822678,58.828106 
	C77.934998,54.696579 75.499535,41.911705 79.250259,34.866444 
	C80.496147,32.526207 85.235786,30.400831 81.382851,26.017790 
	C82.248756,24.997356 83.124191,24.501818 83.999619,24.006279 
	C87.049690,23.674257 90.099754,23.342236 93.569061,23.378349 
	C91.897972,26.425278 89.997086,29.282167 87.679443,31.747223 
	C82.194748,37.580772 81.418442,44.460079 85.772758,51.206211 
	C95.450058,66.199203 112.813293,69.657288 127.127815,59.625050 
	C129.068832,58.264713 131.676636,57.855816 133.975693,57.006371 
	C135.506607,57.825596 137.037506,58.644817 138.785278,59.727570 
z"/>
<path fill="#E4F6FE" opacity="1.000000" stroke="none" 
	d="
M114.005432,27.995268 
	C123.416069,31.716846 128.002457,39.720806 131.696777,48.481789 
	C130.256500,47.826565 129.109848,46.945526 127.731567,45.886497 
	C126.741348,47.191422 126.060135,48.311512 125.167656,49.225273 
	C121.966278,52.502998 119.239548,56.846123 115.340218,58.722050 
	C105.547333,63.433296 93.165070,54.744968 91.554062,45.663120 
	C91.137901,43.317017 92.169853,40.227619 93.546379,38.148071 
	C96.711853,33.365917 101.483521,31.541481 107.334335,31.884394 
	C110.009041,32.041153 113.716446,32.560261 114.005432,27.995268 
M115.948738,53.540596 
	C117.496078,51.594769 119.178604,49.739571 120.558441,47.681446 
	C122.529190,44.741951 122.613350,42.019337 119.804054,39.210541 
	C114.300468,33.707916 105.449188,33.186630 98.406128,38.001682 
	C95.313263,40.116146 94.397278,42.806778 95.239876,46.164673 
	C97.574394,55.468090 107.413429,59.271328 115.948738,53.540596 
z"/>
<path fill="#D9F3FE" opacity="1.000000" stroke="none" 
	d="
M113.724106,27.791317 
	C113.716446,32.560261 110.009041,32.041153 107.334335,31.884394 
	C101.483521,31.541481 96.711853,33.365917 93.546379,38.148071 
	C92.169853,40.227619 91.137901,43.317017 91.554062,45.663120 
	C93.165070,54.744968 105.547333,63.433296 115.340218,58.722050 
	C119.239548,56.846123 121.966278,52.502998 125.167656,49.225273 
	C126.060135,48.311512 126.741348,47.191422 127.731567,45.886497 
	C129.109848,46.945526 130.256500,47.826565 131.701263,48.853729 
	C132.310425,49.790199 132.621460,50.580540 132.553131,51.687725 
	C129.836716,53.233269 127.372864,54.272797 125.191986,55.734512 
	C121.827324,57.989647 118.982918,61.371048 115.339561,62.791950 
	C105.966690,66.447365 92.381088,56.835155 89.309685,51.226372 
	C83.366310,40.372974 90.014069,30.389626 99.647339,29.679163 
	C102.199471,29.490940 104.554680,26.632805 107.000305,25.000589 
	C109.147797,25.862846 111.295296,26.725107 113.724106,27.791317 
z"/>
<path fill="#D1EFFD" opacity="1.000000" stroke="none" 
	d="
M106.636620,24.957689 
	C104.554680,26.632805 102.199471,29.490940 99.647339,29.679163 
	C90.014069,30.389626 83.366310,40.372974 89.309685,51.226372 
	C92.381088,56.835155 105.966690,66.447365 115.339561,62.791950 
	C118.982918,61.371048 121.827324,57.989647 125.191986,55.734512 
	C127.372864,54.272797 129.836716,53.233269 132.570343,52.007614 
	C133.306107,53.429546 133.645309,54.848434 133.980103,56.636848 
	C131.676636,57.855816 129.068832,58.264713 127.127815,59.625050 
	C112.813293,69.657288 95.450058,66.199203 85.772758,51.206211 
	C81.418442,44.460079 82.194748,37.580772 87.679443,31.747223 
	C89.997086,29.282167 91.897972,26.425278 93.991859,23.383873 
	C95.385399,23.012436 96.775360,23.003614 98.876480,23.123463 
	C100.396172,23.492149 101.204712,23.732166 102.013260,23.972181 
	C103.433151,24.286383 104.853043,24.600586 106.636620,24.957689 
z"/>
<path fill="#E4F6FE" opacity="1.000000" stroke="none" 
	d="
M83.933441,23.652227 
	C83.124191,24.501818 82.248756,24.997356 81.186478,25.741421 
	C77.906662,27.306364 74.813683,28.622784 71.363228,29.973518 
	C73.306053,24.958853 80.063431,21.433630 83.933441,23.652227 
z"/>
<path fill="#B2DAF9" opacity="1.000000" stroke="none" 
	d="
M145.015015,64.993988 
	C145.012543,64.547501 145.010071,64.101021 145.005127,63.319389 
	C146.230057,63.453838 147.457443,63.923435 148.840332,64.699265 
	C148.995834,65.005493 148.991928,65.007935 148.590927,65.004715 
	C147.131622,64.999001 146.073334,64.996490 145.015015,64.993988 
z"/>
<path fill="#E4F6FE" opacity="1.000000" stroke="none" 
	d="
M101.974030,23.646786 
	C101.204712,23.732166 100.396172,23.492149 99.293358,23.122635 
	C99.410347,22.457403 99.821609,21.921673 100.232864,21.385944 
	C100.800171,22.031092 101.367485,22.676241 101.974030,23.646786 
z"/>
<path fill="#BCE0FA" opacity="1.000000" stroke="none" 
	d="
M144.734589,65.254028 
	C146.073334,64.996490 147.131622,64.999001 148.586578,65.009186 
	C149.628769,68.843147 150.524307,72.650513 150.815765,76.503578 
	C150.964569,78.470833 150.029907,80.520042 148.926514,82.765862 
	C147.178711,83.333801 146.089340,83.668076 144.999985,84.002350 
	C143.933334,84.002205 142.866669,84.002052 141.230255,83.758957 
	C140.106094,83.345238 139.551682,83.174446 138.997284,83.003662 
	C138.553574,83.002548 138.109879,83.001434 137.276428,82.650848 
	C132.571518,78.659279 127.760239,76.446907 121.951530,77.193573 
	C104.442314,79.444275 87.612770,77.831146 74.099442,65.313538 
	C69.408577,60.968311 63.556000,56.272259 63.528114,48.443687 
	C63.526386,47.958397 61.880993,47.478958 61.000328,46.996796 
	C62.915863,44.193497 64.831398,41.390202 66.746925,38.586903 
	C67.348343,38.827614 67.949753,39.068325 68.551163,39.309036 
	C69.176857,42.793236 69.184708,46.541721 70.541328,49.713268 
	C75.039078,60.228203 81.848427,68.392754 94.128082,70.057182 
	C95.101921,70.189178 96.053635,70.548019 96.991570,70.871223 
	C104.123573,73.328888 111.500206,75.024864 118.849083,72.838661 
	C126.067276,70.691338 130.928726,73.906891 135.818466,78.231644 
	C137.136993,79.397827 138.879532,80.648582 140.499283,80.753723 
	C142.163986,80.861778 144.404053,80.046417 145.477798,78.828712 
	C146.351776,77.837585 146.123291,75.627609 145.942337,74.007416 
	C145.623917,71.156456 144.968475,68.343140 144.734589,65.254028 
z"/>
<path fill="#B7DDF9" opacity="1.000000" stroke="none" 
	d="
M60.959404,47.360558 
	C61.880993,47.478958 63.526386,47.958397 63.528114,48.443687 
	C63.556000,56.272259 69.408577,60.968311 74.099442,65.313538 
	C87.612770,77.831146 104.442314,79.444275 121.951530,77.193573 
	C127.760239,76.446907 132.571518,78.659279 136.943649,82.650085 
	C128.643692,80.166153 120.141899,81.854301 111.637245,81.735069 
	C90.350494,81.436646 71.813324,74.635704 60.317356,54.969875 
	C60.158588,54.698273 59.837040,54.521828 59.288265,54.142532 
	C59.629532,51.897503 60.274002,49.810909 60.959404,47.360558 
z"/>
<path fill="#90C3F3" opacity="1.000000" stroke="none" 
	d="
M148.742065,102.723740 
	C148.543289,103.621750 148.167252,104.697083 147.616730,104.795395 
	C134.976974,107.052582 122.566269,111.253357 109.482063,109.958626 
	C100.468506,109.066719 91.313385,108.542328 82.553436,106.458450 
	C74.275734,104.489296 66.428085,100.707222 58.401085,97.696388 
	C57.472702,97.348160 56.629852,96.776268 55.708618,96.403893 
	C50.057217,94.119514 49.185883,94.694962 49.008411,100.863235 
	C48.946125,103.028198 49.433472,105.650421 45.370216,104.040039 
	C45.001373,103.999390 44.999420,103.500305 44.891342,102.992035 
	C44.522106,101.989380 44.260952,101.494995 43.999802,101.000618 
	C48.846317,99.768791 46.560852,96.152199 46.623451,93.282539 
	C46.659790,91.616753 46.922153,89.955894 47.082806,88.292824 
	C48.769001,88.775902 50.757153,88.840897 52.094601,89.806847 
	C65.232155,99.295265 80.061455,104.145432 95.975410,105.943153 
	C101.726120,106.592781 107.549553,106.569260 113.326675,107.020805 
	C123.781418,107.837944 133.590546,104.366211 143.668076,102.664680 
	C145.240692,102.399139 146.876785,102.509430 148.742065,102.723740 
z"/>
<path fill="#8CBFF2" opacity="1.000000" stroke="none" 
	d="
M43.723557,100.794739 
	C44.260952,101.494995 44.522106,101.989380 44.890633,102.742493 
	C39.459679,102.850075 39.703770,98.475853 39.003109,94.394043 
	C40.484879,96.193672 41.966095,98.391266 43.723557,100.794739 
z"/>
<path fill="#ABD6F8" opacity="1.000000" stroke="none" 
	d="
M139.450867,89.000221 
	C138.358566,88.208717 137.717133,87.417435 137.037079,86.314514 
	C139.584183,86.334549 142.173203,86.960869 144.754913,86.931999 
	C149.125107,86.883148 152.071548,84.906654 153.239288,80.283928 
	C153.627548,78.746910 153.873947,73.248268 157.861328,78.691338 
	C156.317566,81.302353 154.881729,83.842308 152.917557,85.870674 
	C149.332886,89.572495 144.534058,89.146957 139.450867,89.000221 
z"/>
<path fill="#B7DDF9" opacity="1.000000" stroke="none" 
	d="
M145.197556,84.253807 
	C146.089340,83.668076 147.178711,83.333801 148.633423,82.999451 
	C147.797562,83.501350 146.596344,84.003304 145.197556,84.253807 
z"/>
<path fill="#B7DDF9" opacity="1.000000" stroke="none" 
	d="
M139.030060,83.293762 
	C139.551682,83.174446 140.106094,83.345238 140.830261,83.759201 
	C140.354294,83.862869 139.708572,83.723366 139.030060,83.293762 
z"/>
<path fill="#90C3F3" opacity="1.000000" stroke="none" 
	d="
M155.005432,101.667984 
	C153.582458,102.330063 152.160645,102.660324 150.369720,102.995438 
	C151.435776,102.003357 152.870956,101.006401 154.661011,100.009361 
	C155.012787,100.451576 155.009689,100.893867 155.005432,101.667984 
z"/>
<path fill="#9FCEF6" opacity="1.000000" stroke="none" 
	d="
M152.327850,90.968292 
	C153.090057,90.002205 154.181351,89.005806 155.636322,88.004547 
	C154.885651,88.979126 153.771286,89.958557 152.327850,90.968292 
z"/>
<path fill="#EFFAFE" opacity="1.000000" stroke="none" 
	d="
M115.679024,53.793903 
	C107.413429,59.271328 97.574394,55.468090 95.239876,46.164673 
	C94.397278,42.806778 95.313263,40.116146 98.406128,38.001682 
	C105.449188,33.186630 114.300468,33.707916 119.804054,39.210541 
	C122.613350,42.019337 122.529190,44.741951 120.558441,47.681446 
	C119.178604,49.739571 117.496078,51.594769 115.679024,53.793903 
M109.904411,52.868324 
	C111.529579,51.476089 113.611961,50.358948 114.658958,48.618839 
	C115.846649,46.644901 117.163101,43.694874 116.469238,41.943474 
	C115.797020,40.246712 112.485596,38.382439 110.614227,38.639191 
	C107.244797,39.101479 103.750114,40.643314 101.012779,42.681190 
	C100.002098,43.433620 100.107033,47.736904 101.246231,48.871975 
	C103.248489,50.866940 106.438789,51.669518 109.904411,52.868324 
z"/>
<path fill="#F9FDFF" opacity="1.000000" stroke="none" 
	d="
M109.517975,52.919895 
	C106.438789,51.669518 103.248489,50.866940 101.246231,48.871975 
	C100.107033,47.736904 100.002098,43.433620 101.012779,42.681190 
	C103.750114,40.643314 107.244797,39.101479 110.614227,38.639191 
	C112.485596,38.382439 115.797020,40.246712 116.469238,41.943474 
	C117.163101,43.694874 115.846649,46.644901 114.658958,48.618839 
	C113.611961,50.358948 111.529579,51.476089 109.517975,52.919895 
z"/>
</svg>