<svg version="1.1" id="Layer_1" xmlns="http://www.w3.org/2000/svg" xmlns:xlink="http://www.w3.org/1999/xlink" x="0px" y="0px"
	 width="100%" viewBox="0 0 187 144" enable-background="new 0 0 187 144" xml:space="preserve">
<path fill="#EFF1FE" opacity="1.000000" stroke="none" 
	d="
M1.000000,41.000000 
	C1.000000,39.285641 1.000000,37.571285 1.466307,35.428463 
	C5.905605,34.991394 9.887515,35.124924 13.845461,34.876568 
	C14.864554,34.812622 15.808247,33.547031 16.786577,32.833454 
	C16.036974,31.921909 15.416299,30.390875 14.515983,30.203503 
	C10.051177,29.274296 5.512590,28.699608 1.000000,28.000000 
	C1.000000,19.013456 1.000000,10.026912 1.000000,1.020184 
	C63.226673,1.020184 125.453354,1.020184 188.000000,1.020184 
	C188.000000,27.020020 188.000000,53.041351 187.565323,79.531342 
	C181.638367,78.664551 178.022293,81.797356 174.961746,86.253174 
	C174.634644,85.931618 174.307526,85.610054 173.980408,85.288490 
	C173.980408,82.844025 173.980408,80.399551 173.976990,77.722687 
	C173.973572,77.490295 173.857803,77.040047 173.939011,76.637283 
	C174.053436,73.133415 174.086655,70.032303 174.078094,66.549744 
	C173.406006,64.919235 172.775681,63.670185 172.159943,62.077087 
	C170.389709,56.346066 166.285431,53.942795 160.704468,52.888702 
	C159.092377,51.402046 157.781952,50.077740 156.410355,48.385399 
	C155.859100,46.351086 155.369034,44.684803 154.858795,42.672802 
	C152.272110,39.824490 149.705582,37.321896 146.949982,34.531353 
	C142.636353,31.404379 138.783066,27.746767 132.619476,29.688864 
	C128.115677,30.786331 124.060844,31.900454 119.655464,33.046928 
	C116.839027,35.385674 114.373146,37.692066 111.539673,40.005711 
	C109.913879,41.075787 108.101906,41.897995 107.513618,43.251904 
	C106.316643,46.006668 105.780144,49.048424 104.585129,51.978340 
	C101.821579,52.133476 99.442429,52.406563 97.068176,52.369083 
	C96.131470,52.354305 95.205688,51.647228 94.274933,51.255386 
	C94.703285,50.292698 94.891838,49.027988 95.623383,48.447178 
	C96.454399,47.787384 98.136772,48.070782 98.791779,47.348286 
	C99.803696,46.232086 100.516930,44.661503 100.813087,43.175274 
	C100.923195,42.622719 99.382225,41.081463 98.803413,41.183071 
	C97.425766,41.424915 95.602379,42.041531 94.975403,43.105591 
	C93.004250,46.450947 90.927925,46.063641 87.968117,44.468040 
	C84.213394,42.443901 80.265572,40.660206 76.214584,39.348701 
	C73.882050,38.593552 70.716675,37.913094 69.592628,41.972298 
	C67.784958,41.972820 66.394478,41.965389 64.918396,41.593613 
	C60.831322,39.155308 57.017349,38.293949 53.313999,42.052456 
	C52.279640,43.102226 50.503777,43.710529 48.982471,43.931179 
	C45.808483,44.391525 43.100155,44.949844 42.786491,48.994747 
	C42.748531,49.484287 39.470486,50.228455 39.434124,50.139927 
	C37.221512,44.752960 33.226116,46.287113 28.984304,46.773739 
	C25.840265,47.134426 20.759424,46.859158 19.619753,44.990108 
	C17.394251,41.340302 14.916747,40.893452 11.463096,40.980621 
	C7.977455,41.068600 4.487862,41.000004 1.000000,41.000000 
z"/>
<path fill="#EAEEFF" opacity="1.000000" stroke="none" 
	d="
M173.980408,77.955086 
	C173.980408,80.399551 173.980408,82.844025 173.980408,85.288490 
	C174.307526,85.610054 174.634644,85.931618 174.961746,86.253174 
	C178.022293,81.797356 181.638367,78.664551 187.565323,80.000000 
	C188.000000,101.635857 188.000000,123.271721 188.000000,144.953796 
	C125.786140,144.953796 63.572243,144.953796 1.000000,144.953796 
	C1.000000,126.647324 1.000000,108.292320 1.386414,89.467972 
	C5.094141,88.282990 7.997957,88.161018 10.460358,91.462624 
	C11.536928,92.906097 14.165004,93.192436 16.115219,94.392014 
	C19.474276,108.974915 26.936893,114.949066 41.445759,114.962814 
	C59.932259,114.980339 78.418808,114.948181 96.905304,114.964752 
	C103.026138,114.970238 107.999626,112.540047 112.389862,107.981407 
	C118.812477,103.063408 118.805542,96.149208 119.510483,89.303482 
	C132.417831,89.261345 144.860886,89.295013 157.302673,89.184959 
	C164.443008,89.121796 169.641510,85.965096 172.439087,79.014603 
	C172.891068,78.790764 173.037033,78.562233 173.301239,78.185455 
	C173.526596,78.105621 173.980408,77.955086 173.980408,77.955086 
z"/>
<path fill="#ECF0FF" opacity="1.000000" stroke="none" 
	d="
M16.088526,94.004242 
	C14.165004,93.192436 11.536928,92.906097 10.460358,91.462624 
	C7.997957,88.161018 5.094141,88.282990 1.386414,88.999313 
	C1.000000,73.312439 1.000000,57.624878 1.000000,41.468658 
	C4.487862,41.000004 7.977455,41.068600 11.463096,40.980621 
	C14.916747,40.893452 17.394251,41.340302 19.619753,44.990108 
	C20.759424,46.859158 25.840265,47.134426 28.984304,46.773739 
	C33.226116,46.287113 37.221512,44.752960 39.434124,50.139927 
	C39.470486,50.228455 42.748531,49.484287 42.786491,48.994747 
	C43.100155,44.949844 45.808483,44.391525 48.982471,43.931179 
	C50.503777,43.710529 52.279640,43.102226 53.313999,42.052456 
	C57.017349,38.293949 60.831322,39.155308 64.553528,41.607483 
	C63.181587,42.320480 62.088909,42.655258 60.657738,43.135193 
	C56.873009,44.840176 53.426781,46.400002 49.704613,48.100288 
	C48.608818,49.148609 47.788963,50.056461 46.668751,51.120132 
	C42.247295,54.948853 39.569805,59.404285 38.683739,65.216461 
	C38.284992,66.641335 38.146725,67.821739 37.896072,69.251328 
	C37.517128,69.974098 37.250576,70.447670 36.563408,70.938049 
	C33.388973,71.866936 30.635151,72.779007 27.565971,73.772064 
	C26.827906,73.952515 26.405197,74.051979 25.645855,74.169495 
	C21.168217,77.560822 17.694059,81.353554 17.165478,87.366104 
	C17.090044,88.140213 17.075487,88.585632 16.797926,89.287964 
	C16.386124,91.031319 16.237326,92.517784 16.088526,94.004242 
z"/>
<path fill="#ECF0FF" opacity="1.000000" stroke="none" 
	d="
M1.000000,28.437500 
	C5.512590,28.699608 10.051177,29.274296 14.515983,30.203503 
	C15.416299,30.390875 16.036974,31.921909 16.786577,32.833454 
	C15.808247,33.547031 14.864554,34.812622 13.845461,34.876568 
	C9.887515,35.124924 5.905605,34.991394 1.466307,35.000000 
	C1.000000,32.958332 1.000000,30.916666 1.000000,28.437500 
z"/>
<path fill="#6A91B6" opacity="1.000000" stroke="none" 
	d="
M173.075897,78.265289 
	C173.037033,78.562233 172.891068,78.790764 172.067184,79.020203 
	C164.917816,80.138916 158.370209,81.490280 151.753586,82.167969 
	C141.456589,83.222595 131.082291,84.686180 121.162727,79.738190 
	C119.388191,78.853035 116.982727,79.232735 114.601135,78.877838 
	C113.249908,77.760628 112.166130,76.793983 110.906387,75.538239 
	C108.522758,74.055420 106.315079,72.861702 103.876175,71.460342 
	C101.841667,70.979851 100.038391,70.707016 98.018158,70.221130 
	C97.279198,68.969719 96.757195,67.931366 96.176628,66.477829 
	C96.065346,64.380623 96.012619,62.698589 96.266510,60.886955 
	C99.049644,62.005745 101.735054,62.966972 103.948517,64.577019 
	C106.568977,66.483116 108.419327,69.824043 111.245125,70.996231 
	C117.849197,73.735725 124.751060,75.883980 131.687454,77.668800 
	C145.195724,81.144638 158.176804,78.118965 170.826859,73.371529 
	C171.939835,72.953835 172.290527,70.504883 173.026398,68.688065 
	C173.411636,67.894882 173.765747,67.413040 174.119873,66.931190 
	C174.086655,70.032303 174.053436,73.133415 173.736298,76.787735 
	C173.326889,77.649063 173.201401,77.957176 173.075897,78.265289 
z"/>
<path fill="#8FAFBD" opacity="1.000000" stroke="none" 
	d="
M156.471527,48.753433 
	C157.781952,50.077740 159.092377,51.402046 160.703522,53.257034 
	C161.002625,54.526047 161.001007,55.264370 160.647964,56.039833 
	C158.861389,57.387074 157.426239,58.697174 155.601593,59.955719 
	C152.681488,59.437813 149.883286,57.208511 147.665756,60.998894 
	C146.888687,60.998875 146.444656,60.998981 145.829407,60.686531 
	C143.438904,60.249729 141.219604,60.125477 138.633331,59.958294 
	C135.177765,58.943428 132.089188,57.971489 128.946747,56.662170 
	C127.963280,55.415985 127.184662,54.211193 126.079140,53.647182 
	C119.679230,50.382080 119.537697,44.720272 120.034325,38.701038 
	C120.189598,36.819141 120.024475,34.910809 120.006012,33.014576 
	C124.060844,31.900454 128.115677,30.786331 132.570221,30.067465 
	C131.949600,31.691013 130.706833,32.797966 129.956467,34.173523 
	C128.511154,36.823021 126.216209,39.659023 126.298897,42.355583 
	C126.466507,47.821930 133.381622,54.017429 139.184113,55.327789 
	C142.800781,58.352425 145.829422,56.952301 148.759415,54.711788 
	C151.339935,52.738506 153.901566,50.740517 156.471527,48.753433 
z"/>
<path fill="#87A8BC" opacity="1.000000" stroke="none" 
	d="
M139.000305,60.001221 
	C141.219604,60.125477 143.438904,60.249729 145.877762,61.004833 
	C146.838593,61.951881 147.579880,62.268078 148.321152,62.584274 
	C148.213684,62.055855 148.106232,61.527435 147.998779,60.999016 
	C149.883286,57.208511 152.681488,59.437813 155.568253,60.299042 
	C155.617508,61.794792 155.310608,62.895653 154.660919,64.147766 
	C151.253265,64.531067 148.182159,65.023613 145.124664,64.949959 
	C132.037140,64.634705 120.137390,61.815834 112.984512,49.208439 
	C112.361031,48.109516 110.698708,47.599983 109.555969,46.446754 
	C110.364426,44.050709 111.135841,42.024582 111.907257,39.998459 
	C114.373146,37.692066 116.839027,35.385674 119.655464,33.046928 
	C120.024475,34.910809 120.189598,36.819141 120.034325,38.701038 
	C119.537697,44.720272 119.679230,50.382080 126.079140,53.647182 
	C127.184662,54.211193 127.963280,55.415985 128.706055,56.872345 
	C130.713699,61.868580 135.997589,63.169914 139.000305,60.001221 
z"/>
<path fill="#CCECFD" opacity="1.000000" stroke="none" 
	d="
M96.235191,66.893005 
	C96.757195,67.931366 97.279198,68.969719 97.919907,70.629578 
	C97.552040,71.880898 97.165703,72.933342 96.563629,73.076141 
	C89.359482,74.784782 82.419548,78.724976 74.613846,75.799919 
	C73.872108,75.521965 72.877800,75.917992 71.750565,76.000595 
	C71.333588,75.999847 71.166794,75.999619 70.937576,75.653137 
	C68.469582,73.976929 66.088104,72.600998 63.653759,71.325981 
	C57.338928,68.018517 51.811535,58.184608 57.291809,50.275856 
	C58.829330,48.057011 59.777645,45.429886 60.996231,42.990036 
	C62.088909,42.655258 63.181587,42.320480 64.639130,41.971828 
	C66.394478,41.965389 67.784958,41.972820 69.589676,41.983612 
	C70.003914,41.986973 69.999695,42.000305 69.993813,42.370483 
	C68.759827,44.115860 67.760681,45.850403 66.263985,46.804050 
	C59.792259,50.927616 57.718864,57.205231 61.426052,62.656326 
	C62.907528,64.834717 64.530418,66.978935 66.405556,68.815437 
	C71.173439,73.485077 78.742973,77.403770 86.629150,72.688446 
	C89.838760,70.769348 93.033615,68.825562 96.235191,66.893005 
z"/>
<path fill="#ECF0FF" opacity="1.000000" stroke="none" 
	d="
M70.006866,41.975658 
	C70.716675,37.913094 73.882050,38.593552 76.214584,39.348701 
	C80.265572,40.660206 84.213394,42.443901 87.968117,44.468040 
	C90.927925,46.063641 93.004250,46.450947 94.975403,43.105591 
	C95.602379,42.041531 97.425766,41.424915 98.803413,41.183071 
	C99.382225,41.081463 100.923195,42.622719 100.813087,43.175274 
	C100.516930,44.661503 99.803696,46.232086 98.791779,47.348286 
	C98.136772,48.070782 96.454399,47.787384 95.623383,48.447178 
	C94.891838,49.027988 94.703285,50.292698 94.274933,51.255386 
	C95.205688,51.647228 96.131470,52.354305 97.068176,52.369083 
	C99.442429,52.406563 101.821579,52.133476 104.647110,52.045151 
	C105.095451,52.105541 105.218536,52.238888 105.121330,52.499763 
	C104.681709,53.188705 104.339294,53.616776 103.602890,54.009438 
	C100.581169,55.154945 97.953430,56.335861 95.139084,57.162930 
	C93.462471,54.929699 92.186089,52.814884 90.433609,51.224792 
	C87.637329,48.687614 85.809937,44.523647 80.753143,44.732719 
	C77.003891,43.642811 73.501793,42.821560 69.999695,42.000305 
	C69.999695,42.000305 70.003914,41.986973 70.006866,41.975658 
z"/>
<path fill="#9CB7C2" opacity="1.000000" stroke="none" 
	d="
M138.999161,55.002838 
	C133.381622,54.017429 126.466507,47.821930 126.298897,42.355583 
	C126.216209,39.659023 128.511154,36.823021 129.956467,34.173523 
	C130.706833,32.797966 131.949600,31.691013 133.019180,30.084120 
	C138.783066,27.746767 142.636353,31.404379 146.695770,34.830879 
	C145.378891,35.322849 144.127899,35.216175 142.875320,35.133877 
	C138.734436,34.861790 134.475159,34.313728 131.447739,38.112431 
	C129.832932,40.138638 128.432800,42.350285 131.971954,44.371429 
	C132.657166,45.810318 133.330276,46.903145 134.112396,48.253761 
	C134.481735,49.005947 134.742081,49.500343 135.109543,50.213692 
	C135.412994,50.705982 135.670044,50.898022 136.242233,51.006325 
	C136.666153,50.998722 136.835678,50.993557 137.002319,50.995075 
	C136.999451,51.001755 136.991776,51.014214 137.038361,51.331127 
	C137.722488,52.099308 138.360016,52.550579 138.999878,53.248608 
	C139.002182,53.495365 139.005035,53.988899 139.003448,54.242386 
	C139.000977,54.664856 139.000076,54.833847 138.999161,55.002838 
z"/>
<path fill="#A6BFC7" opacity="1.000000" stroke="none" 
	d="
M131.959869,44.025375 
	C128.432800,42.350285 129.832932,40.138638 131.447739,38.112431 
	C134.475159,34.313728 138.734436,34.861790 142.875320,35.133877 
	C144.127899,35.216175 145.378891,35.322849 146.884827,35.118835 
	C149.705582,37.321896 152.272110,39.824490 154.494476,42.676144 
	C153.057678,44.022957 151.939026,44.994007 150.880020,46.026245 
	C149.893311,46.988018 148.970078,48.014893 148.020355,48.620083 
	C149.492355,41.629379 147.570572,37.981453 142.127853,37.039131 
	C136.528336,36.069656 132.446960,38.873901 131.959869,44.025375 
z"/>
<path fill="#89A8BE" opacity="1.000000" stroke="none" 
	d="
M160.999390,56.002701 
	C161.001007,55.264370 161.002625,54.526047 161.005173,53.419388 
	C166.285431,53.942795 170.389709,56.346066 172.135620,62.225525 
	C172.096664,62.718002 171.977142,62.992947 171.690857,62.870026 
	C170.798325,62.702026 169.709076,62.488567 169.657379,62.636818 
	C168.695496,65.395966 167.857071,68.198143 166.656281,70.991348 
	C165.871231,70.977348 165.422562,70.963272 164.978729,70.555161 
	C164.991486,69.110252 164.999405,68.059402 165.148407,66.688324 
	C165.527756,65.245811 165.766022,64.123528 166.240509,62.806953 
	C164.650940,60.409344 162.825165,58.206020 160.999390,56.002701 
z"/>
<path fill="#9CB9C2" opacity="1.000000" stroke="none" 
	d="
M148.018890,49.013107 
	C148.970078,48.014893 149.893311,46.988018 150.880020,46.026245 
	C151.939026,44.994007 153.057678,44.022957 154.514618,43.021862 
	C155.369034,44.684803 155.859100,46.351086 156.410355,48.385406 
	C153.901566,50.740517 151.339935,52.738506 148.759415,54.711788 
	C145.829422,56.952301 142.800781,58.352425 139.184113,55.327789 
	C139.000076,54.833847 139.000977,54.664856 139.401291,54.244965 
	C140.863083,53.992157 141.925430,53.990253 143.334564,53.957424 
	C144.789261,52.953465 145.897171,51.980431 147.114792,50.749596 
	C147.489288,49.998901 147.754089,49.506004 148.018890,49.013107 
z"/>
<path fill="#ECF0FF" opacity="1.000000" stroke="none" 
	d="
M111.539673,40.005711 
	C111.135841,42.024582 110.364426,44.050709 109.329102,46.699150 
	C108.717522,48.907825 108.369858,50.494186 107.670647,52.104275 
	C106.618912,52.164963 105.918724,52.201923 105.218536,52.238884 
	C105.218536,52.238888 105.095451,52.105541 105.033463,52.038727 
	C105.780144,49.048424 106.316643,46.006668 107.513618,43.251904 
	C108.101906,41.897995 109.913879,41.075787 111.539673,40.005711 
z"/>
<path fill="#779BB9" opacity="1.000000" stroke="none" 
	d="
M174.078110,66.549744 
	C173.765747,67.413040 173.411636,67.894882 172.694000,68.688324 
	C171.887207,68.999802 171.443909,68.999702 171.007324,68.615311 
	C171.335068,66.485001 171.656113,64.738976 171.977142,62.992947 
	C171.977142,62.992947 172.096664,62.718002 172.121002,62.569565 
	C172.775681,63.670185 173.406006,64.919235 174.078110,66.549744 
z"/>
<path fill="#648BB4" opacity="1.000000" stroke="none" 
	d="
M173.301254,78.185455 
	C173.201401,77.957176 173.326889,77.649063 173.655090,77.190498 
	C173.857803,77.040047 173.973572,77.490295 173.976990,77.722687 
	C173.980408,77.955086 173.526596,78.105621 173.301254,78.185455 
z"/>
<path fill="#648BB4" opacity="1.000000" stroke="none" 
	d="
M114.868584,79.028419 
	C116.982727,79.232735 119.388191,78.853035 121.162727,79.738190 
	C131.082291,84.686180 141.456589,83.222595 151.753586,82.167969 
	C158.370209,81.490280 164.917816,80.138916 171.868256,79.083923 
	C169.641510,85.965096 164.443008,89.121796 157.302673,89.184959 
	C144.860886,89.295013 132.417831,89.261345 119.417328,89.032059 
	C118.598862,88.506538 118.338379,88.236877 118.068123,87.620193 
	C117.461342,85.820595 116.864334,84.368011 116.172844,82.583496 
	C115.675102,81.177185 115.271843,80.102806 114.868584,79.028419 
z"/>
<path fill="#9AC1EC" opacity="1.000000" stroke="none" 
	d="
M16.115219,94.392014 
	C16.237326,92.517784 16.386124,91.031319 17.064970,89.571007 
	C19.025587,94.080505 19.652647,99.068878 22.077641,102.927231 
	C25.594278,108.522484 30.739578,112.924576 38.018703,112.974976 
	C53.347839,113.081131 68.678253,113.003456 84.435150,113.002220 
	C86.571960,113.002754 88.281761,113.002296 90.448334,113.003212 
	C93.182449,112.995041 95.579178,113.438698 97.711159,112.877182 
	C101.589668,111.855675 106.844536,112.876045 108.257401,107.100899 
	C109.653252,107.446442 110.806038,107.694458 111.982895,107.972351 
	C112.006958,108.002235 112.057579,108.059914 112.057579,108.059914 
	C107.999626,112.540047 103.026138,114.970238 96.905304,114.964752 
	C78.418808,114.948181 59.932259,114.980339 41.445759,114.962814 
	C26.936893,114.949066 19.474276,108.974915 16.115219,94.392014 
z"/>
<path fill="#9AC1EC" opacity="1.000000" stroke="none" 
	d="
M118.077888,87.967216 
	C118.338379,88.236877 118.598862,88.506538 118.952499,89.047638 
	C118.805542,96.149208 118.812477,103.063408 112.389862,107.981407 
	C112.057579,108.059914 112.006958,108.002235 112.041580,107.615593 
	C112.383873,105.818916 112.691551,104.408882 113.263702,102.804825 
	C114.350388,101.074112 115.172600,99.537422 115.996796,97.626114 
	C115.999901,96.502419 116.001022,95.753349 116.037361,94.659882 
	C116.382774,93.213280 116.692963,92.111061 117.187622,90.835846 
	C117.607361,89.764297 117.842621,88.865761 118.077888,87.967216 
z"/>
<path fill="#A7D1F4" opacity="1.000000" stroke="none" 
	d="
M118.068123,87.620193 
	C117.842621,88.865761 117.607361,89.764297 116.814240,90.838455 
	C110.383957,92.884567 104.531372,94.821381 98.627594,96.587044 
	C96.743553,97.150505 94.730858,97.477814 92.764900,97.542015 
	C79.369362,97.979469 65.825188,99.653397 53.172356,93.213875 
	C52.441219,92.841766 51.579071,92.736847 50.813202,92.421753 
	C41.276829,88.498383 34.318146,81.413002 27.881329,73.691078 
	C30.635151,72.779007 33.388973,71.866936 36.568459,71.345078 
	C37.796516,73.790756 38.065464,76.366516 39.484070,77.820938 
	C53.205986,91.889282 70.502304,95.253113 89.226913,93.658241 
	C92.205315,93.404556 95.078522,91.915695 98.403275,91.051727 
	C106.690132,93.332787 109.038475,92.347481 113.419380,85.291351 
	C114.038406,84.294312 115.302040,83.697487 116.267319,82.915428 
	C116.864334,84.368011 117.461342,85.820595 118.068123,87.620193 
z"/>
<path fill="#BDE1FB" opacity="1.000000" stroke="none" 
	d="
M104.107407,71.667992 
	C106.315079,72.861702 108.522758,74.055420 110.833282,75.957039 
	C110.625320,78.111061 110.135223,79.544685 110.033432,81.005371 
	C109.469658,89.096199 105.509064,91.113625 98.268440,87.243454 
	C95.758804,85.902023 92.782692,84.493118 90.084946,84.610870 
	C79.852676,85.057472 69.773804,86.149254 60.014263,81.263046 
	C52.821106,77.661713 46.394161,73.900055 44.817612,65.175896 
	C44.610069,64.027412 43.638813,63.016945 42.967087,61.848289 
	C41.358032,63.097698 40.151127,64.034851 38.944221,64.971992 
	C39.569805,59.404285 42.247295,54.948853 46.947906,51.386269 
	C47.684860,52.133484 47.893307,52.762630 47.991436,53.408535 
	C48.610966,57.486271 47.997128,62.399216 50.095951,65.450706 
	C53.151234,69.892776 57.757706,73.636177 62.419018,76.519638 
	C69.530472,80.918739 77.903183,81.754150 85.998169,80.771675 
	C90.850899,80.182709 94.992134,80.279190 99.043915,83.365555 
	C100.215553,86.815117 102.547508,87.721634 105.384529,86.609154 
	C108.817139,85.263123 107.262299,82.895630 106.400162,80.505333 
	C105.372002,77.654739 104.849159,74.621887 104.107407,71.667992 
z"/>
<path fill="#B4DCFA" opacity="1.000000" stroke="none" 
	d="
M38.683739,65.216461 
	C40.151127,64.034851 41.358032,63.097698 42.967087,61.848289 
	C43.638813,63.016945 44.610069,64.027412 44.817612,65.175896 
	C46.394161,73.900055 52.821106,77.661713 60.014263,81.263046 
	C69.773804,86.149254 79.852676,85.057472 90.084946,84.610870 
	C92.782692,84.493118 95.758804,85.902023 98.268440,87.243454 
	C105.509064,91.113625 109.469658,89.096199 110.033432,81.005371 
	C110.135223,79.544685 110.625320,78.111061 111.009247,76.246140 
	C112.166130,76.793983 113.249908,77.760628 114.601135,78.877838 
	C115.271843,80.102806 115.675102,81.177185 116.172844,82.583496 
	C115.302040,83.697487 114.038406,84.294312 113.419380,85.291351 
	C109.038475,92.347481 106.690132,93.332787 98.313644,90.670464 
	C96.661682,89.825020 95.506348,89.072914 94.342171,89.058960 
	C85.793251,88.956535 77.157051,89.765839 68.712532,88.820831 
	C56.156685,87.415741 45.245880,82.522720 39.644974,69.920509 
	C39.441387,69.462425 38.569103,69.301537 38.008461,69.002136 
	C38.146725,67.821739 38.284992,66.641335 38.683739,65.216461 
z"/>
<path fill="#9DCDF5" opacity="1.000000" stroke="none" 
	d="
M27.565971,73.772064 
	C34.318146,81.413002 41.276829,88.498383 50.813202,92.421753 
	C51.579071,92.736847 52.441219,92.841766 53.172356,93.213875 
	C65.825188,99.653397 79.369362,97.979469 92.764900,97.542015 
	C94.730858,97.477814 96.743553,97.150505 98.627594,96.587044 
	C104.531372,94.821381 110.383957,92.884567 116.629761,91.011459 
	C116.692963,92.111061 116.382774,93.213280 115.659378,94.664902 
	C114.753326,95.084457 114.193146,95.025879 113.777344,95.243355 
	C97.952324,103.520050 81.221741,104.695251 64.126671,100.893456 
	C56.929436,99.292847 50.033112,96.339195 42.665558,93.945763 
	C37.661415,89.871880 33.049213,85.782509 28.280760,81.884277 
	C27.117605,80.933395 25.441692,80.609734 24.001087,79.748413 
	C24.000635,79.499130 23.999557,79.000557 24.152544,78.696793 
	C24.864515,76.979164 25.423502,75.565300 25.982489,74.151436 
	C26.405197,74.051979 26.827906,73.952515 27.565971,73.772064 
z"/>
<path fill="#89BDF1" opacity="1.000000" stroke="none" 
	d="
M84.008141,113.001221 
	C68.678253,113.003456 53.347839,113.081131 38.018703,112.974976 
	C30.739578,112.924576 25.594278,108.522484 22.077641,102.927231 
	C19.652647,99.068878 19.025587,94.080505 17.327972,89.314102 
	C17.075487,88.585632 17.090044,88.140213 17.490498,87.351654 
	C18.916563,86.670349 19.956736,86.332169 21.264862,86.237717 
	C24.021585,92.321365 26.510359,98.161293 29.045403,104.361404 
	C29.995947,105.399498 30.900225,106.077415 31.804502,106.755325 
	C32.202339,105.503059 32.600178,104.250801 32.998322,102.665413 
	C32.998734,101.888123 32.998837,101.443947 33.312569,100.865860 
	C34.857529,100.872375 36.171810,100.781364 37.307560,101.188446 
	C51.198708,106.167389 64.709038,112.684021 80.153717,111.104935 
	C81.361275,110.981468 82.719788,112.334442 84.008141,113.001221 
z"/>
<path fill="#ACD7F8" opacity="1.000000" stroke="none" 
	d="
M37.896072,69.251328 
	C38.569103,69.301537 39.441387,69.462425 39.644974,69.920509 
	C45.245880,82.522720 56.156685,87.415741 68.712532,88.820831 
	C77.157051,89.765839 85.793251,88.956535 94.342171,89.058960 
	C95.506348,89.072914 96.661682,89.825020 97.910736,90.616623 
	C95.078522,91.915695 92.205315,93.404556 89.226913,93.658241 
	C70.502304,95.253113 53.205986,91.889282 39.484070,77.820938 
	C38.065464,76.366516 37.796516,73.790756 36.989071,71.328270 
	C37.250576,70.447670 37.517128,69.974098 37.896072,69.251328 
z"/>
<path fill="#C3E6FC" opacity="1.000000" stroke="none" 
	d="
M98.998878,83.001831 
	C94.992134,80.279190 90.850899,80.182709 85.998169,80.771675 
	C77.903183,81.754150 69.530472,80.918739 62.419018,76.519638 
	C57.757706,73.636177 53.151234,69.892776 50.095951,65.450706 
	C47.997128,62.399216 48.610966,57.486271 47.991436,53.408535 
	C47.893307,52.762630 47.684860,52.133484 47.248260,51.230453 
	C47.788963,50.056461 48.608818,49.148609 49.941414,48.379272 
	C51.232117,49.724190 52.787849,51.013020 52.670055,52.124485 
	C51.174519,66.235886 56.840126,73.733086 71.000000,75.999390 
	C71.166794,75.999619 71.333588,75.999847 71.974289,76.284073 
	C77.467697,80.109016 82.755775,78.742218 88.074135,77.489830 
	C93.656303,76.175308 96.607780,77.714493 98.998878,83.001831 
z"/>
<path fill="#C7E8FC" opacity="1.000000" stroke="none" 
	d="
M70.937576,75.653137 
	C56.840126,73.733086 51.174519,66.235886 52.670055,52.124485 
	C52.787849,51.013020 51.232117,49.724190 50.217350,48.238808 
	C53.426781,46.400002 56.873009,44.840176 60.657734,43.135193 
	C59.777645,45.429886 58.829330,48.057011 57.291809,50.275856 
	C51.811535,58.184608 57.338928,68.018517 63.653759,71.325981 
	C66.088104,72.600998 68.469582,73.976929 70.937576,75.653137 
z"/>
<path fill="#9AC1EC" opacity="1.000000" stroke="none" 
	d="
M20.996910,85.993996 
	C19.956736,86.332169 18.916563,86.670349 17.551373,87.022972 
	C17.694059,81.353554 21.168217,77.560822 25.645855,74.169495 
	C25.423502,75.565300 24.864515,76.979164 23.840725,78.864059 
	C22.582918,81.554718 21.789915,83.774361 20.996910,85.993996 
z"/>
<path fill="#7296B8" opacity="1.000000" stroke="none" 
	d="
M171.000610,68.999596 
	C171.443909,68.999702 171.887207,68.999802 172.662888,68.999649 
	C172.290527,70.504883 171.939835,72.953835 170.826859,73.371529 
	C158.176804,78.118965 145.195724,81.144638 131.687454,77.668800 
	C124.751060,75.883980 117.849197,73.735725 111.245125,70.996231 
	C108.419327,69.824043 106.568977,66.483116 103.948517,64.577019 
	C101.735054,62.966972 99.049644,62.005745 96.056732,60.747402 
	C95.313126,60.489578 95.085915,60.241711 94.906845,59.679497 
	C95.078568,58.749031 95.202133,58.132904 95.325699,57.516777 
	C97.953430,56.335861 100.581169,55.154945 103.609528,54.371849 
	C106.852119,58.264061 109.184891,62.398251 112.627411,65.138046 
	C125.104378,75.068047 140.038223,74.511993 154.823914,73.895523 
	C157.077148,73.801582 160.117432,73.740005 160.253815,70.016823 
	C160.497757,70.016129 160.985596,70.011192 160.991989,70.013260 
	C160.998383,70.015320 160.997955,70.029442 161.089920,70.184845 
	C161.454788,70.242203 161.727707,70.144165 162.249649,70.037544 
	C162.498688,70.028961 162.996490,70.005188 163.213181,70.116127 
	C163.703247,70.421814 163.897629,70.676796 163.783539,71.206818 
	C165.345459,73.706581 166.379089,73.627090 169.239502,70.844101 
	C169.986435,70.123451 170.493515,69.561523 171.000610,68.999596 
z"/>
<path fill="#D6F2FD" opacity="1.000000" stroke="none" 
	d="
M94.858696,59.993843 
	C95.085915,60.241711 95.313126,60.489578 95.750122,60.877003 
	C96.012619,62.698589 96.065346,64.380623 96.176628,66.477829 
	C93.033615,68.825562 89.838760,70.769348 86.629150,72.688446 
	C78.742973,77.403770 71.173439,73.485077 66.405556,68.815437 
	C64.530418,66.978935 62.907528,64.834717 61.426052,62.656326 
	C57.718864,57.205231 59.792259,50.927616 66.263985,46.804050 
	C67.760681,45.850403 68.759827,44.115860 69.993813,42.370483 
	C73.501793,42.821560 77.003891,43.642811 80.743118,45.133972 
	C80.605179,50.012329 77.358330,48.870239 74.898033,48.975319 
	C69.213554,49.218098 63.852604,54.182026 64.448128,58.785297 
	C65.035423,63.325027 71.172188,69.697495 76.065544,70.848923 
	C81.779205,72.193382 85.297058,70.315926 89.330162,64.551392 
	C90.649361,62.665844 92.986885,61.492760 94.858696,59.993843 
z"/>
<path fill="#C5E6FC" opacity="1.000000" stroke="none" 
	d="
M99.043915,83.365555 
	C96.607780,77.714493 93.656303,76.175308 88.074135,77.489830 
	C82.755775,78.742218 77.467697,80.109016 72.224472,76.284584 
	C72.877800,75.917992 73.872108,75.521965 74.613846,75.799919 
	C82.419548,78.724976 89.359482,74.784782 96.563629,73.076141 
	C97.165703,72.933342 97.552040,71.880898 98.136856,70.842636 
	C100.038391,70.707016 101.841667,70.979851 103.876175,71.460342 
	C104.849159,74.621887 105.372002,77.654739 106.400162,80.505333 
	C107.262299,82.895630 108.817139,85.263123 105.384529,86.609154 
	C102.547508,87.721634 100.215553,86.815117 99.043915,83.365555 
z"/>
<path fill="#91B1C6" opacity="1.000000" stroke="none" 
	d="
M164.013000,70.992004 
	C163.897629,70.676796 163.703247,70.421814 163.182312,69.826981 
	C162.290131,69.283447 161.645508,69.139992 160.705429,68.971413 
	C159.939926,68.630341 159.469864,68.314407 158.970627,67.678528 
	C158.291061,66.576622 157.640671,65.794655 156.734222,64.900665 
	C155.986664,64.524605 155.495193,64.260559 155.003723,63.996521 
	C155.310608,62.895653 155.617508,61.794792 155.957733,60.350601 
	C157.426239,58.697174 158.861389,57.387074 160.647964,56.039837 
	C162.825165,58.206020 164.650940,60.409344 165.927200,62.648815 
	C163.591095,61.722431 161.804489,60.759899 159.648697,59.598457 
	C158.229858,65.300163 161.198944,66.498955 165.007324,67.008545 
	C164.999405,68.059402 164.991486,69.110252 164.738708,70.567657 
	C164.493866,70.974213 164.013000,70.992004 164.013000,70.992004 
z"/>
<path fill="#87A9BD" opacity="1.000000" stroke="none" 
	d="
M138.633331,59.958294 
	C135.997589,63.169914 130.713699,61.868580 128.759918,57.209724 
	C132.089188,57.971489 135.177765,58.943428 138.633331,59.958294 
z"/>
<path fill="#87A9BD" opacity="1.000000" stroke="none" 
	d="
M147.665756,60.998894 
	C148.106232,61.527435 148.213684,62.055855 148.321152,62.584274 
	C147.579880,62.268078 146.838593,61.951881 146.048965,61.317383 
	C146.444656,60.998981 146.888687,60.998875 147.665756,60.998894 
z"/>
<path fill="#7FA1BB" opacity="1.000000" stroke="none" 
	d="
M158.999817,67.998474 
	C159.469864,68.314407 159.939926,68.630341 160.702728,69.225113 
	C160.992188,69.673019 160.988892,69.842102 160.985596,70.011192 
	C160.985596,70.011192 160.497757,70.016129 159.792175,70.010727 
	C156.256119,70.032120 153.321365,69.578346 150.612564,70.166054 
	C136.269394,73.277977 124.089546,68.252426 112.924988,60.083420 
	C110.589302,58.374424 109.620743,54.796974 108.022186,52.080544 
	C108.369858,50.494186 108.717522,48.907825 109.292053,47.069073 
	C110.698708,47.599983 112.361031,48.109516 112.984512,49.208439 
	C120.137390,61.815834 132.037140,64.634705 145.124664,64.949959 
	C148.182159,65.023613 151.253265,64.531067 154.660919,64.147766 
	C155.495193,64.260559 155.986664,64.524605 156.742447,65.251465 
	C157.671112,66.475677 158.335464,67.237076 158.999817,67.998474 
z"/>
<path fill="#E6F7FE" opacity="1.000000" stroke="none" 
	d="
M94.906845,59.679497 
	C92.986885,61.492760 90.649361,62.665844 89.330162,64.551392 
	C85.297058,70.315926 81.779205,72.193382 76.065544,70.848923 
	C71.172188,69.697495 65.035423,63.325027 64.448128,58.785297 
	C63.852604,54.182026 69.213554,49.218098 74.898033,48.975319 
	C77.358330,48.870239 80.605179,50.012329 80.990273,45.402626 
	C85.809937,44.523647 87.637329,48.687614 90.433609,51.224792 
	C92.186089,52.814884 93.462471,54.929699 95.139084,57.162933 
	C95.202133,58.132904 95.078568,58.749031 94.906845,59.679497 
M86.235817,60.629356 
	C87.318977,55.779072 84.265320,52.078030 79.122299,52.007755 
	C72.094818,51.911724 67.293030,57.223686 70.370438,62.100414 
	C71.754814,64.294212 74.665291,66.145996 77.235657,66.831161 
	C81.563690,67.984856 84.356796,65.234718 86.235817,60.629356 
z"/>
<path fill="#779BB9" opacity="1.000000" stroke="none" 
	d="
M107.670639,52.104271 
	C109.620743,54.796974 110.589302,58.374424 112.924988,60.083420 
	C124.089546,68.252426 136.269394,73.277977 150.612564,70.166054 
	C153.321365,69.578346 156.256119,70.032120 159.548248,70.011421 
	C160.117432,73.740005 157.077148,73.801582 154.823914,73.895523 
	C140.038223,74.511993 125.104378,75.068047 112.627411,65.138046 
	C109.184891,62.398251 106.852119,58.264061 104.003517,54.407257 
	C104.339294,53.616776 104.681709,53.188705 105.121330,52.499760 
	C105.918724,52.201923 106.618912,52.164963 107.670639,52.104271 
z"/>
<path fill="#BFD2D7" opacity="1.000000" stroke="none" 
	d="
M135.002411,49.994743 
	C134.742081,49.500343 134.481735,49.005947 134.113678,47.822800 
	C134.003906,46.475754 133.807846,45.739689 134.034897,45.173229 
	C134.828354,43.193653 135.570114,39.777298 136.691620,39.628941 
	C139.333496,39.279461 142.635605,39.844566 144.779938,41.327549 
	C146.082474,42.228359 145.898270,45.517029 146.039154,47.754589 
	C146.105270,48.804768 145.361893,49.905914 144.655060,50.988495 
	C143.883987,50.996262 143.443222,50.999496 142.602493,51.000427 
	C141.135437,50.998413 140.068329,50.998699 138.666321,50.997711 
	C137.884872,51.002361 137.438324,51.008289 136.991776,51.014214 
	C136.991776,51.014214 136.999451,51.001755 136.891647,50.779953 
	C136.585251,50.289951 136.328232,50.101395 135.760193,49.990280 
	C135.339203,49.990303 135.170807,49.992523 135.002411,49.994743 
M140.549622,48.857014 
	C144.200882,47.401947 143.576294,44.850342 141.784622,42.554680 
	C141.173355,41.771469 139.290100,41.981003 137.988022,41.736938 
	C138.299683,43.915474 138.590652,46.097504 138.956970,48.266808 
	C138.991364,48.470448 139.500809,48.593861 140.549622,48.857014 
z"/>
<path fill="#B1C9CF" opacity="1.000000" stroke="none" 
	d="
M144.985367,50.983967 
	C145.361893,49.905914 146.105270,48.804768 146.039154,47.754589 
	C145.898270,45.517029 146.082474,42.228359 144.779938,41.327549 
	C142.635605,39.844566 139.333496,39.279461 136.691620,39.628941 
	C135.570114,39.777298 134.828354,43.193653 134.034897,45.173229 
	C133.807846,45.739689 134.003906,46.475754 134.004669,47.565010 
	C133.330276,46.903145 132.657166,45.810318 131.971954,44.371429 
	C132.446960,38.873901 136.528336,36.069656 142.127853,37.039131 
	C147.570572,37.981453 149.492355,41.629379 148.020355,48.620079 
	C147.754089,49.506004 147.489288,49.998901 146.778198,50.746235 
	C145.883072,50.995102 145.434219,50.989536 144.985367,50.983967 
z"/>
<path fill="#B1C9CF" opacity="1.000000" stroke="none" 
	d="
M139.001221,50.998985 
	C140.068329,50.998699 141.135437,50.998413 142.601990,51.373711 
	C142.996902,52.495647 142.992340,53.242001 142.987793,53.988350 
	C141.925430,53.990253 140.863083,53.992157 139.402878,53.991478 
	C139.005035,53.988899 139.002182,53.495365 139.001282,52.914780 
	C139.000656,51.889126 139.000946,51.444054 139.001221,50.998985 
z"/>
<path fill="#A6BFC7" opacity="1.000000" stroke="none" 
	d="
M138.666321,50.997711 
	C139.000946,51.444054 139.000656,51.889126 138.998962,52.668022 
	C138.360016,52.550579 137.722488,52.099308 137.038361,51.331131 
	C137.438324,51.008289 137.884872,51.002361 138.666321,50.997711 
z"/>
<path fill="#A6BFC7" opacity="1.000000" stroke="none" 
	d="
M135.109543,50.213692 
	C135.170807,49.992523 135.339203,49.990303 135.753708,50.244377 
	C135.995834,50.670033 135.991837,50.839397 135.987839,51.008762 
	C135.670044,50.898022 135.412994,50.705982 135.109543,50.213692 
z"/>
<path fill="#B1C9CF" opacity="1.000000" stroke="none" 
	d="
M136.242233,51.006325 
	C135.991837,50.839397 135.995834,50.670033 136.006317,50.246574 
	C136.328232,50.101395 136.585251,50.289951 136.894531,50.773273 
	C136.835678,50.993557 136.666153,50.998722 136.242233,51.006325 
z"/>
<path fill="#A0BACE" opacity="1.000000" stroke="none" 
	d="
M165.148407,66.688324 
	C161.198944,66.498955 158.229858,65.300163 159.648697,59.598457 
	C161.804489,60.759899 163.591095,61.722431 165.690979,62.843102 
	C165.766022,64.123528 165.527756,65.245811 165.148407,66.688324 
z"/>
<path fill="#7FA1BB" opacity="1.000000" stroke="none" 
	d="
M171.007324,68.615311 
	C170.493515,69.561523 169.986435,70.123451 168.905060,70.842728 
	C167.884735,70.997147 167.438705,70.994209 166.992676,70.991280 
	C167.857071,68.198143 168.695496,65.395966 169.657379,62.636818 
	C169.709076,62.488567 170.798325,62.702026 171.690857,62.870026 
	C171.656113,64.738976 171.335068,66.485001 171.007324,68.615311 
z"/>
<path fill="#779BB9" opacity="1.000000" stroke="none" 
	d="
M166.656281,70.991348 
	C167.438705,70.994209 167.884735,70.997147 168.665207,71.001450 
	C166.379089,73.627090 165.345459,73.706581 163.783539,71.206818 
	C164.013000,70.992004 164.493866,70.974213 164.733887,70.961708 
	C165.422562,70.963272 165.871231,70.977348 166.656281,70.991348 
z"/>
<path fill="#A6BFC7" opacity="1.000000" stroke="none" 
	d="
M143.334564,53.957424 
	C142.992340,53.242001 142.996902,52.495647 143.001953,51.376015 
	C143.443222,50.999496 143.883987,50.996262 144.655060,50.988495 
	C145.434219,50.989536 145.883072,50.995102 146.668518,51.004036 
	C145.897171,51.980431 144.789261,52.953465 143.334564,53.957424 
z"/>
<path fill="#8FC1F2" opacity="1.000000" stroke="none" 
	d="
M84.435150,113.002220 
	C82.719788,112.334442 81.361275,110.981468 80.153717,111.104935 
	C64.709038,112.684021 51.198708,106.167389 37.307560,101.188446 
	C36.171810,100.781364 34.857529,100.872375 32.984550,100.679153 
	C31.817171,98.314682 31.291447,96.003014 30.782923,93.766975 
	C38.852066,97.296707 45.833424,101.078224 53.264996,103.447716 
	C68.058044,108.164352 83.208481,109.893135 98.607910,106.098305 
	C103.370407,104.924698 108.200233,104.024315 112.999229,102.998840 
	C112.691551,104.408882 112.383873,105.818916 112.017509,107.585709 
	C110.806038,107.694458 109.653252,107.446442 107.873230,107.146172 
	C103.011314,108.089310 98.729050,108.924271 94.565445,110.159256 
	C92.905785,110.651535 91.508369,112.027916 89.991570,113.001831 
	C88.281761,113.002296 86.571960,113.002754 84.435150,113.002220 
z"/>
<path fill="#89BDF1" opacity="1.000000" stroke="none" 
	d="
M90.448334,113.003212 
	C91.508369,112.027916 92.905785,110.651535 94.565445,110.159256 
	C98.729050,108.924271 103.011314,108.089310 107.630165,107.048645 
	C106.844536,112.876045 101.589668,111.855675 97.711159,112.877182 
	C95.579178,113.438698 93.182449,112.995041 90.448334,113.003212 
z"/>
<path fill="#94C5F4" opacity="1.000000" stroke="none" 
	d="
M113.263702,102.804825 
	C108.200233,104.024315 103.370407,104.924698 98.607910,106.098305 
	C83.208481,109.893135 68.058044,108.164352 53.264996,103.447716 
	C45.833424,101.078224 38.852066,97.296707 30.782923,93.766975 
	C31.291447,96.003014 31.817171,98.314682 32.670918,100.813065 
	C32.998837,101.443947 32.998734,101.888123 32.653870,102.700775 
	C31.205786,103.379921 30.102459,103.690567 28.999132,104.001221 
	C26.510359,98.161293 24.021585,92.321365 21.264862,86.237717 
	C21.789915,83.774361 22.582918,81.554718 23.687738,79.167816 
	C23.999557,79.000557 24.000635,79.499130 24.037933,80.100647 
	C27.892134,89.027779 35.563000,92.878197 43.365501,97.042168 
	C51.502506,99.669678 59.132713,102.908897 67.091209,104.630501 
	C73.298622,105.973312 80.092636,106.507713 86.307648,105.478729 
	C96.341034,103.817558 106.112640,100.575249 115.994812,98.000740 
	C115.172600,99.537422 114.350388,101.074112 113.263702,102.804825 
z"/>
<path fill="#97C8F4" opacity="1.000000" stroke="none" 
	d="
M115.996796,97.626114 
	C106.112640,100.575249 96.341034,103.817558 86.307648,105.478729 
	C80.092636,106.507713 73.298622,105.973312 67.091209,104.630501 
	C59.132713,102.908897 51.502506,99.669678 43.365456,96.667236 
	C43.000034,95.500298 43.000019,94.750450 43.000000,94.000610 
	C50.033112,96.339195 56.929436,99.292847 64.126671,100.893456 
	C81.221741,104.695251 97.952324,103.520050 113.777344,95.243355 
	C114.193146,95.025879 114.753326,95.084457 115.624161,95.009293 
	C116.001022,95.753349 115.999901,96.502419 115.996796,97.626114 
z"/>
<path fill="#96C8F5" opacity="1.000000" stroke="none" 
	d="
M42.665558,93.945763 
	C43.000019,94.750450 43.000034,95.500298 43.000103,96.625069 
	C35.563000,92.878197 27.892134,89.027779 24.038385,80.349930 
	C25.441692,80.609734 27.117605,80.933395 28.280760,81.884277 
	C33.049213,85.782509 37.661415,89.871880 42.665558,93.945763 
z"/>
<path fill="#8FC1F2" opacity="1.000000" stroke="none" 
	d="
M29.045403,104.361404 
	C30.102459,103.690567 31.205786,103.379921 32.653564,103.033905 
	C32.600178,104.250801 32.202339,105.503059 31.804502,106.755325 
	C30.900225,106.077415 29.995947,105.399498 29.045403,104.361404 
z"/>
<path fill="#89A8BE" opacity="1.000000" stroke="none" 
	d="
M160.991989,70.013260 
	C160.988892,69.842102 160.992188,69.673019 160.998184,69.250244 
	C161.645508,69.139992 162.290131,69.283447 162.965622,69.716042 
	C162.996490,70.005188 162.498688,70.028961 161.999146,70.026604 
	C161.332367,70.025986 161.165161,70.027718 160.997955,70.029442 
	C160.997955,70.029442 160.998383,70.015320 160.991989,70.013260 
z"/>
<path fill="#779BB9" opacity="1.000000" stroke="none" 
	d="
M161.089920,70.184845 
	C161.165161,70.027718 161.332367,70.025986 161.750092,70.035187 
	C161.727707,70.144165 161.454788,70.242203 161.089920,70.184845 
z"/>
<path fill="#89A8BE" opacity="1.000000" stroke="none" 
	d="
M158.970627,67.678528 
	C158.335464,67.237076 157.671112,66.475677 156.998535,65.363480 
	C157.640671,65.794655 158.291061,66.576622 158.970627,67.678528 
z"/>
<path fill="#F6FDFE" opacity="1.000000" stroke="none" 
	d="
M86.135162,60.996235 
	C84.356796,65.234718 81.563690,67.984856 77.235657,66.831161 
	C74.665291,66.145996 71.754814,64.294212 70.370438,62.100414 
	C67.293030,57.223686 72.094818,51.911724 79.122299,52.007755 
	C84.265320,52.078030 87.318977,55.779072 86.135162,60.996235 
z"/>
<path fill="#CEDDE1" opacity="1.000000" stroke="none" 
	d="
M140.169662,48.805767 
	C139.500809,48.593861 138.991364,48.470448 138.956970,48.266808 
	C138.590652,46.097504 138.299683,43.915474 137.988022,41.736938 
	C139.290100,41.981003 141.173355,41.771469 141.784622,42.554680 
	C143.576294,44.850342 144.200882,47.401947 140.169662,48.805767 
z"/>
</svg>