<svg version="1.1" id="Layer_1" xmlns="http://www.w3.org/2000/svg" xmlns:xlink="http://www.w3.org/1999/xlink" x="0px" y="0px"
	 width="100%" viewBox="0 0 186 144" enable-background="new 0 0 186 144" xml:space="preserve">
<path fill="#F8FAFE" opacity="1.000000" stroke="none" 
	d="
M81.000000,1.000000 
	C116.258865,1.000000 151.517731,1.000000 187.000000,1.000000 
	C187.000000,34.687233 187.000000,68.374954 186.625031,102.488274 
	C182.584854,102.176559 179.805054,100.527473 177.453293,97.277534 
	C175.756226,94.932312 172.334579,93.879005 169.815231,92.064667 
	C168.701752,91.262794 167.917892,90.003242 167.166779,88.748764 
	C167.876846,88.422829 168.404541,88.299599 169.116943,88.355835 
	C169.809647,88.296799 170.317673,88.058289 171.096588,87.698502 
	C172.108047,87.307632 172.848602,87.038048 173.899384,86.946533 
	C176.773422,90.194183 178.725800,87.021233 180.049057,85.941879 
	C181.400635,84.839432 181.545380,82.257423 182.218445,80.323135 
	C181.751007,80.197006 181.283569,80.070877 180.891998,79.561119 
	C181.545197,77.458733 182.559891,75.752823 182.610840,74.018593 
	C182.724869,70.138420 184.628784,65.706703 180.046051,62.553989 
	C180.009583,61.839306 179.984238,61.430889 179.947067,60.673882 
	C177.573669,56.606915 174.953369,53.244099 169.607941,53.053310 
	C168.180099,52.980999 167.140366,52.948383 165.929779,52.594746 
	C165.453873,50.864616 165.148804,49.455509 164.856766,47.725121 
	C164.564041,46.609695 164.258301,45.815556 163.933624,44.666187 
	C161.943970,41.861385 159.973236,39.411812 157.897522,36.750980 
	C157.599350,36.276367 157.347565,36.093887 156.892090,35.706177 
	C155.480865,34.294571 154.214691,33.169064 152.633545,31.869228 
	C149.536896,30.839464 146.755234,29.984028 143.643341,29.093958 
	C142.870422,29.053589 142.427734,29.047853 141.849701,28.760872 
	C140.148621,28.337097 138.582870,28.194567 136.751556,27.760517 
	C127.626625,26.109739 123.113129,28.982412 122.996628,36.282574 
	C122.976425,36.523544 122.870605,36.995464 122.508545,37.003330 
	C117.880913,37.446926 117.935257,41.088772 116.619240,44.056713 
	C115.511429,46.469070 114.760155,48.802898 113.784019,51.203850 
	C113.559158,51.270969 113.101624,51.375538 112.968788,51.011700 
	C112.605309,49.864834 112.120857,49.060913 112.183319,48.302010 
	C112.801971,40.785950 109.644516,35.351604 102.360420,33.424900 
	C98.256180,32.339291 97.237984,30.168354 96.921471,26.474514 
	C96.514442,21.724388 93.651230,18.528423 89.120743,17.240520 
	C81.031769,14.941029 81.000336,15.051576 81.000015,6.471229 
	C80.999947,4.647486 81.000000,2.823743 81.000000,1.000000 
z"/>
<path fill="#F1F5FE" opacity="1.000000" stroke="none" 
	d="
M94.000000,145.000000 
	C63.068634,145.000000 32.137264,145.000000 1.000000,145.000000 
	C1.000000,110.312714 1.000000,75.625015 1.385921,40.469284 
	C8.817444,39.909588 7.123727,48.079163 11.780548,49.848167 
	C10.624918,51.915146 9.749763,53.480461 8.874609,55.045776 
	C9.273090,55.385525 9.671572,55.725269 10.070053,56.065018 
	C14.737592,50.674446 24.960745,52.626350 26.330750,42.788967 
	C26.377089,42.456230 27.437550,42.264725 27.980742,42.384781 
	C27.277626,45.497330 26.619078,48.232491 25.860216,51.216484 
	C25.493845,51.928753 25.227789,52.392185 24.642784,52.897278 
	C23.898991,52.992264 23.474144,53.045589 22.754356,53.067856 
	C21.969421,53.295383 21.479427,53.553970 20.616474,53.857258 
	C17.472721,55.916790 14.701927,57.931622 11.669380,60.160408 
	C10.638854,62.254307 9.870080,64.134247 9.022609,66.386070 
	C7.679670,74.459183 9.722187,81.135124 16.226654,85.561089 
	C22.151134,89.592415 29.137644,89.288658 36.390926,88.667740 
	C37.857834,88.705139 38.931816,88.634659 40.445816,88.682388 
	C43.320393,88.838310 45.754959,88.876038 48.159447,89.161095 
	C48.129368,89.408424 48.213612,89.899567 48.150700,90.170853 
	C48.069145,90.626846 48.050499,90.811554 47.781410,91.164955 
	C47.347309,91.893829 47.163651,92.454018 46.934437,93.190826 
	C46.888882,93.367455 46.885513,93.732246 46.607655,94.017029 
	C40.782700,108.188965 50.885414,123.764038 65.748253,124.066002 
	C77.166092,124.297966 88.588364,124.311623 99.892624,124.756378 
	C99.544533,125.316994 99.321281,125.730759 99.079124,125.742142 
	C95.378830,125.916054 91.667343,125.924065 87.976715,126.207954 
	C85.169136,126.423920 81.331779,124.120216 80.094414,128.787476 
	C79.073555,132.638107 81.637146,136.229568 85.573097,137.011322 
	C90.042473,137.899048 93.946152,139.432220 94.000000,145.000000 
z"/>
<path fill="#F6F7FF" opacity="1.000000" stroke="none" 
	d="
M28.025309,42.007389 
	C27.437550,42.264725 26.377089,42.456230 26.330750,42.788967 
	C24.960745,52.626350 14.737592,50.674446 10.070053,56.065018 
	C9.671572,55.725269 9.273090,55.385525 8.874609,55.045776 
	C9.749763,53.480461 10.624918,51.915146 11.780548,49.848167 
	C7.123727,48.079163 8.817444,39.909588 1.385921,40.000626 
	C1.000000,27.047976 1.000000,14.095952 1.000000,1.000000 
	C27.354069,1.000000 53.708374,1.000000 80.531342,1.000000 
	C81.000000,2.823743 80.999947,4.647486 81.000015,6.471229 
	C81.000336,15.051576 81.031769,14.941029 89.120743,17.240520 
	C93.651230,18.528423 96.514442,21.724388 96.921471,26.474514 
	C97.237984,30.168354 98.256180,32.339291 102.360420,33.424900 
	C109.644516,35.351604 112.801971,40.785950 112.183319,48.302010 
	C112.120857,49.060913 112.605309,49.864834 112.738129,51.210953 
	C111.475792,52.215702 110.311272,52.657360 108.716705,53.063534 
	C105.856674,52.690224 103.426689,52.352402 100.546890,52.007217 
	C97.393959,52.014168 94.690849,52.028481 91.576035,52.040264 
	C88.094559,52.380333 85.024796,52.722935 81.568817,53.041191 
	C80.151268,52.984623 79.119934,52.952393 78.004639,52.582581 
	C75.939667,48.505211 73.958649,44.765419 71.953522,40.669590 
	C69.954063,38.208870 67.978706,36.104183 65.837601,33.698071 
	C61.299667,30.240479 56.805801,27.485165 50.589088,28.948311 
	C39.934765,28.491005 32.715561,33.107685 28.025309,42.007389 
z"/>
<path fill="#F6F7FF" opacity="1.000000" stroke="none" 
	d="
M94.468658,145.000000 
	C93.946152,139.432220 90.042473,137.899048 85.573097,137.011322 
	C81.637146,136.229568 79.073555,132.638107 80.094414,128.787476 
	C81.331779,124.120216 85.169136,126.423920 87.976715,126.207954 
	C91.667343,125.924065 95.378830,125.916054 99.079124,125.742142 
	C99.321281,125.730759 99.544533,125.316994 100.344742,124.646385 
	C104.613869,124.275787 108.314812,124.349190 112.150894,124.766769 
	C117.262299,126.102119 122.260201,127.466301 127.360786,124.181473 
	C128.477737,124.053513 129.226913,124.002380 130.180420,124.213554 
	C131.261826,123.742920 132.138901,123.009979 133.275864,122.214890 
	C133.708191,122.108116 133.880646,122.063484 134.461761,122.013824 
	C139.635193,122.786697 141.302139,119.939842 142.096390,115.653641 
	C142.276001,114.139633 142.337814,112.905998 142.402832,111.512558 
	C142.406052,111.352745 142.291519,111.054268 142.447113,110.887672 
	C143.016129,110.532104 143.429535,110.343132 144.115768,110.071915 
	C144.570251,109.671089 144.751907,109.352493 144.973694,108.659073 
	C145.046524,107.531197 145.079254,106.778160 145.396622,105.753235 
	C145.771088,103.327919 145.860916,101.174492 145.975876,98.669449 
	C145.676361,97.207397 145.351730,96.096977 145.010315,94.598495 
	C144.659164,92.431747 144.324814,90.653061 144.459213,88.876274 
	C152.280106,88.902603 159.632263,88.927032 166.984406,88.951462 
	C167.917892,90.003242 168.701752,91.262794 169.815231,92.064667 
	C172.334579,93.879005 175.756226,94.932312 177.453293,97.277534 
	C179.805054,100.527473 182.584854,102.176559 186.625031,102.956932 
	C187.000000,116.954483 187.000000,130.908966 187.000000,145.000000 
	C156.312561,145.000000 125.624939,145.000000 94.468658,145.000000 
z"/>
<path fill="#8FCAF7" opacity="1.000000" stroke="none" 
	d="
M109.146759,53.099014 
	C110.311272,52.657360 111.475792,52.215702 112.870964,51.574791 
	C113.101624,51.375538 113.559158,51.270969 114.116211,51.167637 
	C115.418365,50.032059 116.163467,48.999809 117.182007,47.979858 
	C117.637268,47.995865 117.819092,47.999577 117.995316,48.367317 
	C116.869102,51.556965 118.023293,53.399654 119.966240,55.642551 
	C126.660065,63.369808 135.293350,67.048492 145.077072,67.878273 
	C152.335938,68.493912 159.688934,67.999596 167.249084,68.001549 
	C167.498169,68.003403 167.996338,68.007019 167.997131,68.340073 
	C167.999008,69.117348 168.000107,69.561569 167.717255,70.292725 
	C165.140305,70.817947 162.836945,70.982979 160.556122,71.306831 
	C148.683990,72.992554 137.176224,72.422829 126.399895,66.348236 
	C125.651016,65.926094 124.106758,66.914948 122.611229,67.165649 
	C121.208656,66.029556 120.127228,64.975464 118.950653,63.711357 
	C118.684677,63.232582 118.452011,63.037598 118.091370,62.607239 
	C117.338898,61.559265 116.652557,60.820450 115.825653,59.794468 
	C114.803169,58.980602 113.921249,58.453899 112.883224,57.633804 
	C111.533653,55.926613 110.340210,54.512814 109.146759,53.099014 
z"/>
<path fill="#BBEAFC" opacity="1.000000" stroke="none" 
	d="
M163.952560,45.021416 
	C164.258301,45.815556 164.564041,46.609695 164.521423,47.754440 
	C160.448914,50.737877 156.724747,53.370705 152.556488,56.003113 
	C149.743027,55.995293 147.373642,55.987888 144.952026,55.642025 
	C143.530365,54.166294 142.219849,52.947552 140.780411,51.907150 
	C136.619202,48.899483 134.034927,43.050011 135.090164,38.563931 
	C136.247025,33.645859 139.947983,32.469048 144.683426,32.810219 
	C144.395569,31.317257 144.184570,30.222925 143.973572,29.128593 
	C146.755234,29.984028 149.536896,30.839464 152.389740,32.138474 
	C148.972305,34.053173 145.483719,35.524300 141.873352,37.260681 
	C141.165268,38.014736 140.578979,38.503536 139.622772,39.071060 
	C137.084473,43.498985 137.796356,45.797794 142.212814,48.114952 
	C142.701843,48.424305 142.890244,48.684055 143.055084,49.360062 
	C148.140564,54.550495 153.276840,54.001537 157.741333,48.706871 
	C159.207092,46.968548 161.848679,46.221672 163.952560,45.021416 
z"/>
<path fill="#A3DCFB" opacity="1.000000" stroke="none" 
	d="
M122.870605,36.995468 
	C122.870605,36.995464 122.976425,36.523544 123.311768,36.214211 
	C124.765236,34.940380 125.883369,33.975883 127.000900,33.471916 
	C125.954826,49.105190 129.533585,51.883945 141.402435,56.997757 
	C142.868103,56.998966 143.934052,56.999943 145.093353,57.396004 
	C146.672821,58.194061 148.149521,58.897598 149.646805,58.944496 
	C154.426697,59.094204 159.214203,59.000095 163.999359,59.375000 
	C164.000381,60.499546 164.000809,61.249241 163.622864,61.957352 
	C154.496857,61.276714 145.749176,60.637661 136.958160,59.679024 
	C136.276627,58.906242 135.638412,58.453045 135.000107,57.999924 
	C135.000000,58.000000 135.000000,57.999695 134.855774,57.703636 
	C133.474350,56.605053 132.237167,55.802528 130.669556,54.967033 
	C129.226593,53.955482 128.114059,52.976902 127.000725,51.616966 
	C125.667221,49.489693 124.334526,47.743778 123.001526,45.575150 
	C122.619843,43.066376 122.238464,40.980312 121.983551,38.652039 
	C122.363541,37.938374 122.617073,37.466919 122.870605,36.995468 
z"/>
<path fill="#ADE4FC" opacity="1.000000" stroke="none" 
	d="
M145.000000,57.000916 
	C143.934052,56.999943 142.868103,56.998966 141.362549,56.648407 
	C139.588928,55.182667 138.355743,53.909260 136.903183,52.978054 
	C131.141815,49.284584 128.969574,44.870285 130.117371,38.466034 
	C130.578247,35.894543 131.323303,33.373985 132.170563,30.576693 
	C133.933655,29.881001 135.465195,29.438860 137.227325,29.263290 
	C138.966965,29.367283 140.475998,29.204700 141.985031,29.042118 
	C142.427734,29.047853 142.870422,29.053589 143.643341,29.093960 
	C144.184570,30.222925 144.395569,31.317257 144.683426,32.810219 
	C139.947983,32.469048 136.247025,33.645859 135.090164,38.563931 
	C134.034927,43.050011 136.619202,48.899483 140.780411,51.907150 
	C142.219849,52.947552 143.530365,54.166294 144.950409,55.897255 
	C145.000671,56.660934 145.000336,56.830925 145.000000,57.000916 
z"/>
<path fill="#A6DFFC" opacity="1.000000" stroke="none" 
	d="
M145.093353,57.396004 
	C145.000336,56.830925 145.000671,56.660934 145.002655,56.235710 
	C147.373642,55.987888 149.743027,55.995293 152.812469,56.280235 
	C157.708572,55.343769 161.904602,54.129768 166.100632,52.915768 
	C167.140366,52.948383 168.180099,52.980999 169.636749,53.360680 
	C170.370117,54.470379 170.686584,55.233006 171.001923,56.396233 
	C171.000931,57.864697 171.001068,58.932564 170.689056,59.844223 
	C168.250854,59.458721 166.124817,59.229431 163.998779,59.000141 
	C159.214203,59.000095 154.426697,59.094204 149.646805,58.944496 
	C148.149521,58.897598 146.672821,58.194061 145.093353,57.396004 
z"/>
<path fill="#CCF0FD" opacity="1.000000" stroke="none" 
	d="
M163.933624,44.666187 
	C161.848679,46.221672 159.207092,46.968548 157.741333,48.706871 
	C153.276840,54.001537 148.140564,54.550495 143.306442,49.357758 
	C143.665970,48.999149 143.833511,48.998936 144.250671,48.999104 
	C144.500275,48.999489 145.000031,48.999962 145.169693,49.315830 
	C147.226425,49.753262 149.113510,49.874825 151.340393,49.961128 
	C153.121780,48.285362 154.563324,46.644855 156.388336,44.917709 
	C157.182022,42.208126 157.592255,39.585178 158.002502,36.962234 
	C159.973236,39.411812 161.943970,41.861385 163.933624,44.666187 
z"/>
<path fill="#71AADF" opacity="1.000000" stroke="none" 
	d="
M167.166779,88.748764 
	C159.632263,88.927032 152.280106,88.902603 144.243164,88.649635 
	C142.401154,87.612953 141.243912,86.804810 140.512589,85.999374 
	C147.481781,86.333237 154.032028,87.009201 160.565964,86.877235 
	C165.104416,86.785583 169.267471,82.939117 174.140259,85.459824 
	C173.925644,86.084267 173.757401,86.426369 173.589157,86.768463 
	C172.848602,87.038048 172.108047,87.307632 170.775330,87.718201 
	C169.766190,87.964912 169.349228,88.070641 168.932251,88.176361 
	C168.404541,88.299599 167.876846,88.422829 167.166779,88.748764 
z"/>
<path fill="#ADE4FC" opacity="1.000000" stroke="none" 
	d="
M165.929779,52.594746 
	C161.904602,54.129768 157.708572,55.343769 153.256561,56.280647 
	C156.724747,53.370705 160.448914,50.737877 164.508392,48.075726 
	C165.148804,49.455509 165.453873,50.864616 165.929779,52.594746 
z"/>
<path fill="#F3F9FE" opacity="1.000000" stroke="none" 
	d="
M136.996735,28.996719 
	C135.465195,29.438860 133.933655,29.881001 131.837952,30.612072 
	C130.505356,31.256445 129.736923,31.611887 128.741791,32.070518 
	C128.230103,32.362175 128.013611,32.610382 127.647636,32.923759 
	C127.429695,32.929188 127.001503,33.011383 127.001503,33.011383 
	C125.883369,33.975883 124.765236,34.940380 123.331970,35.973244 
	C123.113129,28.982412 127.626625,26.109739 136.746735,27.996416 
	C137.007477,28.523836 136.996735,28.996721 136.996735,28.996719 
z"/>
<path fill="#97C6ED" opacity="1.000000" stroke="none" 
	d="
M180.057190,62.860260 
	C184.628784,65.706703 182.724869,70.138420 182.610840,74.018593 
	C182.559891,75.752823 181.545197,77.458733 180.634888,79.745163 
	C178.929153,81.592705 177.556412,82.872566 176.166779,83.787994 
	C177.124741,81.283630 178.099625,79.143707 179.357178,76.765793 
	C180.796661,73.579102 183.017349,70.551567 179.049225,67.614830 
	C179.413467,65.782677 179.735321,64.321465 180.057190,62.860260 
z"/>
<path fill="#8FCAF7" opacity="1.000000" stroke="none" 
	d="
M180.046051,62.553989 
	C179.735321,64.321465 179.413467,65.782677 179.026398,67.914200 
	C178.641205,69.056648 178.321213,69.528778 177.629608,70.042068 
	C175.503983,71.053055 173.749985,72.022881 171.997681,72.996048 
	C171.999390,72.999390 171.998734,72.998474 171.666687,72.997208 
	C170.892014,72.994743 170.449356,72.993561 170.005280,72.619247 
	C170.000504,71.499870 169.997177,70.753616 170.356323,70.000275 
	C172.478378,68.995354 174.237976,67.997520 176.031372,66.654961 
	C176.374588,65.207458 176.683975,64.104691 177.239685,62.831154 
	C177.657867,62.099030 177.829697,61.537670 178.327957,60.982155 
	C179.089233,60.999493 179.524063,61.010983 179.958893,61.022476 
	C179.984238,61.430889 180.009583,61.839306 180.046051,62.553989 
z"/>
<path fill="#CCF0FD" opacity="1.000000" stroke="none" 
	d="
M141.995117,36.995422 
	C145.483719,35.524300 148.972305,34.053173 152.704712,32.312805 
	C154.214691,33.169064 155.480865,34.294571 156.591141,35.831673 
	C155.620163,36.499229 154.805054,36.755188 153.628494,36.850578 
	C150.512924,36.794964 147.758820,36.899921 144.628571,37.003227 
	C143.500000,36.999523 142.747559,36.997475 141.995117,36.995422 
z"/>
<path fill="#F6F7FF" opacity="1.000000" stroke="none" 
	d="
M176.183685,84.152428 
	C177.556412,82.872566 178.929153,81.592705 180.559021,80.128799 
	C181.283569,80.070877 181.751007,80.197006 182.218445,80.323135 
	C181.545380,82.257423 181.400635,84.839432 180.049057,85.941879 
	C178.725800,87.021233 176.773422,90.194183 173.899384,86.946541 
	C173.757401,86.426369 173.925644,86.084267 174.114792,85.419388 
	C174.135696,85.096611 174.042236,85.111069 174.352417,85.133759 
	C175.132095,84.787270 175.601593,84.418098 176.085480,84.089767 
	C176.099869,84.130615 176.183685,84.152428 176.183685,84.152428 
z"/>
<path fill="#ABD8F3" opacity="1.000000" stroke="none" 
	d="
M179.947067,60.673882 
	C179.524063,61.010983 179.089233,60.999493 178.183289,60.688393 
	C176.474976,59.590237 175.237793,58.791691 173.830322,57.741600 
	C172.774368,56.991917 171.888702,56.493774 171.003052,55.995632 
	C170.686584,55.233006 170.370117,54.470379 170.024841,53.400375 
	C174.953369,53.244099 177.573669,56.606915 179.947067,60.673882 
z"/>
<path fill="#D9F6FE" opacity="1.000000" stroke="none" 
	d="
M153.989960,37.011147 
	C154.805054,36.755188 155.620163,36.499229 156.736206,36.117771 
	C157.347565,36.093887 157.599350,36.276367 157.897522,36.750977 
	C157.592255,39.585178 157.182022,42.208126 156.386292,44.518578 
	C155.330521,41.807770 154.660248,39.409458 153.989960,37.011147 
z"/>
<path fill="#F6F7FF" opacity="1.000000" stroke="none" 
	d="
M122.508545,37.003334 
	C122.617073,37.466919 122.363541,37.938374 121.703987,38.823387 
	C120.516808,40.776142 119.735649,42.315342 118.646729,43.902119 
	C117.928001,44.000607 117.517044,44.051514 117.073639,44.071217 
	C117.041199,44.040012 116.975777,43.978184 116.975777,43.978184 
	C117.935257,41.088772 117.880913,37.446926 122.508545,37.003334 
z"/>
<path fill="#F6F7FF" opacity="1.000000" stroke="none" 
	d="
M116.908577,47.967567 
	C116.163467,48.999809 115.418365,50.032059 114.341064,51.100517 
	C114.760155,48.802898 115.511429,46.469070 116.619240,44.056713 
	C116.975777,43.978184 117.041199,44.040012 117.065086,44.383995 
	C117.091743,45.147152 117.094513,45.566322 117.033226,46.312355 
	C116.948975,47.082005 116.928780,47.524784 116.908577,47.967567 
z"/>
<path fill="#BBEAFC" opacity="1.000000" stroke="none" 
	d="
M137.227325,29.263294 
	C136.996735,28.996721 137.007477,28.523836 137.012299,28.287937 
	C138.582870,28.194567 140.148621,28.337097 141.849701,28.760872 
	C140.475998,29.204700 138.966965,29.367283 137.227325,29.263294 
z"/>
<path fill="#B3DBF9" opacity="1.000000" stroke="none" 
	d="
M169.116943,88.355835 
	C169.349228,88.070641 169.766190,87.964912 170.504425,87.839493 
	C170.317673,88.058289 169.809647,88.296799 169.116943,88.355835 
z"/>
<path fill="#8CBDED" opacity="1.000000" stroke="none" 
	d="
M112.015762,124.422592 
	C108.314812,124.349190 104.613869,124.275787 100.460793,124.312370 
	C88.588364,124.311623 77.166092,124.297966 65.748253,124.066002 
	C50.885414,123.764038 40.782700,108.188965 46.674980,94.398758 
	C49.681141,100.662888 52.342117,106.830063 55.044205,113.370407 
	C56.309574,114.821098 58.149776,117.046577 58.651440,116.777412 
	C60.820045,115.613815 62.597019,113.720337 64.937599,111.735260 
	C64.502571,111.546165 64.946777,111.715691 65.370216,111.926857 
	C71.029541,114.749023 76.492035,117.937111 83.284782,117.455605 
	C85.175323,117.321594 87.182472,119.020805 89.156937,119.828125 
	C91.012733,120.586899 92.892952,121.892799 94.767670,121.902100 
	C109.321358,121.974335 124.014473,123.327293 137.961319,118.391663 
	C136.560379,119.793602 135.306732,120.906227 134.053085,122.018860 
	C133.880646,122.063484 133.708191,122.108116 132.978058,122.233383 
	C131.605606,122.859772 130.790863,123.405518 129.976105,123.951263 
	C129.226913,124.002380 128.477737,124.053513 126.899971,124.112595 
	C121.386185,124.221237 116.700974,124.321915 112.015762,124.422592 
z"/>
<path fill="#77B6F3" opacity="1.000000" stroke="none" 
	d="
M9.101305,66.014183 
	C9.870080,64.134247 10.638854,62.254307 12.043684,60.185524 
	C15.472962,61.851894 18.789696,63.238655 20.953667,65.656952 
	C25.913336,71.199516 32.157269,74.178162 39.032375,76.126518 
	C45.313976,77.906677 51.680191,79.388290 57.834572,81.256058 
	C56.770905,82.336197 55.881779,83.161743 54.665173,84.024536 
	C53.223667,85.039215 52.109638,86.016655 50.744713,86.992233 
	C50.326542,86.989937 50.159267,86.989494 49.919952,86.622559 
	C48.233055,85.837875 46.618206,85.419701 44.924557,84.629173 
	C40.627098,82.678345 36.199299,81.501053 32.235085,79.434479 
	C24.897039,75.609131 25.010019,75.392403 19.475195,81.247223 
	C18.254641,79.448334 17.058697,77.822952 16.008293,76.108406 
	C13.962193,72.768600 11.997626,69.378838 9.774786,66.009186 
	C9.550281,66.008614 9.101304,66.014183 9.101305,66.014183 
z"/>
<path fill="#81BFF5" opacity="1.000000" stroke="none" 
	d="
M58.009113,81.001472 
	C51.680191,79.388290 45.313976,77.906677 39.032375,76.126518 
	C32.157269,74.178162 25.913336,71.199516 20.953667,65.656952 
	C18.789696,63.238655 15.472962,61.851894 12.305437,59.971565 
	C14.701927,57.931622 17.472721,55.916790 20.513863,54.178253 
	C20.671446,55.088673 20.228676,55.991089 20.494186,56.317677 
	C27.105795,64.450119 34.992161,70.910225 45.549919,72.839767 
	C52.274292,74.068703 59.178669,74.312737 66.006485,75.375214 
	C66.018135,76.505600 66.025642,77.259155 65.766441,78.183189 
	C64.669312,78.917427 63.838894,79.481194 62.662659,80.064972 
	C61.213688,80.400879 60.110535,80.716774 58.757858,81.023438 
	C58.508339,81.014191 58.009113,81.001472 58.009113,81.001472 
z"/>
<path fill="#98C8F4" opacity="1.000000" stroke="none" 
	d="
M49.991997,86.989059 
	C50.159267,86.989494 50.326542,86.989937 50.940720,87.263672 
	C52.179161,88.124207 53.141884,88.574867 53.736000,89.319595 
	C60.361298,97.624397 68.999626,103.236984 78.656487,107.150040 
	C82.807755,108.832184 87.534607,109.093880 92.333038,110.001114 
	C93.110252,110.001778 93.554367,110.002243 94.083282,110.383621 
	C95.150337,111.175446 96.120522,111.905762 97.116890,111.943420 
	C102.133156,112.132996 107.163498,111.996536 112.175316,112.246712 
	C120.623833,112.668434 128.773895,111.980438 136.335266,106.991257 
	C137.108017,106.992142 137.549591,106.992416 138.384094,106.948029 
	C140.888672,106.610611 143.000320,106.317863 145.111984,106.025116 
	C145.079254,106.778160 145.046524,107.531197 144.744965,108.791451 
	C144.265091,109.583832 144.054016,109.868996 143.842957,110.154160 
	C143.429535,110.343132 143.016129,110.532104 142.079346,110.754562 
	C136.370728,112.192390 131.185471,113.596725 125.625336,115.000961 
	C124.500755,115.001282 123.751045,115.001709 122.533340,115.001190 
	C112.376251,115.001076 102.687164,115.001915 92.569809,115.002335 
	C90.428101,115.000824 88.714661,114.999710 86.938568,114.644928 
	C85.476562,113.542427 84.063057,112.818764 82.680206,112.040627 
	C74.950546,107.691139 67.132446,103.487137 59.544361,98.902725 
	C55.805183,96.643677 52.495884,93.673073 48.752014,91.017426 
	C48.511963,91.010406 48.031857,90.996269 48.031857,90.996269 
	C48.050499,90.811554 48.069145,90.626846 48.323330,90.058365 
	C48.770630,89.473076 48.895988,89.227386 49.177444,88.773560 
	C49.610622,88.069420 49.801308,87.529236 49.991997,86.989059 
z"/>
<path fill="#93C4F3" opacity="1.000000" stroke="none" 
	d="
M48.992065,91.024452 
	C52.495884,93.673073 55.805183,96.643677 59.544361,98.902725 
	C67.132446,103.487137 74.950546,107.691139 82.680206,112.040627 
	C84.063057,112.818764 85.476562,113.542427 86.507149,114.645599 
	C76.587349,115.533836 70.071465,108.364525 61.162441,105.019310 
	C60.541615,108.038528 59.974323,110.797401 59.349644,113.835365 
	C57.826241,113.541618 56.414669,113.269432 55.003094,112.997253 
	C52.342117,106.830063 49.681141,100.662888 46.952839,94.113976 
	C46.885513,93.732246 46.888882,93.367455 47.254639,93.145073 
	C48.077621,92.289948 48.534843,91.657196 48.992065,91.024452 
z"/>
<path fill="#6CAEF1" opacity="1.000000" stroke="none" 
	d="
M9.999290,66.009766 
	C11.997626,69.378838 13.962193,72.768600 16.008293,76.108406 
	C17.058697,77.822952 18.254641,79.448334 19.475195,81.247223 
	C25.010019,75.392403 24.897039,75.609131 32.235085,79.434479 
	C36.199299,81.501053 40.627098,82.678345 44.555672,84.635254 
	C42.845657,86.197182 41.425732,87.380684 40.005806,88.564186 
	C38.931816,88.634659 37.857834,88.705139 36.371925,88.321243 
	C35.155628,87.341812 34.192795,86.216034 33.570251,86.380257 
	C20.787214,89.752312 9.079755,80.299301 9.999290,66.009766 
z"/>
<path fill="#89C7F6" opacity="1.000000" stroke="none" 
	d="
M66.002335,74.998390 
	C59.178669,74.312737 52.274292,74.068703 45.549919,72.839767 
	C34.992161,70.910225 27.105795,64.450119 20.494186,56.317677 
	C20.228676,55.991089 20.671446,55.088673 20.886822,54.133553 
	C21.479427,53.553970 21.969421,53.295383 22.923035,53.290756 
	C23.918335,53.693035 24.450020,53.841358 25.179924,54.260303 
	C36.243904,67.653175 50.963875,71.028801 67.018692,71.351776 
	C66.672707,72.800804 66.337524,73.899597 66.002335,74.998390 
z"/>
<path fill="#92CEF8" opacity="1.000000" stroke="none" 
	d="
M67.029480,71.001549 
	C50.963875,71.028801 36.243904,67.653175 25.178291,53.976799 
	C24.972872,53.233650 24.967302,53.044632 24.961735,52.855618 
	C25.227789,52.392185 25.493845,51.928753 26.121834,51.321396 
	C26.978670,51.440788 27.473576,51.704113 28.337528,51.985641 
	C31.368721,54.282227 33.827930,56.868912 36.731674,58.780262 
	C44.923679,64.172562 53.944080,67.058044 63.857250,67.092941 
	C65.248672,67.097839 66.635712,68.346710 68.000031,69.313828 
	C67.660019,70.072441 67.344749,70.536995 67.029480,71.001549 
z"/>
<path fill="#71AAE4" opacity="1.000000" stroke="none" 
	d="
M9.774786,66.009186 
	C9.079755,80.299301 20.787214,89.752312 33.570251,86.380257 
	C34.192795,86.216034 35.155628,87.341812 35.979004,88.213379 
	C29.137644,89.288658 22.151134,89.592415 16.226654,85.561089 
	C9.722187,81.135124 7.679670,74.459183 9.022608,66.386070 
	C9.101304,66.014183 9.550281,66.008614 9.774786,66.009186 
z"/>
<path fill="#B0D9F0" opacity="1.000000" stroke="none" 
	d="
M27.968483,51.967438 
	C27.473576,51.704113 26.978670,51.440788 26.222145,51.072556 
	C26.619078,48.232491 27.277626,45.497330 27.980742,42.384781 
	C32.715561,33.107685 39.934765,28.491005 50.579117,29.211254 
	C51.006397,29.652609 51.002499,29.827612 50.605125,30.050489 
	C44.976513,31.368814 39.135303,31.388903 35.649040,37.028667 
	C33.527618,39.702644 31.755379,42.335762 29.654602,45.157623 
	C28.873537,47.553391 28.421011,49.760414 27.968483,51.967438 
z"/>
<path fill="#71AAE4" opacity="1.000000" stroke="none" 
	d="
M40.445816,88.682388 
	C41.425732,87.380684 42.845657,86.197182 44.634472,85.007599 
	C46.618206,85.419701 48.233055,85.837875 49.919952,86.622559 
	C49.801308,87.529236 49.610622,88.069420 48.991554,88.765060 
	C48.563179,88.920517 48.189522,88.913765 48.189522,88.913765 
	C45.754959,88.876038 43.320393,88.838310 40.445816,88.682388 
z"/>
<path fill="#8CBDED" opacity="1.000000" stroke="none" 
	d="
M48.752014,91.017426 
	C48.534843,91.657196 48.077621,92.289948 47.300194,92.968445 
	C47.163651,92.454018 47.347309,91.893829 47.781410,91.164955 
	C48.031857,90.996269 48.511963,91.010406 48.752014,91.017426 
z"/>
<path fill="#81BFF5" opacity="1.000000" stroke="none" 
	d="
M24.642784,52.897278 
	C24.967302,53.044632 24.972872,53.233650 24.980072,53.706169 
	C24.450020,53.841358 23.918335,53.693035 23.217976,53.321815 
	C23.474144,53.045589 23.898991,52.992264 24.642784,52.897278 
z"/>
<path fill="#8CBDED" opacity="1.000000" stroke="none" 
	d="
M48.159447,89.161095 
	C48.189522,88.913765 48.563179,88.920517 48.749069,88.929024 
	C48.895988,89.227386 48.770630,89.473076 48.386242,89.787079 
	C48.213612,89.899567 48.129368,89.408424 48.159447,89.161095 
z"/>
<path fill="#A8E0FC" opacity="1.000000" stroke="none" 
	d="
M35.998219,36.987808 
	C39.135303,31.388903 44.976513,31.368814 50.568958,30.398239 
	C50.038021,31.613043 49.191467,32.573357 48.253822,33.434490 
	C45.302189,36.145264 43.195988,39.285625 44.113594,43.472496 
	C45.845196,51.373432 59.221458,58.400944 66.314896,54.440159 
	C70.425522,52.144901 74.008575,52.185680 78.088600,52.920158 
	C79.119934,52.952393 80.151268,52.984623 81.581696,53.360855 
	C81.992523,54.132740 82.004257,54.560627 81.720840,55.132362 
	C79.949905,56.516560 78.474113,57.756912 76.649841,59.036308 
	C74.542511,60.721012 72.783653,62.366665 71.016830,63.759109 
	C71.004532,63.337063 71.000198,63.168224 70.934425,62.635704 
	C69.019989,61.636650 66.988251,60.161533 65.344933,60.511311 
	C58.235245,62.024632 51.453644,60.604294 45.945824,56.701176 
	C39.539665,52.161453 32.222763,47.094738 35.998219,36.987808 
z"/>
<path fill="#C1ECFC" opacity="1.000000" stroke="none" 
	d="
M78.004639,52.582584 
	C74.008575,52.185680 70.425522,52.144901 66.314896,54.440159 
	C59.221458,58.400944 45.845196,51.373432 44.113594,43.472496 
	C43.195988,39.285625 45.302189,36.145264 48.253822,33.434490 
	C49.191467,32.573357 50.038021,31.613043 50.962425,30.350363 
	C51.002499,29.827612 51.006397,29.652609 51.020275,29.214666 
	C56.805801,27.485165 61.299667,30.240479 65.759186,34.065948 
	C64.538818,35.096146 63.250290,35.633591 61.919079,35.778233 
	C59.695377,36.019863 57.388474,35.732601 55.217533,36.169514 
	C51.652802,36.886940 49.702721,39.387150 50.103367,42.987198 
	C50.470055,46.282127 51.893829,49.104469 56.245590,49.002304 
	C56.488403,49.008415 56.973930,49.024338 57.051392,49.385040 
	C61.481766,52.849762 63.883747,49.490658 66.465492,46.883488 
	C68.351440,44.978962 70.143639,42.981602 71.977631,41.025623 
	C73.958649,44.765419 75.939667,48.505211 78.004639,52.582584 
z"/>
<path fill="#C9EBFD" opacity="1.000000" stroke="none" 
	d="
M82.015984,54.988514 
	C82.004257,54.560627 81.992523,54.132740 81.967911,53.385193 
	C85.024796,52.722935 88.094559,52.380333 91.580162,52.438030 
	C91.226250,54.866703 90.423759,56.883389 89.694534,58.926235 
	C88.639717,61.881229 85.423088,64.687096 88.998001,68.334961 
	C88.998688,69.111977 88.999252,69.555992 88.737831,70.217316 
	C90.506836,73.712730 91.897202,77.789253 94.732857,80.064491 
	C98.186798,82.835823 102.856674,84.091705 106.719391,86.289154 
	C100.421692,88.477242 95.577316,85.250984 90.648544,82.790031 
	C82.686272,78.814461 78.906509,66.428619 82.853683,58.511333 
	C83.266991,57.682331 82.327713,56.178989 82.015984,54.988514 
z"/>
<path fill="#DFF7FE" opacity="1.000000" stroke="none" 
	d="
M71.953522,40.669590 
	C70.143639,42.981602 68.351440,44.978962 66.465492,46.883488 
	C63.883747,49.490658 61.481766,52.849762 57.399452,49.340897 
	C59.756077,47.133968 61.993649,45.470963 63.845078,43.453579 
	C64.484100,42.757267 64.161926,41.178829 64.278824,40.003345 
	C61.607578,39.834301 58.720280,39.004593 56.357048,39.777424 
	C55.191105,40.158710 54.699703,43.467278 54.475433,45.514000 
	C54.355793,46.605839 55.454147,47.831135 56.002773,48.996197 
	C51.893829,49.104469 50.470055,46.282127 50.103367,42.987198 
	C49.702721,39.387150 51.652802,36.886940 55.217533,36.169514 
	C57.388474,35.732601 59.695377,36.019863 61.919079,35.778233 
	C63.250290,35.633591 64.538818,35.096146 65.924942,34.367378 
	C67.978706,36.104183 69.954063,38.208870 71.953522,40.669590 
z"/>
<path fill="#D9F3FD" opacity="1.000000" stroke="none" 
	d="
M88.999817,70.000000 
	C88.999252,69.555992 88.998688,69.111977 89.041092,67.962837 
	C90.456474,62.935768 91.197716,57.815308 96.838051,57.160027 
	C100.465698,56.738575 101.259300,55.062649 100.996712,52.014580 
	C103.426689,52.352402 105.856674,52.690224 108.716705,53.063530 
	C110.340210,54.512814 111.533653,55.926613 112.674835,57.906307 
	C111.413643,58.975895 110.204720,59.479580 108.579704,59.986885 
	C106.776115,59.994499 105.388618,59.998497 103.854919,59.778137 
	C103.139023,59.702114 102.569321,59.850449 101.583038,59.998821 
	C99.777878,59.999645 98.389297,60.000431 96.644974,60.059288 
	C92.098549,64.444115 91.766258,66.978798 94.993546,70.255295 
	C94.994286,70.504089 94.997375,71.001663 95.001404,71.359184 
	C96.338921,73.476578 97.672409,75.236443 99.223274,77.105576 
	C99.711899,77.413414 99.900307,77.672295 100.110825,78.252106 
	C100.476372,79.009109 100.736977,79.505470 100.626694,79.996460 
	C98.170670,78.826950 95.797592,77.979759 94.075890,76.415588 
	C92.084579,74.606491 90.666672,72.166237 88.999817,70.000000 
z"/>
<path fill="#D2F0FD" opacity="1.000000" stroke="none" 
	d="
M100.546890,52.007217 
	C101.259300,55.062649 100.465698,56.738575 96.838051,57.160027 
	C91.197716,57.815308 90.456474,62.935768 89.040955,67.629822 
	C85.423088,64.687096 88.639717,61.881229 89.694534,58.926235 
	C90.423759,56.883389 91.226250,54.866703 91.991867,52.440559 
	C94.690849,52.028481 97.393959,52.014168 100.546890,52.007217 
z"/>
<path fill="#B3DBF9" opacity="1.000000" stroke="none" 
	d="
M67.018692,71.351776 
	C67.344749,70.536995 67.660019,70.072441 68.250259,69.201141 
	C69.002251,68.523705 69.479279,68.253014 70.274506,68.147995 
	C70.923210,70.583160 70.735924,73.100288 71.680817,75.075928 
	C74.573051,81.123238 78.752747,86.037300 84.959129,89.175690 
	C94.214417,93.855827 103.846222,95.763474 114.224663,95.151680 
	C118.326363,94.909889 122.515373,96.454178 126.691780,96.961746 
	C127.745316,97.089783 128.903305,96.358360 130.306107,96.146530 
	C131.398087,96.518021 132.197250,96.764877 133.205872,97.269028 
	C134.275116,97.680664 135.134903,97.834991 136.295258,97.839447 
	C138.770996,95.036156 137.622070,93.310669 135.005707,91.662354 
	C135.005157,90.886841 135.005020,90.443695 135.379120,89.923492 
	C136.145233,88.150703 136.537109,86.454964 136.933868,84.547401 
	C136.938751,84.335579 136.990173,83.914955 137.266983,84.059174 
	C138.391418,84.801147 139.239059,85.398903 140.086685,85.996666 
	C141.243912,86.804810 142.401154,87.612953 143.774414,88.647728 
	C144.324814,90.653061 144.659164,92.431747 144.619507,94.603439 
	C142.848572,96.090637 141.478745,97.221962 140.046707,98.268120 
	C138.733307,99.227615 137.352783,100.095253 135.564011,101.002045 
	C133.083130,101.001808 131.040070,101.002892 128.622391,101.003151 
	C127.498512,101.001350 126.749260,101.000374 125.758041,100.720612 
	C123.937271,99.985970 122.366058,99.169151 120.778336,99.135681 
	C113.218742,98.976341 105.564888,99.762726 98.111580,98.849525 
	C84.248436,97.150986 72.334572,91.706749 66.033157,78.012711 
	C66.025642,77.259155 66.018135,76.505600 66.006485,75.375214 
	C66.337524,73.899597 66.672707,72.800804 67.018692,71.351776 
z"/>
<path fill="#A6D2F7" opacity="1.000000" stroke="none" 
	d="
M136.001831,101.003357 
	C137.352783,100.095253 138.733307,99.227615 140.046707,98.268120 
	C141.478745,97.221962 142.848572,96.090637 144.636307,94.991493 
	C145.351730,96.096977 145.676361,97.207397 145.681992,98.817963 
	C142.905716,101.876297 140.448441,104.434494 137.991165,106.992691 
	C137.549591,106.992416 137.108017,106.992142 136.291336,106.672684 
	C135.277893,105.902847 134.639557,105.452187 133.783081,104.891327 
	C133.292709,104.581047 133.104401,104.320351 133.203217,103.741730 
	C134.271561,102.657402 135.136703,101.830383 136.001831,101.003357 
z"/>
<path fill="#93C4F3" opacity="1.000000" stroke="none" 
	d="
M126.000198,115.001060 
	C131.185471,113.596725 136.370728,112.192390 141.923767,110.921158 
	C142.291519,111.054268 142.406052,111.352745 142.096176,111.686737 
	C141.190460,112.681503 140.594620,113.342278 139.584015,114.011765 
	C134.779572,114.347351 130.389893,114.674202 126.000198,115.001060 
z"/>
<path fill="#9CCBF5" opacity="1.000000" stroke="none" 
	d="
M138.384094,106.948029 
	C140.448441,104.434494 142.905716,101.876297 145.656876,99.169586 
	C145.860916,101.174492 145.771088,103.327919 145.396622,105.753227 
	C143.000320,106.317863 140.888672,106.610611 138.384094,106.948029 
z"/>
<path fill="#F1F5FE" opacity="1.000000" stroke="none" 
	d="
M112.150894,124.766769 
	C116.700974,124.321915 121.386185,124.221237 126.532211,124.189438 
	C122.260201,127.466301 117.262299,126.102119 112.150894,124.766769 
z"/>
<path fill="#F1F5FE" opacity="1.000000" stroke="none" 
	d="
M134.461761,122.013824 
	C135.306732,120.906227 136.560379,119.793602 137.949005,118.370575 
	C138.083984,118.060165 138.040527,118.071495 138.283112,117.981247 
	C138.707626,117.608795 138.889572,117.326591 139.037964,117.024940 
	C139.004395,117.005486 139.045395,117.071342 139.288345,116.983200 
	C139.710220,116.609314 139.889145,116.323570 140.061890,116.058655 
	C140.055679,116.079475 140.096359,116.101051 140.410843,116.081940 
	C141.143082,116.019890 141.560852,115.976952 141.978607,115.934021 
	C141.302139,119.939842 139.635193,122.786697 134.461761,122.013824 
z"/>
<path fill="#8CBDED" opacity="1.000000" stroke="none" 
	d="
M142.096390,115.653641 
	C141.560852,115.976952 141.143082,116.019890 140.377777,115.732178 
	C140.019730,114.935371 140.009262,114.469208 139.998779,114.003052 
	C140.594620,113.342278 141.190460,112.681503 142.092957,111.846550 
	C142.337814,112.905998 142.276001,114.139633 142.096390,115.653641 
z"/>
<path fill="#F1F5FE" opacity="1.000000" stroke="none" 
	d="
M130.180420,124.213562 
	C130.790863,123.405518 131.605606,122.859772 132.718170,122.295532 
	C132.138901,123.009979 131.261826,123.742920 130.180420,124.213562 
z"/>
<path fill="#8CBDED" opacity="1.000000" stroke="none" 
	d="
M144.115768,110.071915 
	C144.054016,109.868996 144.265091,109.583832 144.704865,109.166290 
	C144.751907,109.352493 144.570251,109.671089 144.115768,110.071915 
z"/>
<path fill="#95D1F9" opacity="1.000000" stroke="none" 
	d="
M167.000000,67.999695 
	C159.688934,67.999596 152.335938,68.493912 145.077072,67.878273 
	C135.293350,67.048492 126.660065,63.369808 119.966240,55.642551 
	C118.023293,53.399654 116.869102,51.556965 118.364197,48.370300 
	C120.158508,48.340115 121.578339,48.670971 123.025375,49.322468 
	C123.701004,50.429264 124.349434,51.215424 125.002968,52.370438 
	C128.233856,59.726135 134.562424,62.903805 141.392624,63.769928 
	C149.145981,64.753113 157.119507,64.000130 165.294205,64.024658 
	C166.057526,64.368240 166.523956,64.689072 166.991562,65.383629 
	C166.995148,66.504799 166.997574,67.252251 167.000000,67.999695 
z"/>
<path fill="#88C5F6" opacity="1.000000" stroke="none" 
	d="
M169.993866,70.007362 
	C169.997177,70.753616 170.000504,71.499870 169.581573,72.623421 
	C164.250549,73.667076 159.352448,74.428535 154.430817,74.980110 
	C143.994446,76.149719 134.565674,72.201637 124.672760,68.976074 
	C124.133507,68.907776 123.919304,68.869354 123.682533,68.591995 
	C123.417435,67.984589 123.174911,67.616112 122.932373,67.247635 
	C124.106758,66.914948 125.651016,65.926094 126.399895,66.348236 
	C137.176224,72.422829 148.683990,72.992554 160.556122,71.306831 
	C162.836945,70.982979 165.140305,70.817947 168.049377,70.291954 
	C169.108276,70.005295 169.551056,70.006332 169.993866,70.007362 
z"/>
<path fill="#E9F9FD" opacity="1.000000" stroke="none" 
	d="
M108.995789,59.983269 
	C110.204720,59.479580 111.413643,58.975895 112.830956,58.199699 
	C113.921249,58.453899 114.803169,58.980602 115.841812,60.146893 
	C116.718201,61.496456 117.437851,62.206432 118.157509,62.916405 
	C118.452011,63.037598 118.684677,63.232582 118.933372,64.147942 
	C119.007088,66.529594 119.002930,68.264664 118.663300,70.049576 
	C116.602058,71.849373 114.880486,73.603447 113.149658,75.348351 
	C109.981949,78.541801 106.424179,80.107803 102.261871,77.715851 
	C102.831810,77.320740 103.162865,77.057617 103.435303,77.108475 
	C109.784111,78.293678 112.447624,73.432838 114.322578,69.210846 
	C114.995384,67.695816 111.385010,64.294777 109.764778,61.732162 
	C109.428253,61.199905 109.248032,60.568817 108.995789,59.983269 
z"/>
<path fill="#D9F3FD" opacity="1.000000" stroke="none" 
	d="
M118.998779,69.999725 
	C119.002930,68.264664 119.007088,66.529594 119.028519,64.357948 
	C120.127228,64.975464 121.208656,66.029556 122.611237,67.165649 
	C123.174911,67.616112 123.417435,67.984589 123.474319,68.848892 
	C123.213379,70.221199 123.138069,71.097664 122.789803,72.177261 
	C122.343842,73.252991 122.170853,74.125580 121.655228,75.034088 
	C120.208397,76.379906 119.104202,77.689804 118.000000,78.999847 
	C118.000000,79.000000 117.999695,79.000000 117.654755,79.035889 
	C115.206367,79.715790 113.102928,80.359795 111.150337,80.698410 
	C113.325127,78.526527 115.566170,76.837250 117.289833,74.725662 
	C118.289322,73.501221 118.456856,71.597664 118.998779,69.999725 
z"/>
<path fill="#A3D6FB" opacity="1.000000" stroke="none" 
	d="
M167.249084,68.001549 
	C166.997574,67.252251 166.995148,66.504799 167.360687,65.420769 
	C169.335892,64.929642 170.943146,64.775101 172.550385,64.620552 
	C172.033997,63.080513 171.517609,61.540470 171.001221,60.000431 
	C171.001068,58.932564 171.000931,57.864697 171.001923,56.396233 
	C171.888702,56.493774 172.774368,56.991917 173.831482,58.111053 
	C174.999741,60.155342 175.996552,61.578632 176.993347,63.001923 
	C176.683975,64.104691 176.374588,65.207458 175.628784,66.663177 
	C172.793686,67.346428 170.395004,67.676720 167.996338,68.007019 
	C167.996338,68.007019 167.498169,68.003403 167.249084,68.001549 
z"/>
<path fill="#9BD8FB" opacity="1.000000" stroke="none" 
	d="
M122.998169,49.001831 
	C121.578339,48.670971 120.158508,48.340115 118.369797,48.006271 
	C117.819092,47.999577 117.637268,47.995865 117.182022,47.979862 
	C116.928780,47.524784 116.948975,47.082005 117.351021,46.262985 
	C118.140083,45.209351 118.547287,44.531944 118.954498,43.854538 
	C119.735649,42.315342 120.516808,40.776142 121.577530,39.065598 
	C122.238464,40.980312 122.619843,43.066376 123.000839,45.950665 
	C122.999695,47.499874 122.998932,48.250851 122.998169,49.001831 
z"/>
<path fill="#95D1F9" opacity="1.000000" stroke="none" 
	d="
M167.997131,68.340065 
	C170.395004,67.676720 172.793686,67.346428 175.594955,67.007912 
	C174.237976,67.997520 172.478378,68.995354 170.356323,70.000275 
	C169.551056,70.006332 169.108276,70.005295 168.333344,70.005035 
	C168.000107,69.561569 167.999008,69.117348 167.997131,68.340065 
z"/>
<path fill="#D9F3FD" opacity="1.000000" stroke="none" 
	d="
M118.091370,62.607243 
	C117.437851,62.206432 116.718201,61.496456 115.982384,60.434059 
	C116.652557,60.820450 117.338898,61.559265 118.091370,62.607243 
z"/>
<path fill="#CCF0FD" opacity="1.000000" stroke="none" 
	d="
M141.995117,48.005180 
	C137.796356,45.797794 137.084473,43.498985 139.625473,39.481415 
	C140.660812,41.546558 141.323517,43.280083 141.989716,45.387184 
	C141.993835,46.508904 141.994476,47.257042 141.995117,48.005180 
z"/>
<path fill="#D9F6FE" opacity="1.000000" stroke="none" 
	d="
M141.986237,45.013607 
	C141.323517,43.280083 140.660812,41.546558 139.995392,39.402683 
	C140.578979,38.503536 141.165268,38.014736 141.873352,37.260681 
	C142.747559,36.997475 143.500000,36.999523 144.567627,37.357239 
	C143.922058,40.141750 142.961334,42.570599 141.999176,45.000843 
	C141.997757,45.002239 141.986237,45.013607 141.986237,45.013607 
z"/>
<path fill="#D9F6FE" opacity="1.000000" stroke="none" 
	d="
M142.212814,48.114952 
	C141.994476,47.257042 141.993835,46.508904 141.989716,45.387184 
	C141.986237,45.013607 141.997757,45.002239 142.257584,45.109028 
	C143.011551,45.477268 143.505707,45.738716 143.999878,46.375107 
	C144.000290,47.499599 144.000671,48.249161 144.001053,48.998718 
	C143.833511,48.998936 143.665970,48.999149 143.247070,49.001663 
	C142.890244,48.684055 142.701843,48.424305 142.212814,48.114952 
z"/>
<path fill="#9BD8FB" opacity="1.000000" stroke="none" 
	d="
M164.997314,64.001915 
	C157.119507,64.000130 149.145981,64.753113 141.392624,63.769928 
	C134.562424,62.903805 128.233856,59.726135 125.336929,52.369797 
	C126.111031,51.999638 126.556282,51.998978 127.001526,51.998322 
	C128.114059,52.976902 129.226593,53.955482 130.710632,55.322861 
	C132.388077,56.474339 133.694046,57.237019 135.000000,57.999695 
	C135.000000,57.999695 135.000000,58.000000 135.043045,58.319756 
	C135.724564,59.092545 136.363037,59.545578 137.001511,59.998608 
	C145.749176,60.637661 154.496857,61.276714 163.731293,62.215855 
	C164.477814,63.011261 164.737564,63.506588 164.997314,64.001915 
z"/>
<path fill="#A6DFFC" opacity="1.000000" stroke="none" 
	d="
M128.968475,31.967331 
	C129.736923,31.611887 130.505356,31.256445 131.606415,30.865623 
	C131.323303,33.373985 130.578247,35.894543 130.117371,38.466034 
	C128.969574,44.870285 131.141815,49.284584 136.903183,52.978054 
	C138.355743,53.909260 139.588928,55.182667 140.962830,56.648170 
	C129.533585,51.883945 125.954826,49.105190 127.000900,33.471916 
	C127.001503,33.011383 127.429695,32.929188 127.895813,32.850368 
	C128.564117,32.503479 128.766296,32.235405 128.968475,31.967331 
z"/>
<path fill="#AFDDFB" opacity="1.000000" stroke="none" 
	d="
M165.294205,64.024658 
	C164.737564,63.506588 164.477814,63.011261 164.109634,62.257435 
	C164.000809,61.249241 164.000381,60.499546 163.999359,59.375000 
	C166.124817,59.229431 168.250854,59.458721 170.689056,59.844223 
	C171.517609,61.540470 172.033997,63.080513 172.550385,64.620552 
	C170.943146,64.775101 169.335892,64.929642 167.359528,65.047043 
	C166.523956,64.689072 166.057526,64.368240 165.294205,64.024658 
z"/>
<path fill="#9ED9FA" opacity="1.000000" stroke="none" 
	d="
M127.000725,51.616962 
	C126.556282,51.998978 126.111031,51.999638 125.331825,52.000938 
	C124.349434,51.215424 123.701004,50.429264 123.025375,49.322468 
	C122.998932,48.250851 122.999695,47.499874 123.001144,46.373375 
	C124.334526,47.743778 125.667221,49.489693 127.000725,51.616962 
z"/>
<path fill="#9ED9FA" opacity="1.000000" stroke="none" 
	d="
M134.855774,57.703636 
	C133.694046,57.237019 132.388077,56.474339 131.041061,55.355831 
	C132.237167,55.802528 133.474350,56.605053 134.855774,57.703636 
z"/>
<path fill="#9ED9FA" opacity="1.000000" stroke="none" 
	d="
M136.958160,59.679024 
	C136.363037,59.545578 135.724564,59.092545 135.043152,58.319679 
	C135.638412,58.453045 136.276627,58.906242 136.958160,59.679024 
z"/>
<path fill="#E8FBFF" opacity="1.000000" stroke="none" 
	d="
M143.999847,46.000168 
	C143.505707,45.738716 143.011551,45.477268 142.259003,45.107632 
	C142.961334,42.570599 143.922058,40.141750 144.943756,37.358894 
	C147.758820,36.899921 150.512924,36.794964 153.628494,36.850578 
	C154.660248,39.409458 155.330521,41.807770 156.002838,44.605217 
	C154.563324,46.644855 153.121780,48.285362 151.229797,49.742725 
	C150.577271,49.288738 150.315887,49.099930 150.033630,48.643547 
	C150.592941,47.485981 151.009323,46.580261 151.655441,45.889393 
	C153.257172,44.176716 155.482101,42.069736 152.527206,40.401165 
	C150.768738,39.408192 147.603622,39.797863 145.624786,40.735214 
	C144.506210,41.265072 144.509064,44.162380 144.003433,45.996635 
	C144.000061,45.999939 143.999847,46.000168 143.999847,46.000168 
z"/>
<path fill="#D9F6FE" opacity="1.000000" stroke="none" 
	d="
M149.995255,48.993164 
	C150.315887,49.099930 150.577271,49.288738 150.889984,49.777985 
	C149.113510,49.874825 147.226425,49.753262 145.544678,49.315819 
	C146.501434,48.997894 147.252884,48.995850 148.336151,48.995216 
	C149.110413,48.995476 149.552826,48.994320 149.995255,48.993164 
z"/>
<path fill="#E8FBFF" opacity="1.000000" stroke="none" 
	d="
M148.004318,48.993805 
	C147.252884,48.995850 146.501434,48.997894 145.375015,48.999950 
	C145.000031,48.999962 144.500275,48.999489 144.250671,48.999104 
	C144.000671,48.249161 144.000290,47.499599 143.999878,46.375107 
	C143.999847,46.000168 144.000061,45.999939 144.348434,46.032902 
	C145.799301,47.041843 146.901810,48.017822 148.004318,48.993805 
z"/>
<path fill="#75B4F0" opacity="1.000000" stroke="none" 
	d="
M140.512589,85.999374 
	C139.239059,85.398903 138.391418,84.801147 137.321167,83.697357 
	C138.250397,82.565353 139.487686,81.278656 140.541016,81.414818 
	C152.057373,82.903557 163.326630,82.440125 174.263580,78.099472 
	C175.774231,77.499939 177.466385,77.357719 179.074509,77.003784 
	C178.099625,79.143707 177.124741,81.283630 176.166779,83.787994 
	C176.183685,84.152428 176.099869,84.130615 175.773285,84.100082 
	C174.978531,84.416725 174.510376,84.763893 174.042236,85.111069 
	C174.042236,85.111069 174.135696,85.096611 174.161163,85.137039 
	C169.267471,82.939117 165.104416,86.785583 160.565964,86.877235 
	C154.032028,87.009201 147.481781,86.333237 140.512589,85.999374 
z"/>
<path fill="#ADE4FC" opacity="1.000000" stroke="none" 
	d="
M128.741791,32.070518 
	C128.766296,32.235405 128.564117,32.503479 128.113754,32.844940 
	C128.013611,32.610382 128.230103,32.362175 128.741791,32.070518 
z"/>
<path fill="#7EBBF3" opacity="1.000000" stroke="none" 
	d="
M179.357178,76.765793 
	C177.466385,77.357719 175.774231,77.499939 174.263580,78.099472 
	C163.326630,82.440125 152.057373,82.903557 140.541016,81.414818 
	C139.487686,81.278656 138.250397,82.565353 137.044342,83.553139 
	C136.990173,83.914955 136.938751,84.335579 136.693756,84.473541 
	C135.988281,84.396034 135.527786,84.180557 134.895752,83.655060 
	C131.814590,82.242882 128.904953,81.140732 125.776756,79.913925 
	C125.354637,79.526161 125.151077,79.263054 124.934631,78.620651 
	C124.302094,76.152275 123.682434,74.063202 123.062775,71.974129 
	C123.138069,71.097664 123.213379,70.221199 123.496887,69.087830 
	C123.919304,68.869354 124.133507,68.907776 124.713058,69.342560 
	C126.290390,71.149605 127.236710,73.315102 128.756866,73.850105 
	C139.718735,77.708046 150.958405,79.813713 162.511444,76.838608 
	C165.786331,75.995262 168.842346,74.301964 171.998734,72.998474 
	C171.998734,72.998474 171.999390,72.999390 172.397247,72.999100 
	C175.076508,72.947716 177.678696,73.453720 178.001221,70.000916 
	C178.321213,69.528778 178.641205,69.056648 178.984039,68.285149 
	C183.017349,70.551567 180.796661,73.579102 179.357178,76.765793 
z"/>
<path fill="#83C1F5" opacity="1.000000" stroke="none" 
	d="
M171.666687,72.997208 
	C168.842346,74.301964 165.786331,75.995262 162.511444,76.838608 
	C150.958405,79.813713 139.718735,77.708046 128.756866,73.850105 
	C127.236710,73.315102 126.290390,71.149605 125.038116,69.372437 
	C134.565674,72.201637 143.994446,76.149719 154.430817,74.980110 
	C159.352448,74.428535 164.250549,73.667076 169.583008,72.996552 
	C170.449356,72.993561 170.892014,72.994743 171.666687,72.997208 
z"/>
<path fill="#95D1F9" opacity="1.000000" stroke="none" 
	d="
M177.239685,62.831154 
	C175.996552,61.578632 174.999741,60.155342 174.001770,58.362595 
	C175.237793,58.791691 176.474976,59.590237 177.856842,60.682549 
	C177.829697,61.537670 177.657867,62.099030 177.239685,62.831154 
z"/>
<path fill="#88C5F6" opacity="1.000000" stroke="none" 
	d="
M177.629608,70.042068 
	C177.678696,73.453720 175.076508,72.947716 172.395554,72.995758 
	C173.749985,72.022881 175.503983,71.053055 177.629608,70.042068 
z"/>
<path fill="#71AADF" opacity="1.000000" stroke="none" 
	d="
M174.352417,85.133759 
	C174.510376,84.763893 174.978531,84.416725 175.758896,84.059235 
	C175.601593,84.418098 175.132095,84.787270 174.352417,85.133759 
z"/>
<path fill="#95D1F9" opacity="1.000000" stroke="none" 
	d="
M118.646729,43.902122 
	C118.547287,44.531944 118.140083,45.209351 117.415077,45.936123 
	C117.094513,45.566322 117.091743,45.147152 117.097527,44.415199 
	C117.517044,44.051514 117.928001,44.000607 118.646729,43.902122 
z"/>
<path fill="#8EC1F3" opacity="1.000000" stroke="none" 
	d="
M139.584030,114.011772 
	C140.009262,114.469208 140.019730,114.935371 140.063293,115.751289 
	C140.096359,116.101051 140.055679,116.079475 139.826904,116.158432 
	C139.413895,116.515373 139.229645,116.793358 139.045410,117.071350 
	C139.045395,117.071342 139.004395,117.005486 138.801910,117.122818 
	C138.413132,117.517258 138.226837,117.794380 138.040527,118.071495 
	C138.040527,118.071495 138.083984,118.060165 138.096283,118.081253 
	C124.014473,123.327293 109.321358,121.974335 94.767670,121.902100 
	C92.892952,121.892799 91.012733,120.586899 89.156937,119.828125 
	C87.182472,119.020805 85.175323,117.321594 83.284782,117.455605 
	C76.492035,117.937111 71.029541,114.749023 65.370216,111.926857 
	C64.946777,111.715691 64.502571,111.546165 64.937599,111.735260 
	C62.597019,113.720337 60.820045,115.613815 58.651440,116.777412 
	C58.149776,117.046577 56.309574,114.821098 55.044205,113.370407 
	C56.414669,113.269432 57.826241,113.541618 59.349644,113.835365 
	C59.974323,110.797401 60.541615,108.038528 61.162441,105.019310 
	C70.071465,108.364525 76.587349,115.533836 86.569801,114.999283 
	C88.714661,114.999710 90.428101,115.000824 92.637573,115.364685 
	C102.955788,121.709358 112.847298,118.442345 122.722305,115.911804 
	C122.882500,115.870758 122.911240,115.316757 123.001328,115.002136 
	C123.751045,115.001709 124.500755,115.001282 125.625336,115.000961 
	C130.389893,114.674202 134.779572,114.347351 139.584030,114.011772 
z"/>
<path fill="#A0CEF6" opacity="1.000000" stroke="none" 
	d="
M133.000000,103.999039 
	C133.104401,104.320351 133.292709,104.581047 133.705841,105.262787 
	C133.037201,106.164024 132.265137,106.691994 131.412460,106.986832 
	C119.203857,111.208397 106.543015,109.892609 93.998489,110.002716 
	C93.554367,110.002243 93.110252,110.001778 92.106163,109.729675 
	C83.935692,106.087837 75.868767,103.455368 68.857079,99.117294 
	C63.102463,95.556938 56.304146,92.021927 54.992653,83.987297 
	C55.881779,83.161743 56.770905,82.336197 57.834572,81.256058 
	C58.009113,81.001472 58.508339,81.014191 58.755249,81.422653 
	C60.351009,84.697342 60.975330,88.461105 63.192879,90.251160 
	C68.534805,94.563271 74.296936,98.634048 80.472702,101.579575 
	C96.514954,109.230934 113.152710,110.115852 130.375000,103.998428 
	C131.500000,103.998909 132.250000,103.998970 133.000000,103.999039 
z"/>
<path fill="#9CCBF5" opacity="1.000000" stroke="none" 
	d="
M54.665173,84.024536 
	C56.304146,92.021927 63.102463,95.556938 68.857079,99.117294 
	C75.868767,103.455368 83.935692,106.087837 91.773071,109.729477 
	C87.534607,109.093880 82.807755,108.832184 78.656487,107.150040 
	C68.999626,103.236984 60.361298,97.624397 53.736000,89.319595 
	C53.141884,88.574867 52.179161,88.124207 51.191620,87.265533 
	C52.109638,86.016655 53.223667,85.039215 54.665173,84.024536 
z"/>
<path fill="#A6D2F7" opacity="1.000000" stroke="none" 
	d="
M130.000015,103.998009 
	C113.152710,110.115852 96.514954,109.230934 80.472702,101.579575 
	C74.296936,98.634048 68.534805,94.563271 63.192879,90.251160 
	C60.975330,88.461105 60.351009,84.697342 59.004772,81.431900 
	C60.110535,80.716774 61.213688,80.400879 62.665825,80.430359 
	C66.057961,84.541924 68.466156,89.207062 72.271149,91.894669 
	C81.307655,98.277481 91.117691,102.594826 102.745178,103.374771 
	C110.871170,103.919846 118.374405,103.029610 126.000000,100.999390 
	C126.749260,101.000374 127.498512,101.001350 128.648529,101.321472 
	C129.366196,102.426414 129.683105,103.212212 130.000015,103.998009 
z"/>
<path fill="#ACD7F9" opacity="1.000000" stroke="none" 
	d="
M125.758041,100.720612 
	C118.374405,103.029610 110.871170,103.919846 102.745178,103.374771 
	C91.117691,102.594826 81.307655,98.277481 72.271149,91.894669 
	C68.466156,89.207062 66.057961,84.541924 63.011642,80.410339 
	C63.838894,79.481194 64.669312,78.917427 65.766449,78.183189 
	C72.334572,91.706749 84.248436,97.150986 98.111580,98.849525 
	C105.564888,99.762726 113.218742,98.976341 120.778336,99.135681 
	C122.366058,99.169151 123.937271,99.985970 125.758041,100.720612 
z"/>
<path fill="#9CCBF5" opacity="1.000000" stroke="none" 
	d="
M94.083282,110.383621 
	C106.543015,109.892609 119.203857,111.208397 131.412460,106.986832 
	C132.265137,106.691994 133.037201,106.164024 133.923981,105.372986 
	C134.639557,105.452187 135.277893,105.902847 135.960175,106.672073 
	C128.773895,111.980438 120.623833,112.668434 112.175316,112.246712 
	C107.163498,111.996536 102.133156,112.132996 97.116890,111.943420 
	C96.120522,111.905762 95.150337,111.175446 94.083282,110.383621 
z"/>
<path fill="#93C4F3" opacity="1.000000" stroke="none" 
	d="
M122.533333,115.001190 
	C122.911240,115.316757 122.882500,115.870758 122.722305,115.911804 
	C112.847298,118.442345 102.955788,121.709358 93.065834,115.365097 
	C102.687164,115.001915 112.376251,115.001076 122.533333,115.001190 
z"/>
<path fill="#99D3F9" opacity="1.000000" stroke="none" 
	d="
M69.956306,67.982330 
	C69.479279,68.253014 69.002251,68.523705 68.274994,68.907074 
	C66.635712,68.346710 65.248672,67.097839 63.857250,67.092941 
	C53.944080,67.058044 44.923679,64.172562 36.731674,58.780262 
	C33.827930,56.868912 31.368721,54.282227 28.337528,51.985641 
	C28.421011,49.760414 28.873537,47.553391 29.798540,45.485497 
	C32.821350,52.657520 37.630135,57.298710 44.487934,60.398571 
	C53.134197,64.306847 61.893307,64.857880 70.995857,62.999390 
	C71.000198,63.168224 71.004532,63.337063 70.871841,64.075813 
	C70.475304,65.757927 70.215805,66.870132 69.956306,67.982330 
z"/>
<path fill="#9CD7FB" opacity="1.000000" stroke="none" 
	d="
M70.934425,62.635704 
	C61.893307,64.857880 53.134197,64.306847 44.487934,60.398571 
	C37.630135,57.298710 32.821350,52.657520 30.127079,45.296753 
	C31.755379,42.335762 33.527618,39.702644 35.649040,37.028667 
	C32.222763,47.094738 39.539665,52.161453 45.945824,56.701176 
	C51.453644,60.604294 58.235245,62.024632 65.344933,60.511311 
	C66.988251,60.161533 69.019989,61.636650 70.934425,62.635704 
z"/>
<path fill="#C3E6FC" opacity="1.000000" stroke="none" 
	d="
M125.995323,80.038574 
	C128.904953,81.140732 131.814590,82.242882 134.870483,83.665611 
	C135.016724,83.986191 134.967957,84.011200 134.597229,84.013336 
	C133.191254,84.805923 132.156006,85.596375 131.120743,86.386818 
	C132.412415,87.591469 133.704071,88.796120 134.997864,90.000381 
	C135.000000,90.000000 135.004883,90.000542 135.004883,90.000542 
	C135.005020,90.443695 135.005157,90.886841 135.003357,91.996582 
	C135.000931,93.108681 135.000458,93.554184 134.711273,94.142624 
	C133.947189,95.194275 133.471802,96.103004 132.996414,97.011726 
	C132.197250,96.764877 131.398087,96.518021 129.999588,95.990768 
	C125.807281,93.898209 122.127632,90.417755 118.638237,90.599068 
	C109.596863,91.068863 101.017288,91.215767 92.286064,87.790146 
	C79.393570,82.731911 73.432152,72.343765 76.998314,58.997265 
	C78.474113,57.756912 79.949905,56.516560 81.720840,55.132362 
	C82.327713,56.178989 83.266991,57.682331 82.853683,58.511333 
	C78.906509,66.428619 82.686272,78.814461 90.648544,82.790031 
	C95.577316,85.250984 100.421692,88.477242 107.094292,86.288589 
	C108.500275,86.001579 109.250137,86.001198 110.168716,86.244316 
	C110.891418,86.658241 111.445404,86.828667 112.408752,86.998466 
	C116.027954,86.236687 119.403076,85.855255 122.380142,84.559357 
	C123.944710,83.878319 124.812752,81.597168 125.995323,80.038574 
z"/>
<path fill="#BCE1FB" opacity="1.000000" stroke="none" 
	d="
M76.649841,59.036308 
	C73.432152,72.343765 79.393570,82.731911 92.286064,87.790146 
	C101.017288,91.215767 109.596863,91.068863 118.638237,90.599068 
	C122.127632,90.417755 125.807281,93.898209 129.706772,95.866119 
	C128.903305,96.358360 127.745316,97.089783 126.691780,96.961746 
	C122.515373,96.454178 118.326363,94.909889 114.224663,95.151680 
	C103.846222,95.763474 94.214417,93.855827 84.959129,89.175690 
	C78.752747,86.037300 74.573051,81.123238 71.680817,75.075928 
	C70.735924,73.100288 70.923210,70.583160 70.274506,68.148003 
	C70.215805,66.870132 70.475304,65.757927 70.879799,64.329025 
	C72.783653,62.366665 74.542511,60.721012 76.649841,59.036308 
z"/>
<path fill="#F4FDFF" opacity="1.000000" stroke="none" 
	d="
M56.245590,49.002304 
	C55.454147,47.831135 54.355793,46.605839 54.475433,45.514000 
	C54.699703,43.467278 55.191105,40.158710 56.357048,39.777424 
	C58.720280,39.004593 61.607578,39.834301 64.278824,40.003345 
	C64.161926,41.178829 64.484100,42.757267 63.845078,43.453579 
	C61.993649,45.470963 59.756077,47.133968 57.321991,48.980194 
	C56.973930,49.024338 56.488403,49.008415 56.245590,49.002304 
z"/>
<path fill="#D2F0FD" opacity="1.000000" stroke="none" 
	d="
M110.000000,86.000809 
	C109.250137,86.001198 108.500275,86.001579 107.375511,86.002525 
	C102.856674,84.091705 98.186798,82.835823 94.732857,80.064491 
	C91.897202,77.789253 90.506836,73.712730 88.737831,70.217316 
	C90.666672,72.166237 92.084579,74.606491 94.075890,76.415588 
	C95.797592,77.979759 98.170670,78.826950 100.891045,80.276344 
	C103.349716,80.709877 105.173164,80.858139 107.037407,81.302643 
	C107.484718,81.914536 107.891220,82.230186 108.297729,82.545837 
	C108.532722,82.032272 108.767715,81.518715 109.335510,81.004333 
	C110.112030,81.003601 110.555763,81.003700 110.999489,81.003799 
	C113.102928,80.359795 115.206367,79.715790 117.621910,79.380936 
	C117.622475,80.793091 117.310928,81.896088 116.749619,82.999512 
	C116.499847,82.999939 116.000305,83.000610 115.621399,83.006462 
	C113.494995,84.008476 111.747498,85.004646 110.000000,86.000809 
z"/>
<path fill="#F1FCFE" opacity="1.000000" stroke="none" 
	d="
M108.579697,59.986885 
	C109.248032,60.568817 109.428253,61.199905 109.764778,61.732162 
	C111.385010,64.294777 114.995384,67.695816 114.322578,69.210846 
	C112.447624,73.432838 109.784111,78.293678 103.435303,77.108475 
	C103.162865,77.057617 102.831810,77.320740 101.930260,77.716049 
	C100.890274,77.993484 100.448074,77.992477 100.005882,77.991470 
	C99.900307,77.672295 99.711899,77.413414 99.219437,76.754723 
	C98.331703,74.863304 97.665169,73.431992 96.999252,71.585800 
	C97.466812,67.320992 96.705544,62.568420 102.961700,63.362148 
	C102.419708,64.571609 101.909668,65.416901 101.418892,66.273224 
	C99.267281,70.027458 100.015144,73.106262 103.436462,74.604042 
	C105.933220,75.697060 110.799461,72.652489 111.214340,68.707474 
	C111.391754,67.020561 108.614250,64.884712 106.917175,63.220249 
	C106.385040,62.698330 104.996925,63.049156 104.083588,62.778580 
	C104.112770,62.037510 104.058983,61.518368 104.004364,60.750046 
	C104.003532,60.500862 104.001114,60.002499 104.001114,60.002495 
	C105.388618,59.998497 106.776115,59.994499 108.579697,59.986885 
z"/>
<path fill="#E2F6FE" opacity="1.000000" stroke="none" 
	d="
M100.110825,78.252106 
	C100.448074,77.992477 100.890274,77.993484 101.664078,77.994293 
	C106.424179,80.107803 109.981949,78.541801 113.149658,75.348351 
	C114.880486,73.603447 116.602058,71.849373 118.663292,70.049576 
	C118.456856,71.597664 118.289322,73.501221 117.289833,74.725662 
	C115.566170,76.837250 113.325127,78.526527 111.150337,80.698410 
	C110.555763,81.003700 110.112030,81.003601 109.001144,81.002548 
	C107.888191,81.003189 107.442398,81.004799 106.996605,81.006409 
	C105.173164,80.858139 103.349716,80.709877 101.261932,80.281723 
	C100.736977,79.505470 100.476372,79.009109 100.110825,78.252106 
z"/>
<path fill="#E9F9FD" opacity="1.000000" stroke="none" 
	d="
M103.002533,63.003052 
	C96.705544,62.568420 97.466812,67.320992 96.740776,71.477554 
	C95.986916,71.523346 95.492149,71.262505 94.997375,71.001663 
	C94.997375,71.001663 94.994286,70.504089 94.995972,69.837463 
	C95.665337,66.114288 96.333031,63.057751 97.000717,60.001213 
	C98.389297,60.000431 99.777878,59.999645 101.752319,60.242920 
	C102.893852,60.657722 103.449524,60.828476 104.005188,60.999229 
	C104.058983,61.518368 104.112770,62.037510 103.834061,62.779091 
	C103.501564,63.001537 103.002533,63.003052 103.002533,63.003052 
z"/>
<path fill="#E2F6FE" opacity="1.000000" stroke="none" 
	d="
M96.644974,60.059288 
	C96.333031,63.057751 95.665337,66.114288 94.995224,69.588669 
	C91.766258,66.978798 92.098549,64.444115 96.644974,60.059288 
z"/>
<path fill="#E2F6FE" opacity="1.000000" stroke="none" 
	d="
M95.001404,71.359184 
	C95.492149,71.262505 95.986916,71.523346 96.740158,71.892433 
	C97.665169,73.431992 98.331703,74.863304 99.002075,76.645462 
	C97.672409,75.236443 96.338921,73.476578 95.001404,71.359184 
z"/>
<path fill="#E2F6FE" opacity="1.000000" stroke="none" 
	d="
M104.004364,60.750046 
	C103.449524,60.828476 102.893852,60.657722 102.168900,60.242874 
	C102.569321,59.850449 103.139023,59.702114 103.854919,59.778137 
	C104.001114,60.002499 104.003532,60.500862 104.004364,60.750046 
z"/>
<path fill="#ACD7F9" opacity="1.000000" stroke="none" 
	d="
M130.375000,103.998428 
	C129.683105,103.212212 129.366196,102.426414 129.023148,101.322296 
	C131.040070,101.002892 133.083130,101.001808 135.564011,101.002045 
	C135.136703,101.830383 134.271561,102.657402 133.203217,103.741730 
	C132.250000,103.998970 131.500000,103.998909 130.375000,103.998428 
z"/>
<path fill="#BCE1FB" opacity="1.000000" stroke="none" 
	d="
M135.042007,83.975632 
	C135.527786,84.180557 135.988281,84.396034 136.688873,84.685364 
	C136.537109,86.454964 136.145233,88.150703 135.379120,89.923492 
	C135.004883,90.000542 135.000000,90.000000 134.999329,89.572357 
	C134.988419,87.433540 134.978195,85.722374 134.967957,84.011200 
	C134.967957,84.011200 135.016724,83.986191 135.042007,83.975632 
z"/>
<path fill="#C3E4FB" opacity="1.000000" stroke="none" 
	d="
M133.205872,97.269028 
	C133.471802,96.103004 133.947189,95.194275 134.980804,94.375961 
	C135.690918,95.640694 135.842804,96.815002 135.994675,97.989319 
	C135.134903,97.834991 134.275116,97.680664 133.205872,97.269028 
z"/>
<path fill="#BCE1FB" opacity="1.000000" stroke="none" 
	d="
M136.295258,97.839447 
	C135.842804,96.815002 135.690918,95.640694 135.269501,94.233032 
	C135.000458,93.554184 135.000931,93.108681 135.003754,92.328949 
	C137.622070,93.310669 138.770996,95.036156 136.295258,97.839447 
z"/>
<path fill="#8CBDED" opacity="1.000000" stroke="none" 
	d="
M139.288361,116.983200 
	C139.229645,116.793358 139.413895,116.515373 139.833115,116.137604 
	C139.889145,116.323570 139.710220,116.609314 139.288361,116.983200 
z"/>
<path fill="#8CBDED" opacity="1.000000" stroke="none" 
	d="
M138.283112,117.981247 
	C138.226837,117.794380 138.413132,117.517258 138.835480,117.142273 
	C138.889572,117.326591 138.707626,117.608795 138.283112,117.981247 
z"/>
<path fill="#CDEEFD" opacity="1.000000" stroke="none" 
	d="
M116.999390,82.999084 
	C117.310928,81.896088 117.622475,80.793091 117.966858,79.345047 
	C117.999695,79.000000 118.000000,79.000000 118.376434,78.994232 
	C119.834534,77.658363 120.916199,76.328270 121.997864,74.998169 
	C122.170853,74.125580 122.343842,73.252991 122.789810,72.177261 
	C123.682434,74.063202 124.302094,76.152275 124.591499,78.659607 
	C121.840630,80.384933 119.420013,81.692009 116.999390,82.999084 
z"/>
<path fill="#D2F0FD" opacity="1.000000" stroke="none" 
	d="
M121.655228,75.034088 
	C120.916199,76.328270 119.834534,77.658363 118.376434,78.994080 
	C119.104202,77.689804 120.208397,76.379906 121.655228,75.034088 
z"/>
<path fill="#F4FDFF" opacity="1.000000" stroke="none" 
	d="
M148.336151,48.995216 
	C146.901810,48.017822 145.799301,47.041843 144.351807,46.029594 
	C144.509064,44.162380 144.506210,41.265072 145.624786,40.735214 
	C147.603622,39.797863 150.768738,39.408192 152.527206,40.401165 
	C155.482101,42.069736 153.257172,44.176716 151.655441,45.889393 
	C151.009323,46.580261 150.592941,47.485981 150.033630,48.643547 
	C149.552826,48.994320 149.110413,48.995476 148.336151,48.995216 
z"/>
<path fill="#C9EBFD" opacity="1.000000" stroke="none" 
	d="
M116.749619,82.999512 
	C119.420013,81.692009 121.840630,80.384933 124.604385,79.038902 
	C125.151077,79.263054 125.354637,79.526161 125.776756,79.913925 
	C124.812752,81.597168 123.944710,83.878319 122.380142,84.559357 
	C119.403076,85.855255 116.027954,86.236687 112.471786,86.652267 
	C113.417061,85.204666 114.708687,84.102638 116.000305,83.000610 
	C116.000305,83.000610 116.499847,82.999939 116.749619,82.999512 
z"/>
<path fill="#C3E4FB" opacity="1.000000" stroke="none" 
	d="
M134.597229,84.013336 
	C134.978195,85.722374 134.988419,87.433540 134.997192,89.572739 
	C133.704071,88.796120 132.412415,87.591469 131.120743,86.386818 
	C132.156006,85.596375 133.191254,84.805923 134.597229,84.013336 
z"/>
<path fill="#CDEEFD" opacity="1.000000" stroke="none" 
	d="
M115.621399,83.006462 
	C114.708687,84.102638 113.417061,85.204666 112.062416,86.652893 
	C111.445404,86.828667 110.891418,86.658241 110.168716,86.244308 
	C111.747498,85.004646 113.494995,84.008476 115.621399,83.006462 
z"/>
<path fill="#D9F3FD" opacity="1.000000" stroke="none" 
	d="
M107.037407,81.302643 
	C107.442398,81.004799 107.888191,81.003189 108.668350,81.003372 
	C108.767715,81.518715 108.532722,82.032272 108.297729,82.545837 
	C107.891220,82.230186 107.484718,81.914536 107.037407,81.302643 
z"/>
<path fill="#F9FEFE" opacity="1.000000" stroke="none" 
	d="
M102.961700,63.362148 
	C103.002533,63.003052 103.501564,63.001537 103.751083,63.001022 
	C104.996925,63.049156 106.385040,62.698330 106.917175,63.220249 
	C108.614250,64.884712 111.391754,67.020561 111.214340,68.707474 
	C110.799461,72.652489 105.933220,75.697060 103.436462,74.604042 
	C100.015144,73.106262 99.267281,70.027458 101.418892,66.273224 
	C101.909668,65.416901 102.419708,64.571609 102.961700,63.362148 
z"/>
</svg>