<svg version="1.1" id="Layer_1" xmlns="http://www.w3.org/2000/svg" xmlns:xlink="http://www.w3.org/1999/xlink" x="0px" y="0px"
	 width="100%" viewBox="0 0 187 144" enable-background="new 0 0 187 144" xml:space="preserve">
<path fill="#F9FAFE" opacity="1.000000" stroke="none" 
	d="
M0.999999,47.000000 
	C1.000000,31.686018 1.000000,16.372036 1.000000,1.029028 
	C63.235298,1.029028 125.470619,1.029028 188.000000,1.029028 
	C188.000000,38.687050 188.000000,76.374870 187.531342,114.531342 
	C182.581146,115.000000 178.089874,114.816765 173.620895,115.053642 
	C169.490768,115.272560 165.101196,113.994736 161.229721,116.608253 
	C169.973862,120.435699 179.094727,118.417252 188.000000,119.000000 
	C188.000000,120.714355 188.000000,122.428719 187.531342,124.571533 
	C172.318497,124.215126 157.291962,127.285202 142.925995,121.145622 
	C138.577026,119.287018 138.221298,119.433800 142.116104,114.192390 
	C142.787720,115.556938 143.373734,116.747551 144.020676,118.061951 
	C147.413971,116.942513 147.673981,115.123062 145.998306,112.698250 
	C144.409622,110.399353 142.773132,108.133492 141.015503,105.652405 
	C142.728455,105.427933 143.643906,105.307976 145.159378,105.109383 
	C138.546982,101.232109 136.591431,101.795753 132.687927,107.895050 
	C131.946396,107.199875 131.461380,106.628471 130.930328,105.708374 
	C129.580505,105.256691 128.276733,105.153709 126.729248,105.046448 
	C126.485542,105.042175 125.998497,105.021469 125.993729,104.663956 
	C125.314522,103.536919 124.640083,102.767395 123.961761,101.661217 
	C123.959320,100.875664 123.960762,100.426765 124.324707,99.914597 
	C125.148010,99.698715 125.608818,99.546097 126.518600,99.497070 
	C131.291702,99.439590 135.615845,99.278526 140.204559,99.253052 
	C141.149933,99.056541 141.830734,98.724457 142.770050,98.389114 
	C143.358826,98.290108 143.689087,98.194359 144.347900,98.110344 
	C145.254074,97.832565 145.831680,97.543060 146.742798,97.208527 
	C147.676270,96.876663 148.276230,96.589828 149.187469,96.315498 
	C150.968582,95.209610 152.438431,94.091217 154.252136,92.783882 
	C154.797302,92.427948 154.998627,92.260956 155.210419,92.180176 
	C155.220871,92.266396 155.207657,92.057617 155.388947,91.902771 
	C155.570236,91.747932 155.816620,91.339699 156.114777,91.291039 
	C157.667984,89.461395 158.923019,87.680405 160.442551,85.598457 
	C161.209885,83.261864 161.712708,81.226227 162.502197,79.002060 
	C162.902649,77.916573 163.016403,77.019600 163.468506,75.948189 
	C164.065887,73.216835 164.324905,70.659935 164.671585,67.722763 
	C163.876938,65.144859 162.994644,62.947205 162.134491,60.376736 
	C160.175537,56.972607 158.194397,53.941296 156.050537,50.671741 
	C155.477722,50.585758 155.067657,50.738018 154.558792,50.958076 
	C154.459991,51.025879 154.419128,51.262028 154.427032,51.409248 
	C154.434952,51.556473 154.706940,51.442604 154.722626,51.207733 
	C154.756485,50.613178 154.627335,50.317379 154.366486,49.710289 
	C153.282516,48.511421 152.182922,47.687725 151.059296,46.906845 
	C151.035263,46.949657 151.128632,46.919270 151.066986,46.605114 
	C150.343689,45.841320 149.682053,45.391678 148.809265,44.677155 
	C146.044189,43.777908 143.490250,43.143551 140.626282,42.366524 
	C136.988571,42.049648 135.550812,40.296234 136.028030,36.626221 
	C135.766739,34.823750 135.431976,33.399101 135.087311,31.625538 
	C134.225998,29.738684 133.374603,28.200743 132.444214,26.312639 
	C128.617004,21.579809 124.868813,17.197140 120.930191,12.534609 
	C116.834770,10.488660 112.929771,8.722573 108.600327,6.923604 
	C101.116493,6.921565 94.057106,6.952410 86.638885,7.009238 
	C83.801147,8.248975 81.322243,9.462730 78.506104,10.774277 
	C74.024796,14.884674 69.880722,18.897282 65.484604,23.109032 
	C64.701134,24.489178 64.169716,25.670177 63.403099,27.114037 
	C62.054295,31.563065 60.940689,35.749237 59.580109,40.164101 
	C57.704189,41.126026 56.075253,41.859261 54.110672,42.598351 
	C52.698803,42.968296 51.622570,43.332397 50.203133,43.716694 
	C48.229580,44.611820 46.599239,45.486752 44.671116,46.338776 
	C43.784431,46.757801 43.195530,47.199738 42.282288,47.765526 
	C36.408154,51.407333 34.503544,57.081699 32.788139,63.240509 
	C32.466808,64.346298 32.374233,65.214897 32.161938,66.436020 
	C31.933359,67.524590 31.824505,68.260620 31.425663,68.821198 
	C26.932230,69.395988 22.728783,70.146233 18.290850,70.938332 
	C18.154133,71.854401 18.060339,73.005684 17.803135,74.119217 
	C16.408129,80.158760 15.528979,80.466103 9.734422,78.496674 
	C6.972440,77.557938 3.920564,77.472145 1.000000,77.000000 
	C1.000000,67.979103 1.000000,58.958210 1.297218,49.429161 
	C1.911587,48.514668 2.228737,48.108326 2.545886,47.701988 
	C2.030590,47.467991 1.515294,47.233997 0.999999,47.000000 
M166.781723,96.459465 
	C164.885254,95.822258 163.023758,94.929855 161.076538,94.663147 
	C160.196777,94.542648 159.146500,95.667152 158.173584,96.226830 
	C159.119034,97.129272 160.081894,98.795090 161.006287,98.774002 
	C162.885941,98.731117 164.744812,97.777260 166.781723,96.459465 
M24.130705,68.696625 
	C24.416746,67.711037 24.702789,66.725456 24.988831,65.739868 
	C22.748966,65.613907 20.509102,65.487946 18.269238,65.361984 
	C18.212883,65.979469 18.156528,66.596954 18.100174,67.214439 
	C19.859505,67.687965 21.618835,68.161499 24.130705,68.696625 
z"/>
<path fill="#F7F8FE" opacity="1.000000" stroke="none" 
	d="
M1.000000,77.468658 
	C3.920564,77.472145 6.972440,77.557938 9.734422,78.496674 
	C15.528979,80.466103 16.408129,80.158760 17.803135,74.119217 
	C18.060339,73.005684 18.154133,71.854401 18.290850,70.938332 
	C22.728783,70.146233 26.932230,69.395988 31.496061,69.202148 
	C31.798353,70.527435 31.740263,71.296318 31.571747,72.161972 
	C31.332434,72.565811 31.429379,72.797539 31.848309,73.317299 
	C32.313892,75.115486 32.683327,76.550285 33.074787,78.379959 
	C33.306187,79.254890 33.515560,79.734962 33.658928,80.353348 
	C33.656792,80.711319 33.799938,80.848656 34.055347,81.263184 
	C37.354691,89.193802 42.530304,94.762398 50.784416,97.609734 
	C53.359638,98.359314 55.715584,98.831268 58.494247,99.426529 
	C61.289410,99.655182 63.661858,99.760536 66.035332,100.286240 
	C65.368431,105.859711 64.281059,111.010521 64.252693,116.167160 
	C64.242310,118.054848 66.381836,120.570618 68.216980,121.651558 
	C69.612251,122.473389 72.077087,121.479401 74.374344,121.231674 
	C75.097229,121.214684 75.511810,121.259338 76.002045,121.651939 
	C76.396553,125.005089 76.715408,128.010284 77.029991,131.379761 
	C76.910965,132.461456 76.796219,133.178848 76.346161,133.990601 
	C73.577942,136.052460 72.543541,138.018478 76.008698,139.989868 
	C76.000305,140.000000 76.020515,139.982834 76.051941,140.320877 
	C77.591141,142.554581 78.530273,142.265427 78.968269,139.953705 
	C79.003075,139.990280 78.920433,139.932968 79.276550,139.926666 
	C81.414642,137.268402 83.196625,134.616440 85.129761,131.666214 
	C86.540085,129.252472 87.799255,127.136986 89.160217,124.905266 
	C89.262009,124.789040 89.300697,124.482483 89.509499,124.383423 
	C89.718300,124.284363 89.985916,123.907509 90.171791,123.897049 
	C90.357666,123.886597 90.727661,123.844910 91.097748,123.868118 
	C93.617966,121.262909 95.768097,118.634483 98.189209,116.104912 
	C98.971184,116.470123 99.482185,116.736473 100.043190,117.361023 
	C102.274071,122.889076 107.061882,123.257568 111.481583,123.977150 
	C112.008835,125.697113 112.516785,127.354118 113.020905,129.376846 
	C112.895424,130.461197 112.773773,131.179810 112.301689,132.000031 
	C111.404015,135.149414 110.524483,138.205292 110.598274,141.237991 
	C110.612518,141.823547 114.357399,142.318359 116.907295,142.994492 
	C116.907295,140.512451 116.907295,138.714645 116.914520,136.912018 
	C116.921738,136.907181 116.888527,136.888702 117.241875,136.887726 
	C120.514748,133.621536 123.986122,130.692459 126.226761,127.013771 
	C129.744202,121.238785 136.140839,116.239975 132.944427,108.018829 
	C136.591431,101.795753 138.546982,101.232109 145.159378,105.109383 
	C143.643906,105.307976 142.728455,105.427933 141.015503,105.652405 
	C142.773132,108.133492 144.409622,110.399353 145.998306,112.698250 
	C147.673981,115.123062 147.413971,116.942513 144.020676,118.061951 
	C143.373734,116.747551 142.787720,115.556938 142.116104,114.192390 
	C138.221298,119.433800 138.577026,119.287018 142.925995,121.145622 
	C157.291962,127.285202 172.318497,124.215126 187.531342,125.000000 
	C188.000000,131.656052 188.000000,138.312088 188.000000,144.984070 
	C125.776581,144.984070 63.553162,144.984070 1.000000,144.984070 
	C1.000000,122.646851 1.000000,100.292084 1.000000,77.468658 
z"/>
<path fill="#F7F8FE" opacity="1.000000" stroke="none" 
	d="
M188.000000,118.600006 
	C179.094727,118.417252 169.973862,120.435699 161.229721,116.608253 
	C165.101196,113.994736 169.490768,115.272560 173.620895,115.053642 
	C178.089874,114.816765 182.581146,115.000000 187.531342,115.000000 
	C188.000000,116.066673 188.000000,117.133339 188.000000,118.600006 
z"/>
<path fill="#F7F8FE" opacity="1.000000" stroke="none" 
	d="
M0.999999,47.333336 
	C1.515294,47.233997 2.030590,47.467991 2.545886,47.701988 
	C2.228737,48.108326 1.911587,48.514668 1.297218,48.960503 
	C1.000000,48.555553 1.000000,48.111111 0.999999,47.333336 
z"/>
<path fill="#6189B3" opacity="1.000000" stroke="none" 
	d="
M33.724934,80.215027 
	C33.515560,79.734962 33.306187,79.254890 33.344681,78.110802 
	C33.155586,73.659012 32.718624,69.871254 32.281658,66.083488 
	C32.374233,65.214897 32.466808,64.346298 33.190685,63.240425 
	C35.192436,63.874096 37.328583,64.451508 37.795300,65.668922 
	C39.450291,69.985962 40.295761,74.613899 41.959068,78.926926 
	C42.589172,80.560806 44.607033,81.659500 46.020473,83.320755 
	C46.366749,84.425858 46.684895,85.212349 47.007408,86.373978 
	C47.859631,88.080307 48.419357,89.904373 49.631256,90.612823 
	C51.018696,91.423889 52.985401,91.244057 54.700428,91.494751 
	C54.823582,90.145302 55.020466,88.797661 55.053619,87.446014 
	C55.111858,85.071381 55.069893,82.694290 55.069893,79.645813 
	C57.316803,80.470955 58.561852,80.814552 59.705063,81.368362 
	C63.871559,83.386742 67.805267,86.218147 72.188515,87.391075 
	C83.115616,90.315071 94.187111,92.790916 105.312164,94.841698 
	C110.242882,95.750626 115.515938,95.790916 120.505211,95.178932 
	C129.654099,94.056709 138.686737,92.008499 147.821106,90.725494 
	C149.408981,90.502464 151.258759,92.143883 152.640015,92.967186 
	C151.153702,94.107811 150.014938,95.205399 148.876190,96.302994 
	C148.276230,96.589828 147.676270,96.876663 146.394775,97.146889 
	C145.148605,97.453064 144.583969,97.775841 144.019348,98.098618 
	C143.689087,98.194359 143.358826,98.290108 142.477234,98.289246 
	C141.263916,98.500923 140.601944,98.809196 139.939972,99.117462 
	C135.615845,99.278526 131.291702,99.439590 126.348679,99.199387 
	C123.194160,98.848389 120.658546,98.898651 117.715157,99.014542 
	C116.491119,99.053513 115.674843,99.026848 114.592285,98.705215 
	C110.578903,98.295235 106.831795,98.180214 102.740082,98.044296 
	C101.267555,98.430573 100.139648,98.837753 98.581299,99.391609 
	C95.130676,99.493469 92.110489,99.448662 88.953819,99.132462 
	C87.567101,98.935394 86.316864,99.009720 84.666199,99.110535 
	C83.466827,99.081238 82.667885,99.025459 81.827042,98.810562 
	C81.785126,98.651451 81.369598,98.559906 81.369598,98.559906 
	C81.369598,98.559906 81.144135,98.957436 80.762199,99.016937 
	C79.868080,99.035294 79.355888,98.994156 78.738281,98.736168 
	C78.138138,98.671654 77.643410,98.823982 76.702126,99.044876 
	C74.152260,99.115623 72.048965,99.117798 69.801529,98.861099 
	C68.736237,98.861511 67.815063,99.120804 66.677750,99.499344 
	C66.461609,99.618591 66.034302,99.865891 66.034302,99.865891 
	C63.661858,99.760536 61.289410,99.655182 58.323059,99.146271 
	C55.341152,98.272499 52.953148,97.802299 50.565144,97.332100 
	C42.530304,94.762398 37.354691,89.193802 34.020767,81.141251 
	C33.893692,80.503052 33.817604,80.354782 33.724934,80.215027 
z"/>
<path fill="#668DB5" opacity="1.000000" stroke="none" 
	d="
M152.987564,92.924156 
	C151.258759,92.143883 149.408981,90.502464 147.821106,90.725494 
	C138.686737,92.008499 129.654099,94.056709 120.505211,95.178932 
	C115.515938,95.790916 110.242882,95.750626 105.312164,94.841698 
	C94.187111,92.790916 83.115616,90.315071 72.188515,87.391075 
	C67.805267,86.218147 63.871559,83.386742 59.705063,81.368362 
	C58.561852,80.814552 57.316803,80.470955 55.069893,79.645813 
	C55.069893,82.694290 55.111858,85.071381 55.053619,87.446014 
	C55.020466,88.797661 54.823582,90.145302 54.700428,91.494751 
	C52.985401,91.244057 51.018696,91.423889 49.631256,90.612823 
	C48.419357,89.904373 47.859631,88.080307 47.406811,86.373535 
	C51.413399,86.104286 52.652351,84.475334 51.511211,81.013969 
	C50.634850,78.355736 49.833691,75.672722 48.956657,72.680855 
	C48.276459,71.907219 47.638687,71.453461 47.000168,70.750153 
	C46.999420,70.500610 46.998730,70.001526 46.961983,69.648514 
	C46.678589,68.048401 46.431938,66.801308 45.963577,64.433182 
	C52.037369,68.829185 56.783455,72.643532 61.893158,75.884628 
	C73.018593,82.941521 85.959091,85.097755 98.455956,87.670288 
	C117.972008,91.687744 137.196884,88.368462 155.871933,81.871078 
	C157.984024,81.136246 159.936966,79.944038 162.026291,79.020988 
	C162.088882,79.078056 162.215515,79.190590 162.215515,79.190590 
	C161.712708,81.226227 161.209885,83.261864 160.144012,85.650070 
	C158.326172,87.781662 157.071396,89.560677 155.816620,91.339699 
	C155.816620,91.339699 155.570236,91.747932 155.401917,91.918121 
	C155.233612,92.088310 155.199951,92.093956 155.199951,92.093956 
	C154.998627,92.260956 154.797302,92.427948 154.022156,92.770943 
	C153.448318,92.946945 152.987564,92.924156 152.987564,92.924156 
z"/>
<path fill="#7C9FB9" opacity="1.000000" stroke="none" 
	d="
M54.446312,42.592499 
	C56.075253,41.859261 57.704189,41.126026 59.952225,40.154259 
	C61.899227,40.065521 63.751015,39.712669 64.462341,40.454048 
	C67.215805,43.323856 69.232414,46.971130 72.198174,49.554157 
	C83.057701,59.012249 95.348839,65.246254 110.228630,65.016296 
	C116.539124,64.918770 122.973259,64.253601 129.124100,65.249313 
	C133.609482,65.975433 137.723099,68.998222 141.622162,70.954689 
	C138.711105,70.293114 135.900879,68.640221 133.698410,69.235596 
	C124.631706,71.686485 115.669868,71.952888 106.307312,71.185585 
	C91.311920,69.956657 79.009705,63.054729 67.329842,54.646599 
	C62.596031,51.238808 58.715252,46.646053 54.446312,42.592499 
z"/>
<path fill="#81A3BB" opacity="1.000000" stroke="none" 
	d="
M142.002441,70.997162 
	C137.723099,68.998222 133.609482,65.975433 129.124100,65.249313 
	C122.973259,64.253601 116.539124,64.918770 110.228630,65.016296 
	C95.348839,65.246254 83.057701,59.012249 72.198174,49.554157 
	C69.232414,46.971130 67.215805,43.323856 64.462341,40.454048 
	C63.751015,39.712669 61.899227,40.065521 60.199203,39.925568 
	C60.940689,35.749237 62.054295,31.563065 63.798756,27.203663 
	C64.937363,27.612293 65.775284,28.129541 65.903687,28.785645 
	C68.070404,39.857143 74.114479,47.632805 84.091621,53.240250 
	C96.495384,60.211521 109.481720,62.036915 123.299805,60.793560 
	C126.501099,60.505508 129.764938,60.912617 133.300995,61.148331 
	C136.402328,63.196148 139.202682,65.095482 142.376923,66.997253 
	C143.498566,67.002563 144.246307,67.005424 145.073181,67.378098 
	C145.632355,68.133369 146.263321,68.945732 146.568817,68.837700 
	C149.359512,67.850883 153.163300,67.429787 154.541550,65.398476 
	C155.903183,63.391651 155.141632,59.651035 154.650131,56.784401 
	C154.328949,54.911034 151.762497,53.252953 154.706940,51.442604 
	C154.706940,51.442604 154.434952,51.556473 154.656815,51.809990 
	C155.919739,56.042461 156.960785,60.021420 157.999969,64.384476 
	C156.062790,66.830956 154.470749,69.895592 152.106430,70.705353 
	C149.062210,71.747955 145.399017,70.983353 142.002441,70.997162 
z"/>
<path fill="#789BB9" opacity="1.000000" stroke="none" 
	d="
M141.622162,70.954689 
	C145.399017,70.983353 149.062210,71.747955 152.106430,70.705353 
	C154.470749,69.895592 156.062790,66.830956 158.328613,64.336395 
	C159.774292,63.267193 160.889450,62.630161 162.006165,62.391617 
	C162.008713,63.852085 162.009705,64.914062 161.863373,66.279556 
	C158.143631,69.056404 154.571213,71.529739 150.570404,74.002426 
	C148.427902,74.002029 146.713776,74.002281 144.714783,73.712952 
	C141.486450,73.497147 138.508606,73.307388 135.605026,73.686432 
	C112.460625,76.707779 89.819870,76.633408 69.570641,62.678226 
	C65.239182,59.693111 59.926796,56.674408 57.831299,52.335732 
	C55.957172,48.455402 53.657356,46.006004 50.546337,43.696495 
	C51.622570,43.332397 52.698803,42.968296 54.110672,42.598351 
	C58.715252,46.646053 62.596031,51.238808 67.329842,54.646599 
	C79.009705,63.054729 91.311920,69.956657 106.307312,71.185585 
	C115.669868,71.952888 124.631706,71.686485 133.698410,69.235596 
	C135.900879,68.640221 138.711105,70.293114 141.622162,70.954689 
z"/>
<path fill="#8CADBD" opacity="1.000000" stroke="none" 
	d="
M78.843346,10.676485 
	C81.322243,9.462730 83.801147,8.248975 86.645172,7.391071 
	C86.802834,9.865731 87.370018,12.594657 86.260681,14.003141 
	C79.658295,22.385914 79.551086,26.461298 85.503189,34.966732 
	C92.254059,44.613579 101.560913,48.778477 113.449905,49.000107 
	C116.599937,49.000248 119.299965,49.000122 122.235420,49.269550 
	C125.647430,49.026573 128.824020,48.514050 132.000336,48.371670 
	C131.333176,50.161404 130.666275,51.580997 129.559387,53.000454 
	C127.956223,53.021938 126.757294,52.865864 125.635246,53.091728 
	C107.676979,56.706619 92.308678,51.924603 80.668732,37.823231 
	C76.818871,33.159256 74.435806,27.015827 76.669495,20.084282 
	C77.629700,17.104555 81.517700,14.538281 78.843346,10.676485 
z"/>
<path fill="#91B0BD" opacity="1.000000" stroke="none" 
	d="
M112.999908,48.999847 
	C101.560913,48.778477 92.254059,44.613579 85.503189,34.966732 
	C79.551086,26.461298 79.658295,22.385914 86.260681,14.003141 
	C87.370018,12.594657 86.802834,9.865731 87.004013,7.365088 
	C94.057106,6.952410 101.116493,6.921565 108.380737,7.200097 
	C105.641220,8.969069 102.712227,10.460770 99.749649,11.882452 
	C89.370972,16.862970 87.512062,25.914614 92.461891,33.047482 
	C97.084885,39.709370 103.072281,44.673145 111.155510,47.242702 
	C111.873779,47.990116 112.436844,48.494984 112.999908,48.999847 
z"/>
<path fill="#89A9BD" opacity="1.000000" stroke="none" 
	d="
M78.506104,10.774277 
	C81.517700,14.538281 77.629700,17.104555 76.669495,20.084282 
	C74.435806,27.015827 76.818871,33.159256 80.668732,37.823231 
	C92.308678,51.924603 107.676979,56.706619 125.635246,53.091728 
	C126.757294,52.865864 127.956223,53.021938 129.592560,53.345482 
	C130.376968,54.793762 130.688187,55.896881 130.537262,57.000061 
	C122.400902,57.173145 114.660767,58.048527 107.069550,57.336441 
	C98.141670,56.498974 90.295807,52.750408 83.070953,46.849514 
	C76.449417,41.441383 70.776062,36.244934 69.716774,27.239414 
	C69.531227,25.662008 67.119980,24.346401 65.736656,22.909885 
	C69.880722,18.897282 74.024796,14.884674 78.506104,10.774277 
M70.800804,20.398924 
	C70.796432,20.788321 70.792061,21.177715 70.787689,21.567112 
	C70.949242,21.568584 71.251175,21.580992 71.252037,21.569944 
	C71.282227,21.182480 71.284096,20.792809 70.800804,20.398924 
z"/>
<path fill="#7498B9" opacity="1.000000" stroke="none" 
	d="
M50.203133,43.716690 
	C53.657356,46.006004 55.957172,48.455402 57.831299,52.335732 
	C59.926796,56.674408 65.239182,59.693111 69.570641,62.678226 
	C89.819870,76.633408 112.460625,76.707779 135.605026,73.686432 
	C138.508606,73.307388 141.486450,73.497147 144.507294,73.973053 
	C143.723312,74.682037 142.861938,74.841324 141.602417,75.008072 
	C136.572250,76.007050 131.919891,76.915199 127.319801,78.037514 
	C125.810173,78.405823 124.436073,79.329613 122.781937,80.109039 
	C122.291832,80.418358 122.103775,80.678688 121.749847,80.999619 
	C121.500000,80.999550 121.000305,80.999695 120.890678,80.781616 
	C120.581184,80.291634 120.320732,80.103691 119.749771,79.999840 
	C119.499847,79.999985 119.000008,79.999992 118.750000,79.999992 
	C118.333328,79.999992 118.166656,79.999992 117.750000,79.999992 
	C117.500000,79.999992 117.000008,79.999992 116.750000,79.999992 
	C116.333328,79.999992 116.166656,79.999992 115.750000,79.999992 
	C115.500000,79.999992 115.000008,79.999992 114.907181,79.605331 
	C114.151535,78.814766 113.526192,78.166862 112.820099,78.061836 
	C105.543655,76.979477 98.211227,76.221573 90.978462,74.909775 
	C80.433762,72.997307 71.037697,68.345016 62.476875,61.952843 
	C60.673092,60.606003 58.826618,59.316322 56.749901,58.000153 
	C56.499985,58.000000 56.000153,57.999695 55.963501,57.649727 
	C54.175640,54.461807 52.512829,51.561977 50.603699,48.834568 
	C50.187908,48.240566 48.890766,48.263496 47.624016,48.001625 
	C46.497265,48.002319 45.746037,48.003677 44.990089,47.730431 
	C44.979877,47.091110 44.974388,46.726398 44.968903,46.361683 
	C46.599239,45.486752 48.229580,44.611820 50.203133,43.716690 
z"/>
<path fill="#9AB8C1" opacity="1.000000" stroke="none" 
	d="
M111.000305,47.000153 
	C103.072281,44.673145 97.084885,39.709370 92.461891,33.047482 
	C87.512062,25.914614 89.370972,16.862970 99.749649,11.882452 
	C102.712227,10.460770 105.641220,8.969069 108.805191,7.232981 
	C112.929771,8.722573 116.834770,10.488660 120.774048,12.840212 
	C119.997459,13.734698 119.158249,14.366110 118.380524,14.297780 
	C114.715378,13.975765 111.054909,13.008691 107.415207,13.106527 
	C98.556770,13.344648 92.021660,23.296204 95.240883,29.571775 
	C99.044510,36.986591 103.865242,42.773926 112.458023,44.705715 
	C121.154602,46.660847 130.726608,40.253159 129.524155,32.545708 
	C129.004913,29.217424 130.278183,27.985907 132.523224,26.662800 
	C133.374603,28.200743 134.225998,29.738684 134.722610,31.632925 
	C133.536896,32.726425 132.130310,33.354454 131.966492,34.218182 
	C130.711533,40.835194 124.239616,48.247097 116.427185,47.040619 
	C114.658325,46.767460 112.811333,47.000256 111.000305,47.000153 
z"/>
<path fill="#84A6BC" opacity="1.000000" stroke="none" 
	d="
M65.484604,23.109032 
	C67.119980,24.346401 69.531227,25.662008 69.716774,27.239414 
	C70.776062,36.244934 76.449417,41.441383 83.070953,46.849514 
	C90.295807,52.750408 98.141670,56.498974 107.069550,57.336441 
	C114.660767,58.048527 122.400902,57.173145 130.803406,57.191063 
	C132.021118,58.587948 132.510559,59.793900 133.000000,60.999847 
	C129.764938,60.912617 126.501099,60.505508 123.299805,60.793560 
	C109.481720,62.036915 96.495384,60.211521 84.091621,53.240250 
	C74.114479,47.632805 68.070404,39.857143 65.903687,28.785645 
	C65.775284,28.129541 64.937363,27.612293 64.033951,26.940804 
	C64.169716,25.670177 64.701134,24.489178 65.484604,23.109032 
z"/>
<path fill="#A3BEC5" opacity="1.000000" stroke="none" 
	d="
M132.444214,26.312639 
	C130.278183,27.985907 129.004913,29.217424 129.524155,32.545708 
	C130.726608,40.253159 121.154602,46.660847 112.458023,44.705715 
	C103.865242,42.773926 99.044510,36.986591 95.240883,29.571775 
	C92.021660,23.296204 98.556770,13.344648 107.415207,13.106527 
	C111.054909,13.008691 114.715378,13.975765 118.380524,14.297780 
	C119.158249,14.366110 119.997459,13.734698 120.964478,13.120073 
	C124.868813,17.197140 128.617004,21.579809 132.444214,26.312639 
M105.592789,39.090622 
	C107.353851,39.884251 109.195221,40.538754 110.859764,41.499599 
	C114.675163,43.702034 118.065094,43.420864 121.238579,40.277130 
	C124.872551,36.677231 128.010666,32.970760 126.614189,27.254787 
	C124.770340,19.707655 118.968864,15.869273 109.327599,15.999524 
	C99.397850,16.133671 94.597969,23.910303 99.497559,32.260201 
	C100.891129,34.635143 103.186562,36.480881 105.592789,39.090622 
z"/>
<path fill="#8BABBF" opacity="1.000000" stroke="none" 
	d="
M133.300995,61.148331 
	C132.510559,59.793900 132.021118,58.587948 131.265533,57.191002 
	C130.688187,55.896881 130.376968,54.793762 130.032562,53.345619 
	C130.666275,51.580997 131.333176,50.161404 132.280457,48.162212 
	C134.130157,46.921955 135.820389,45.521282 137.243698,45.753891 
	C140.255875,46.246170 141.227966,45.336040 140.936325,42.509193 
	C143.490250,43.143551 146.044189,43.777908 148.848877,45.011612 
	C149.775955,46.047062 150.452301,46.483166 151.128632,46.919270 
	C151.128632,46.919270 151.035263,46.949657 151.066635,47.278400 
	C152.182281,48.433250 153.266571,49.259357 154.350845,50.085464 
	C154.627335,50.317379 154.756485,50.613178 154.722626,51.207733 
	C151.762497,53.252953 154.328949,54.911034 154.650131,56.784401 
	C155.141632,59.651035 155.903183,63.391651 154.541550,65.398476 
	C153.163300,67.429787 149.359512,67.850883 146.568817,68.837700 
	C146.263321,68.945732 145.632355,68.133369 145.438904,67.335129 
	C154.055893,64.041840 155.095459,60.071899 149.159271,53.679008 
	C147.919205,52.343521 146.609207,51.065372 145.257034,49.843124 
	C142.351410,47.216698 139.352249,46.493980 136.105499,49.389862 
	C132.873352,52.272713 133.735168,55.229115 135.799332,58.224045 
	C137.831360,61.172348 139.932312,64.073158 142.003021,66.994812 
	C139.202682,65.095482 136.402328,63.196148 133.300995,61.148331 
z"/>
<path fill="#668DB5" opacity="1.000000" stroke="none" 
	d="
M45.992340,83.002136 
	C44.607033,81.659500 42.589172,80.560806 41.959068,78.926926 
	C40.295761,74.613899 39.450291,69.985962 37.795300,65.668922 
	C37.328583,64.451508 35.192436,63.874096 33.419437,63.003227 
	C34.503544,57.081699 36.408154,51.407333 42.394722,47.868591 
	C42.831497,47.847805 43.040661,48.058796 42.990311,48.390518 
	C42.293377,50.148922 41.646797,51.575607 40.857601,53.327637 
	C40.665737,54.742096 40.145386,56.170025 40.644855,56.864521 
	C43.558853,60.916382 45.384708,65.043083 42.852356,70.332970 
	C42.755726,72.212807 42.488525,73.852417 42.923599,75.277657 
	C43.729794,77.918640 44.946560,80.434288 45.992340,83.002136 
z"/>
<path fill="#FDF1D1" opacity="1.000000" stroke="none" 
	d="
M132.687927,107.895050 
	C136.140839,116.239975 129.744202,121.238785 126.226761,127.013771 
	C123.986122,130.692459 120.514748,133.621536 117.288422,136.549713 
	C118.052956,134.233963 119.124290,132.255249 120.186401,130.241028 
	C120.177177,130.205505 120.144188,130.143692 120.392181,130.056946 
	C120.844933,129.689880 121.049698,129.409546 121.478653,128.946259 
	C122.170555,127.940201 122.638260,127.117096 123.393051,126.112366 
	C125.124634,123.958466 126.569122,121.986191 128.223267,119.900833 
	C128.691849,119.563339 128.814407,119.279930 129.049606,118.689026 
	C129.950699,116.035149 131.536758,113.430206 131.073730,111.263069 
	C129.851685,105.543465 124.125443,107.741539 120.034439,106.366615 
	C120.982948,104.108551 121.801117,102.160774 122.948624,100.117645 
	C123.506027,100.007492 123.734116,99.992676 123.962204,99.977867 
	C123.960762,100.426765 123.959320,100.875664 123.835014,101.966164 
	C124.474266,103.412331 125.236382,104.216896 125.998505,105.021469 
	C125.998497,105.021469 126.485542,105.042175 126.969299,105.310089 
	C128.627487,105.737701 129.801910,105.897385 130.976349,106.057076 
	C131.461380,106.628471 131.946396,107.199875 132.687927,107.895050 
z"/>
<path fill="#91B0BD" opacity="1.000000" stroke="none" 
	d="
M140.626282,42.366524 
	C141.227966,45.336040 140.255875,46.246170 137.243698,45.753891 
	C135.820389,45.521282 134.130157,46.921955 132.280731,47.792068 
	C128.824020,48.514050 125.647430,49.026573 122.437256,48.995834 
	C126.547798,46.040089 131.409576,44.498074 132.832199,38.949375 
	C133.052383,38.090542 134.873703,37.642208 135.954575,37.004044 
	C135.550812,40.296234 136.988571,42.049648 140.626282,42.366524 
z"/>
<path fill="#96B4BF" opacity="1.000000" stroke="none" 
	d="
M136.028030,36.626221 
	C134.873703,37.642208 133.052383,38.090542 132.832199,38.949375 
	C131.409576,44.498074 126.547798,46.040089 122.201843,48.726280 
	C119.299965,49.000122 116.599937,49.000248 113.449905,49.000111 
	C112.436844,48.494984 111.873779,47.990116 111.155510,47.242702 
	C112.811333,47.000256 114.658325,46.767460 116.427185,47.040619 
	C124.239616,48.247097 130.711533,40.835194 131.966492,34.218182 
	C132.130310,33.354454 133.536896,32.726425 134.732544,31.981838 
	C135.431976,33.399101 135.766739,34.823750 136.028030,36.626221 
z"/>
<path fill="#7D9FB7" opacity="1.000000" stroke="none" 
	d="
M162.004608,61.993130 
	C160.889450,62.630161 159.774292,63.267193 158.330490,63.952301 
	C156.960785,60.021420 155.919739,56.042461 154.648895,51.662766 
	C154.419128,51.262028 154.459991,51.025879 154.948639,50.985207 
	C155.695938,50.933014 155.954605,50.921501 156.213272,50.909985 
	C158.194397,53.941296 160.175537,56.972607 162.100449,60.687271 
	C162.031036,61.578121 162.017822,61.785625 162.004608,61.993130 
z"/>
<path fill="#F7F8FE" opacity="1.000000" stroke="none" 
	d="
M166.696991,96.829132 
	C164.744812,97.777260 162.885941,98.731117 161.006287,98.774002 
	C160.081894,98.795090 159.119034,97.129272 158.173584,96.226822 
	C159.146500,95.667152 160.196777,94.542648 161.076538,94.663147 
	C163.023758,94.929855 164.885254,95.822258 166.696991,96.829132 
z"/>
<path fill="#F7F8FE" opacity="1.000000" stroke="none" 
	d="
M23.754435,68.665825 
	C21.618835,68.161499 19.859505,67.687965 18.100174,67.214439 
	C18.156528,66.596954 18.212883,65.979469 18.269238,65.361984 
	C20.509102,65.487946 22.748966,65.613907 24.988831,65.739868 
	C24.702789,66.725456 24.416746,67.711037 23.754435,68.665825 
z"/>
<path fill="#668DB5" opacity="1.000000" stroke="none" 
	d="
M32.161938,66.436020 
	C32.718624,69.871254 33.155586,73.659012 33.322655,77.715927 
	C32.683327,76.550285 32.313892,75.115486 31.877867,73.091446 
	C31.811275,72.502205 31.682169,72.065208 31.682171,72.065208 
	C31.740263,71.296318 31.798353,70.527435 31.786045,69.377594 
	C31.824505,68.260620 31.933359,67.524590 32.161938,66.436020 
z"/>
<path fill="#8C9DAF" opacity="1.000000" stroke="none" 
	d="
M156.114777,91.291039 
	C157.071396,89.560677 158.326172,87.781662 159.879486,85.951035 
	C158.923019,87.680405 157.667984,89.461395 156.114777,91.291039 
z"/>
<path fill="#668DB5" opacity="1.000000" stroke="none" 
	d="
M164.583923,68.103027 
	C164.324905,70.659935 164.065887,73.216835 163.425110,75.907425 
	C163.043350,76.041115 162.957642,75.958427 162.971863,75.546051 
	C162.988525,73.755295 162.990967,72.376915 162.996826,70.668518 
	C163.311050,69.581146 163.621841,68.823792 164.094971,68.084160 
	C164.257309,68.101883 164.583923,68.103027 164.583923,68.103027 
z"/>
<path fill="#85A2BC" opacity="1.000000" stroke="none" 
	d="
M164.671570,67.722763 
	C164.583923,68.103027 164.257309,68.101883 164.000580,67.802475 
	C163.166138,66.994057 162.588409,66.485046 162.010681,65.976036 
	C162.009705,64.914062 162.008713,63.852085 162.006165,62.391624 
	C162.017822,61.785625 162.031036,61.578121 162.078278,61.060081 
	C162.994644,62.947205 163.876938,65.144859 164.671570,67.722763 
z"/>
<path fill="#8C9DAF" opacity="1.000000" stroke="none" 
	d="
M124.324707,99.914597 
	C123.734116,99.992676 123.506027,100.007492 122.637886,100.004967 
	C120.706192,99.641388 119.414558,99.295143 118.122925,98.948914 
	C120.658546,98.898651 123.194160,98.848389 125.899704,99.095810 
	C125.608818,99.546097 125.148010,99.698715 124.324707,99.914597 
z"/>
<path fill="#8C9DAF" opacity="1.000000" stroke="none" 
	d="
M152.640015,92.967186 
	C152.987564,92.924156 153.448318,92.946945 153.678299,92.959885 
	C152.438431,94.091217 150.968582,95.209610 149.187469,96.315498 
	C150.014938,95.205399 151.153702,94.107811 152.640015,92.967186 
z"/>
<path fill="#F7F8FE" opacity="1.000000" stroke="none" 
	d="
M125.993729,104.663956 
	C125.236382,104.216896 124.474266,103.412331 123.838898,102.302818 
	C124.640083,102.767395 125.314522,103.536919 125.993729,104.663956 
z"/>
<path fill="#F7F8FE" opacity="1.000000" stroke="none" 
	d="
M130.930328,105.708374 
	C129.801910,105.897385 128.627487,105.737701 127.213005,105.314369 
	C128.276733,105.153709 129.580505,105.256691 130.930328,105.708374 
z"/>
<path fill="#81A3BB" opacity="1.000000" stroke="none" 
	d="
M154.366486,49.710293 
	C153.266571,49.259357 152.182281,48.433250 151.090668,47.235588 
	C152.182922,47.687725 153.282516,48.511421 154.366486,49.710293 
z"/>
<path fill="#668DB5" opacity="1.000000" stroke="none" 
	d="
M44.671120,46.338776 
	C44.974388,46.726398 44.979877,47.091110 44.989555,47.976910 
	C44.993744,48.497993 44.992676,48.991081 44.741302,48.887939 
	C44.006836,48.542801 43.523746,48.300800 43.040661,48.058796 
	C43.040661,48.058796 42.831497,47.847805 42.719063,47.744740 
	C43.195530,47.199738 43.784431,46.757801 44.671120,46.338776 
z"/>
<path fill="#81A3BB" opacity="1.000000" stroke="none" 
	d="
M151.066986,46.605114 
	C150.452301,46.483166 149.775955,46.047062 149.060013,45.276497 
	C149.682053,45.391678 150.343689,45.841320 151.066986,46.605114 
z"/>
<path fill="#8C9DAF" opacity="1.000000" stroke="none" 
	d="
M140.204559,99.253052 
	C140.601944,98.809196 141.263916,98.500923 142.218719,98.292511 
	C141.830734,98.724457 141.149933,99.056541 140.204559,99.253052 
z"/>
<path fill="#668DB5" opacity="1.000000" stroke="none" 
	d="
M163.086761,76.081879 
	C163.016403,77.019600 162.902649,77.916573 162.502197,79.002060 
	C162.215515,79.190590 162.088882,79.078056 162.038681,78.651329 
	C161.992325,77.483681 161.996170,76.742752 162.239563,75.994354 
	C162.479126,75.986870 162.957642,75.958427 162.957642,75.958427 
	C162.957642,75.958427 163.043350,76.041115 163.086761,76.081879 
z"/>
<path fill="#8C9DAF" opacity="1.000000" stroke="none" 
	d="
M144.347900,98.110352 
	C144.583969,97.775841 145.148605,97.453064 146.061264,97.191925 
	C145.831680,97.543060 145.254074,97.832565 144.347900,98.110352 
z"/>
<path fill="#81A3BB" opacity="1.000000" stroke="none" 
	d="
M156.050537,50.671741 
	C155.954605,50.921501 155.695938,50.933014 155.047424,50.917404 
	C155.067657,50.738018 155.477722,50.585758 156.050537,50.671741 
z"/>
<path fill="#8C9DAF" opacity="1.000000" stroke="none" 
	d="
M155.210419,92.180176 
	C155.199951,92.093956 155.233612,92.088310 155.220642,92.072968 
	C155.207657,92.057617 155.220871,92.266396 155.210419,92.180176 
z"/>
<path fill="#FAC134" opacity="1.000000" stroke="none" 
	d="
M90.727661,123.844910 
	C90.727661,123.844910 90.357666,123.886597 90.036293,123.744858 
	C89.576843,123.896233 89.438774,124.189362 89.300697,124.482483 
	C89.300697,124.482483 89.262009,124.789040 88.774872,124.934692 
	C83.335083,128.021362 81.463081,123.685928 78.485947,121.074471 
	C77.386169,121.142540 76.656273,121.223267 75.926384,121.303993 
	C75.511810,121.259338 75.097229,121.214684 73.997337,121.102982 
	C71.140114,119.793579 68.968208,118.551224 66.779022,117.031113 
	C66.499237,116.510193 66.236748,116.267036 65.807083,115.831841 
	C65.801826,114.094414 65.963737,112.549011 66.437531,111.000381 
	C67.166695,110.991859 67.583969,110.986565 68.287109,111.197739 
	C76.459366,114.058708 84.345749,116.703209 92.230988,119.696564 
	C91.729126,121.311913 91.228394,122.578415 90.727661,123.844910 
z"/>
<path fill="#F9F8F4" opacity="1.000000" stroke="none" 
	d="
M89.090302,99.403854 
	C92.110489,99.448662 95.130676,99.493469 98.946892,99.558044 
	C100.803856,99.560188 101.864784,99.542564 102.992554,99.702805 
	C103.059380,99.880669 103.360825,100.112045 103.295303,100.530106 
	C102.960014,102.326813 102.690239,103.705467 102.302208,105.230682 
	C102.056725,105.610237 102.019493,105.856903 102.075821,106.342720 
	C102.079376,106.568222 101.912094,106.987122 101.582535,107.047485 
	C101.142128,108.402313 101.031273,109.696770 100.939278,111.406273 
	C100.904366,113.204384 100.850586,114.587448 100.611176,116.096924 
	C100.215363,116.446510 100.071243,116.706337 99.993187,117.002823 
	C99.482185,116.736473 98.971184,116.470123 98.019562,115.937698 
	C97.224342,114.771736 96.869743,113.871849 96.418732,112.660736 
	C96.323463,111.917320 96.324615,111.485107 96.609138,110.974350 
	C96.438080,110.347885 95.983650,109.799973 95.276489,109.140244 
	C94.335152,108.424599 93.646553,107.820755 92.916946,107.018417 
	C92.581528,106.861343 92.287125,106.902779 91.579468,106.951004 
	C89.794731,106.883049 88.423256,106.808327 87.037674,106.327347 
	C86.975548,104.552086 86.927528,103.183067 86.878670,101.541702 
	C86.940987,100.912071 87.004150,100.554794 87.416489,100.094742 
	C88.207207,99.795929 88.648758,99.599892 89.090302,99.403854 
z"/>
<path fill="#F5D756" opacity="1.000000" stroke="none" 
	d="
M78.855835,121.087128 
	C81.463081,123.685928 83.335083,128.021362 88.673088,125.050919 
	C87.799255,127.136986 86.540085,129.252472 84.821877,131.803040 
	C82.548706,134.803055 80.734573,137.368011 78.920433,139.932968 
	C78.920433,139.932968 79.003075,139.990280 78.604416,139.960602 
	C77.477348,139.948242 76.748932,139.965530 76.020515,139.982834 
	C76.020515,139.982834 76.000305,140.000000 76.019302,139.601288 
	C76.252693,137.433807 76.467079,135.665024 76.681473,133.896255 
	C76.796219,133.178848 76.910965,132.461456 77.291794,131.110992 
	C77.990524,127.347664 78.423180,124.217400 78.855835,121.087128 
z"/>
<path fill="#F5DC55" opacity="1.000000" stroke="none" 
	d="
M120.195625,130.276535 
	C119.124290,132.255249 118.052956,134.233963 116.935074,136.550690 
	C116.888527,136.888702 116.921738,136.907181 116.606232,137.059814 
	C115.163368,138.140305 114.036018,139.068161 111.726685,140.968826 
	C112.145348,136.865402 112.398735,134.381912 112.652122,131.898438 
	C112.773773,131.179810 112.895424,130.461197 113.272636,129.148102 
	C114.060562,127.027466 114.592926,125.501282 115.338028,123.983505 
	C115.550766,123.991898 115.977386,124.009972 115.978722,124.436523 
	C115.588287,128.066879 116.188957,130.497864 120.195625,130.276535 
z"/>
<path fill="#FCF2CF" opacity="1.000000" stroke="none" 
	d="
M66.796303,117.308876 
	C68.968208,118.551224 71.140114,119.793579 73.689026,121.164627 
	C72.077087,121.479401 69.612251,122.473389 68.216980,121.651558 
	C66.381836,120.570618 64.242310,118.054848 64.252693,116.167160 
	C64.281059,111.010521 65.368431,105.859711 66.035332,100.286240 
	C66.034302,99.865891 66.461609,99.618591 66.960960,99.694580 
	C67.663185,99.875893 67.866051,99.981209 68.054031,100.482498 
	C67.401306,104.253517 66.763481,107.628571 66.125648,111.003616 
	C65.963737,112.549011 65.801826,114.094414 65.859848,116.091415 
	C66.318626,116.798302 66.557465,117.053589 66.796303,117.308876 
z"/>
<path fill="#FDF1D1" opacity="1.000000" stroke="none" 
	d="
M115.125305,123.975105 
	C114.592926,125.501282 114.060562,127.027466 113.276474,128.782379 
	C112.516785,127.354118 112.008835,125.697113 111.481583,123.977150 
	C107.061882,123.257568 102.274071,122.889076 100.043190,117.361023 
	C100.071243,116.706337 100.215363,116.446510 100.830078,116.384064 
	C103.382622,120.261887 106.644081,121.506310 110.797112,121.002121 
	C113.011589,120.733276 115.245415,120.715904 115.125305,123.975105 
z"/>
<path fill="#FDF1D1" opacity="1.000000" stroke="none" 
	d="
M112.301689,132.000031 
	C112.398735,134.381912 112.145348,136.865402 111.726685,140.968826 
	C114.036018,139.068161 115.163368,138.140305 116.599007,137.064636 
	C116.907295,138.714645 116.907295,140.512451 116.907295,142.994492 
	C114.357399,142.318359 110.612518,141.823547 110.598274,141.237991 
	C110.524483,138.205292 111.404015,135.149414 112.301689,132.000031 
z"/>
<path fill="#FCF2CF" opacity="1.000000" stroke="none" 
	d="
M96.515144,112.971954 
	C96.869743,113.871849 97.224342,114.771736 97.748581,115.838844 
	C95.768097,118.634483 93.617966,121.262909 91.097748,123.868118 
	C91.228394,122.578415 91.729126,121.311913 92.228134,119.650085 
	C92.226425,119.254761 92.173546,119.178856 92.437622,119.110497 
	C92.877571,118.727257 93.053452,118.412369 93.501358,117.943275 
	C94.198517,116.891418 94.623634,115.993767 95.333374,114.922249 
	C95.917038,114.156235 96.216095,113.564095 96.515144,112.971954 
z"/>
<path fill="#FCF2CF" opacity="1.000000" stroke="none" 
	d="
M78.485947,121.074471 
	C78.423180,124.217400 77.990524,127.347664 77.296066,130.746704 
	C76.715408,128.010284 76.396553,125.005089 76.002045,121.651939 
	C76.656273,121.223267 77.386169,121.142540 78.485947,121.074471 
z"/>
<path fill="#FCF2CF" opacity="1.000000" stroke="none" 
	d="
M79.276550,139.926666 
	C80.734573,137.368011 82.548706,134.803055 84.670715,132.101288 
	C83.196625,134.616440 81.414642,137.268402 79.276550,139.926666 
z"/>
<path fill="#8C9DAF" opacity="1.000000" stroke="none" 
	d="
M50.784416,97.609734 
	C52.953148,97.802299 55.341152,98.272499 57.900345,99.022964 
	C55.715584,98.831268 53.359638,98.359314 50.784416,97.609734 
z"/>
<path fill="#FCF2CF" opacity="1.000000" stroke="none" 
	d="
M76.346161,133.990601 
	C76.467079,135.665024 76.252693,137.433807 76.027702,139.591156 
	C72.543541,138.018478 73.577942,136.052460 76.346161,133.990601 
z"/>
<path fill="#FCF2CF" opacity="1.000000" stroke="none" 
	d="
M76.051941,140.320877 
	C76.748932,139.965530 77.477348,139.948242 78.569611,139.924026 
	C78.530273,142.265427 77.591141,142.554581 76.051941,140.320877 
z"/>
<path fill="#668DB5" opacity="1.000000" stroke="none" 
	d="
M33.658928,80.353348 
	C33.817604,80.354782 33.893692,80.503052 33.987778,80.781754 
	C33.799938,80.848656 33.656792,80.711319 33.658928,80.353348 
z"/>
<path fill="#F5D756" opacity="1.000000" stroke="none" 
	d="
M89.509499,124.383423 
	C89.438774,124.189362 89.576843,123.896233 89.850418,123.755310 
	C89.985916,123.907509 89.718300,124.284363 89.509499,124.383423 
z"/>
<path fill="#F9FAFE" opacity="1.000000" stroke="none" 
	d="
M31.571745,72.161972 
	C31.682169,72.065208 31.811275,72.502205 31.781715,72.728058 
	C31.429379,72.797539 31.332434,72.565811 31.571745,72.161972 
z"/>
<path fill="#F0A539" opacity="1.000000" stroke="none" 
	d="
M96.418732,112.660736 
	C96.216095,113.564095 95.917038,114.156235 95.169655,114.604553 
	C87.571754,111.746841 80.519775,108.708244 73.214432,106.512672 
	C70.959290,105.834900 67.256149,106.598053 68.001236,110.981277 
	C67.583969,110.986565 67.166695,110.991859 66.437546,111.000381 
	C66.763481,107.628571 67.401306,104.253517 68.329773,100.436661 
	C69.062157,99.703232 69.503914,99.411606 69.945663,99.119980 
	C72.048965,99.117798 74.152260,99.115623 76.981087,99.120865 
	C78.085640,99.069862 78.464676,99.011444 78.843704,98.953018 
	C79.355888,98.994156 79.868080,99.035294 80.941490,99.079773 
	C81.502716,99.083107 81.868950,98.969681 81.868950,98.969681 
	C82.667885,99.025459 83.466827,99.081238 84.835571,99.353119 
	C85.959351,99.778648 86.513329,99.988083 87.067307,100.197517 
	C87.004150,100.554794 86.940987,100.912071 86.628204,101.762146 
	C83.971924,106.449173 83.971924,106.449173 87.051773,106.733597 
	C88.423256,106.808327 89.794731,106.883049 91.805695,107.072731 
	C92.616104,107.197426 92.787033,107.207176 92.957954,107.216919 
	C93.646553,107.820755 94.335152,108.424599 95.363983,109.458878 
	C95.911407,110.277184 96.118584,110.665039 96.325768,111.052902 
	C96.324615,111.485107 96.323463,111.917320 96.418732,112.660736 
z"/>
<path fill="#F0A83A" opacity="1.000000" stroke="none" 
	d="
M101.912094,106.987122 
	C101.912094,106.987122 102.079376,106.568222 102.248367,106.217674 
	C102.632729,105.606895 102.633774,105.345894 102.420471,105.084122 
	C102.690239,103.705467 102.960014,102.326813 103.680725,100.487289 
	C107.707306,99.684341 111.282936,99.342262 114.858574,99.000183 
	C115.674843,99.026848 116.491119,99.053513 117.715157,99.014542 
	C119.414558,99.295143 120.706192,99.641388 122.308563,100.100311 
	C121.801117,102.160774 120.982948,104.108551 120.034439,106.366615 
	C124.125443,107.741539 129.851685,105.543465 131.073730,111.263069 
	C131.536758,113.430206 129.950699,116.035149 128.824036,118.448532 
	C128.349442,117.081726 128.349442,115.706940 128.349442,114.846283 
	C122.609512,112.611450 117.394989,109.784103 111.852165,108.793236 
	C109.444397,108.362808 105.145256,104.691376 102.709785,109.982819 
	C102.218315,109.969124 102.021721,109.963669 101.845398,109.585831 
	C101.881149,108.471336 101.896622,107.729233 101.912094,106.987122 
M118.889061,103.426788 
	C118.639565,102.639893 118.430061,101.187164 118.134354,101.169411 
	C115.270470,100.997353 112.392120,101.066101 109.256477,101.066101 
	C111.357872,106.301674 114.277603,106.995941 118.889061,103.426788 
z"/>
<path fill="#6A96BE" opacity="1.000000" stroke="none" 
	d="
M46.020473,83.320755 
	C44.946560,80.434288 43.729794,77.918640 42.923599,75.277657 
	C42.488525,73.852417 42.755726,72.212807 43.252422,70.334427 
	C44.865417,69.999809 45.932072,70.000664 46.998730,70.001526 
	C46.998730,70.001526 46.999420,70.500610 47.042557,71.070015 
	C47.723492,72.093185 48.361286,72.546959 48.999084,73.000725 
	C49.833691,75.672722 50.634850,78.355736 51.511211,81.013969 
	C52.652351,84.475334 51.413399,86.104286 47.402443,85.998390 
	C46.684895,85.212349 46.366749,84.425858 46.020473,83.320755 
z"/>
<path fill="#8C9DAF" opacity="1.000000" stroke="none" 
	d="
M114.592285,98.705215 
	C111.282936,99.342262 107.707306,99.684341 103.746246,100.069229 
	C103.360825,100.112045 103.059380,99.880669 103.008812,99.459976 
	C103.003998,98.715050 103.046143,98.390358 103.084694,98.065201 
	C106.831795,98.180214 110.578903,98.295235 114.592285,98.705215 
z"/>
<path fill="#8C9DAF" opacity="1.000000" stroke="none" 
	d="
M87.416489,100.094742 
	C86.513329,99.988083 85.959351,99.778648 85.236000,99.326630 
	C86.316864,99.009720 87.567101,98.935394 88.953819,99.132462 
	C88.648758,99.599892 88.207207,99.795929 87.416489,100.094742 
z"/>
<path fill="#668DB5" opacity="1.000000" stroke="none" 
	d="
M102.740082,98.044296 
	C103.046143,98.390358 103.003998,98.715050 102.941986,99.282112 
	C101.864784,99.542564 100.803856,99.560188 99.377327,99.411377 
	C100.139648,98.837753 101.267555,98.430573 102.740082,98.044296 
z"/>
<path fill="#8C9DAF" opacity="1.000000" stroke="none" 
	d="
M69.801529,98.861099 
	C69.503914,99.411606 69.062157,99.703232 68.344666,100.040695 
	C67.866051,99.981209 67.663185,99.875893 67.177101,99.575333 
	C67.815063,99.120804 68.736237,98.861511 69.801529,98.861099 
z"/>
<path fill="#8C9DAF" opacity="1.000000" stroke="none" 
	d="
M78.738281,98.736176 
	C78.464676,99.011444 78.085640,99.069862 77.427650,99.052292 
	C77.643410,98.823982 78.138138,98.671654 78.738281,98.736176 
z"/>
<path fill="#8C9DAF" opacity="1.000000" stroke="none" 
	d="
M81.827042,98.810562 
	C81.868950,98.969681 81.502716,99.083107 81.323425,99.020271 
	C81.144135,98.957436 81.369598,98.559906 81.369598,98.559906 
	C81.369598,98.559906 81.785126,98.651451 81.827042,98.810562 
z"/>
<path fill="#6990B6" opacity="1.000000" stroke="none" 
	d="
M46.961983,69.648514 
	C45.932072,70.000664 44.865417,69.999809 43.398693,69.997490 
	C45.384708,65.043083 43.558853,60.916382 40.644855,56.864521 
	C40.145386,56.170025 40.665737,54.742096 41.202515,53.380959 
	C45.067310,56.513184 48.197605,60.217293 51.880444,63.250519 
	C57.238621,67.663574 62.475231,72.831100 68.700806,75.444717 
	C78.528442,79.570557 88.965683,83.301949 99.454994,84.511673 
	C111.119835,85.856979 123.165993,84.623619 134.982239,83.697510 
	C144.383804,82.960648 153.528809,80.444122 162.000000,76.001831 
	C161.996170,76.742752 161.992325,77.483681 161.976089,78.594261 
	C159.936966,79.944038 157.984024,81.136246 155.871933,81.871078 
	C137.196884,88.368462 117.972008,91.687744 98.455956,87.670288 
	C85.959091,85.097755 73.018593,82.941521 61.893158,75.884628 
	C56.783455,72.643532 52.037369,68.829185 45.963577,64.433182 
	C46.431938,66.801308 46.678589,68.048401 46.961983,69.648514 
z"/>
<path fill="#6990B6" opacity="1.000000" stroke="none" 
	d="
M48.956657,72.680855 
	C48.361286,72.546959 47.723492,72.093185 47.043304,71.319557 
	C47.638687,71.453461 48.276459,71.907219 48.956657,72.680855 
z"/>
<path fill="#93B2C5" opacity="1.000000" stroke="none" 
	d="
M142.376923,66.997253 
	C139.932312,64.073158 137.831360,61.172348 135.799332,58.224045 
	C133.735168,55.229115 132.873352,52.272713 136.105499,49.389862 
	C139.352249,46.493980 142.351410,47.216698 145.257034,49.843124 
	C146.609207,51.065372 147.919205,52.343521 149.159271,53.679008 
	C155.095459,60.071899 154.055893,64.041840 145.359741,66.965324 
	C144.246307,67.005424 143.498566,67.002563 142.376923,66.997253 
M145.146545,63.173508 
	C146.359039,62.827984 147.571533,62.482456 148.784027,62.136929 
	C147.695770,59.780880 146.960098,57.132690 145.359619,55.201023 
	C144.638290,54.330429 141.909149,54.331127 140.624268,54.984772 
	C139.692398,55.458828 139.519089,57.635365 139.259857,59.097488 
	C139.177032,59.564621 139.783859,60.352989 140.281525,60.685493 
	C141.592651,61.561501 143.017075,62.267963 145.146545,63.173508 
z"/>
<path fill="#6F95B9" opacity="1.000000" stroke="none" 
	d="
M142.000565,75.000610 
	C142.861938,74.841324 143.723312,74.682037 144.792175,74.262634 
	C146.713776,74.002281 148.427902,74.002029 150.570831,74.252098 
	C150.999664,74.502411 151.000488,75.001831 150.927307,75.367065 
	C145.902542,77.154663 140.950974,78.577026 136.064697,79.646355 
	C138.086868,77.862411 140.043716,76.431511 142.000565,75.000610 
z"/>
<path fill="#7196BA" opacity="1.000000" stroke="none" 
	d="
M151.000488,75.001831 
	C151.000488,75.001831 150.999664,74.502411 150.999222,74.252747 
	C154.571213,71.529739 158.143631,69.056404 161.863373,66.279556 
	C162.588409,66.485046 163.166138,66.994057 163.838257,67.784752 
	C163.621841,68.823792 163.311050,69.581146 162.641113,70.708008 
	C158.521469,72.385620 154.760986,73.693733 151.000488,75.001831 
z"/>
<path fill="#84A6BC" opacity="1.000000" stroke="none" 
	d="
M71.045380,20.401188 
	C71.284096,20.792809 71.282227,21.182480 71.252037,21.569944 
	C71.251175,21.580992 70.949242,21.568584 70.787689,21.567112 
	C70.792061,21.177715 70.796432,20.788321 71.045380,20.401188 
z"/>
<path fill="#6D93B8" opacity="1.000000" stroke="none" 
	d="
M150.927307,75.367065 
	C154.760986,73.693733 158.521469,72.385620 162.637680,71.038025 
	C162.990967,72.376915 162.988525,73.755295 162.971863,75.546051 
	C162.957642,75.958427 162.479126,75.986870 162.239563,75.994354 
	C153.528809,80.444122 144.383804,82.960648 134.982239,83.697510 
	C123.165993,84.623619 111.119835,85.856979 99.454994,84.511673 
	C88.965683,83.301949 78.528442,79.570557 68.700806,75.444717 
	C62.475231,72.831100 57.238621,67.663574 51.880444,63.250519 
	C48.197605,60.217293 45.067310,56.513184 41.345131,53.055611 
	C41.646797,51.575607 42.293377,50.148922 42.990311,48.390518 
	C43.523746,48.300800 44.006836,48.542801 44.749748,49.268684 
	C45.543831,53.900566 47.611912,56.569099 52.258606,57.107643 
	C53.011425,57.477009 53.505634,57.738579 54.035088,58.343056 
	C55.380146,59.790695 56.689964,60.895424 58.138611,62.315010 
	C61.328365,68.685265 67.494080,69.262459 73.053757,71.345459 
	C78.152252,74.198807 83.051559,77.093704 88.298019,79.064384 
	C91.234810,80.167519 94.747047,79.738655 98.374954,80.000130 
	C99.499809,80.000320 100.249702,80.000465 101.086365,80.385117 
	C105.764648,81.885201 110.326820,84.760300 115.249771,81.000153 
	C115.666573,81.000008 115.833290,81.000008 116.250000,81.000008 
	C116.500000,81.000008 116.999992,81.000008 117.250000,81.000008 
	C117.666672,81.000008 117.833344,81.000008 118.250000,81.000008 
	C118.500000,81.000008 118.999992,81.000008 119.250076,81.000008 
	C119.666870,81.000114 119.833588,81.000214 120.250305,81.000198 
	C120.666969,80.999962 120.833641,80.999832 121.000305,80.999695 
	C121.000305,80.999695 121.500000,80.999550 121.999847,80.999817 
	C122.666359,81.000153 122.833031,81.000229 123.249771,81.000313 
	C123.666565,81.000313 123.833282,81.000313 124.253723,81.275558 
	C126.338356,81.034073 128.169266,80.517342 130.428589,80.000473 
	C132.571136,80.000023 134.285263,79.999710 135.999390,79.999390 
	C140.950974,78.577026 145.902542,77.154663 150.927307,75.367065 
z"/>
<path fill="#7296B9" opacity="1.000000" stroke="none" 
	d="
M72.999695,71.000610 
	C67.494080,69.262459 61.328365,68.685265 58.105713,61.969894 
	C57.622597,60.206715 57.311207,59.103512 56.999817,58.000305 
	C58.826618,59.316322 60.673092,60.606003 62.476875,61.952843 
	C71.037697,68.345016 80.433762,72.997307 90.978462,74.909775 
	C98.211227,76.221573 105.543655,76.979477 112.820099,78.061836 
	C113.526192,78.166862 114.151535,78.814766 114.442528,79.605331 
	C109.713661,80.000206 105.356636,80.000404 100.999603,80.000610 
	C100.249702,80.000465 99.499809,80.000320 98.145035,79.727036 
	C89.360008,76.636139 81.179848,73.818375 72.999695,71.000610 
z"/>
<path fill="#7296B9" opacity="1.000000" stroke="none" 
	d="
M136.064697,79.646355 
	C134.285263,79.999710 132.571136,80.000023 130.024567,80.000275 
	C127.461403,80.333565 125.730705,80.666939 124.000000,81.000305 
	C123.833282,81.000313 123.666565,81.000313 123.249893,80.750084 
	C122.999962,80.333031 122.999985,80.166206 123.000000,79.999390 
	C124.436073,79.329613 125.810173,78.405823 127.319801,78.037514 
	C131.919891,76.915199 136.572250,76.007050 141.602417,75.008072 
	C140.043716,76.431511 138.086868,77.862411 136.064697,79.646355 
z"/>
<path fill="#6F95B9" opacity="1.000000" stroke="none" 
	d="
M52.000000,56.999847 
	C47.611912,56.569099 45.543831,53.900566 45.001122,49.371826 
	C44.992676,48.991081 44.993744,48.497993 44.994278,48.251518 
	C45.746037,48.003677 46.497265,48.002319 47.629326,48.372395 
	C49.340107,51.495834 50.670052,54.247841 52.000000,56.999847 
z"/>
<path fill="#7296B9" opacity="1.000000" stroke="none" 
	d="
M52.258606,57.107643 
	C50.670052,54.247841 49.340107,51.495834 48.004852,48.373058 
	C48.890766,48.263496 50.187908,48.240566 50.603699,48.834568 
	C52.512829,51.561977 54.175640,54.461807 55.630119,57.649841 
	C54.888870,58.000000 54.444359,58.000076 53.999847,58.000153 
	C53.505634,57.738579 53.011425,57.477009 52.258606,57.107643 
z"/>
<path fill="#6F95B9" opacity="1.000000" stroke="none" 
	d="
M54.035088,58.343056 
	C54.444359,58.000076 54.888870,58.000000 55.666767,57.999809 
	C56.000153,57.999695 56.499985,58.000000 56.749901,58.000153 
	C57.311207,59.103512 57.622597,60.206715 57.966888,61.655037 
	C56.689964,60.895424 55.380146,59.790695 54.035088,58.343056 
z"/>
<path fill="#6F95B9" opacity="1.000000" stroke="none" 
	d="
M116.999992,81.000008 
	C116.999992,81.000008 116.500000,81.000008 116.250000,80.750000 
	C116.000000,80.333328 116.000000,80.166656 115.999992,79.999992 
	C116.166656,79.999992 116.333328,79.999992 116.750000,80.250000 
	C117.000000,80.666672 117.000000,80.833344 116.999992,81.000008 
z"/>
<path fill="#7296B9" opacity="1.000000" stroke="none" 
	d="
M115.750000,79.999992 
	C116.000000,80.166656 116.000000,80.333328 116.000000,80.750000 
	C115.833290,81.000008 115.666573,81.000008 115.249893,80.750076 
	C114.999962,80.333435 114.999985,80.166718 115.000000,80.000000 
	C115.000008,79.999992 115.500000,79.999992 115.750000,79.999992 
z"/>
<path fill="#7296B9" opacity="1.000000" stroke="none" 
	d="
M117.250000,81.000008 
	C117.000000,80.833344 117.000000,80.666672 117.000000,80.250000 
	C117.000008,79.999992 117.500000,79.999992 117.750000,80.250000 
	C118.000000,80.666672 118.000000,80.833344 118.000008,81.000008 
	C117.833344,81.000008 117.666672,81.000008 117.250000,81.000008 
z"/>
<path fill="#6F95B9" opacity="1.000000" stroke="none" 
	d="
M118.250000,81.000008 
	C118.000000,80.833344 118.000000,80.666672 118.000000,80.250000 
	C118.166656,79.999992 118.333328,79.999992 118.750000,80.250000 
	C119.000000,80.666672 119.000000,80.833344 118.999992,81.000008 
	C118.999992,81.000008 118.500000,81.000008 118.250000,81.000008 
z"/>
<path fill="#7296B9" opacity="1.000000" stroke="none" 
	d="
M119.250076,81.000008 
	C119.000000,80.833344 119.000000,80.666672 119.000000,80.250000 
	C119.000008,79.999992 119.499847,79.999985 119.749924,80.249992 
	C120.000099,80.666771 120.000206,80.833534 120.000305,81.000305 
	C119.833588,81.000214 119.666870,81.000114 119.250076,81.000008 
z"/>
<path fill="#6F95B9" opacity="1.000000" stroke="none" 
	d="
M120.250305,81.000198 
	C120.000206,80.833534 120.000099,80.666771 119.999847,80.249847 
	C120.320732,80.103691 120.581184,80.291634 120.890678,80.781616 
	C120.833641,80.999832 120.666969,80.999962 120.250305,81.000198 
z"/>
<path fill="#6F95B9" opacity="1.000000" stroke="none" 
	d="
M122.781937,80.109039 
	C122.999985,80.166206 122.999962,80.333031 122.999817,80.750076 
	C122.833031,81.000229 122.666359,81.000153 122.249695,80.999893 
	C122.103775,80.678688 122.291832,80.418358 122.781937,80.109039 
z"/>
<path fill="#ADC6CD" opacity="1.000000" stroke="none" 
	d="
M105.330597,38.829964 
	C103.186562,36.480881 100.891129,34.635143 99.497559,32.260201 
	C94.597969,23.910303 99.397850,16.133671 109.327599,15.999524 
	C118.968864,15.869273 124.770340,19.707655 126.614189,27.254787 
	C128.010666,32.970760 124.872551,36.677231 121.238579,40.277130 
	C118.065094,43.420864 114.675163,43.702034 110.859764,41.499599 
	C109.195221,40.538754 107.353851,39.884251 105.330597,38.829964 
M123.256592,33.423615 
	C124.530617,28.742046 123.966530,24.660990 119.563789,21.756474 
	C114.871262,18.660791 106.417686,17.485491 103.706467,20.417780 
	C101.780487,22.500807 99.513412,26.915380 100.442886,28.474874 
	C102.836090,32.490242 106.371933,36.698612 110.481087,38.577415 
	C114.801231,40.552689 120.030022,39.155457 123.256592,33.423615 
z"/>
<path fill="#FCB62C" opacity="1.000000" stroke="none" 
	d="
M103.004669,109.991074 
	C105.145256,104.691376 109.444397,108.362808 111.852165,108.793236 
	C117.394989,109.784103 122.609512,112.611450 128.349442,114.846283 
	C128.349442,115.706940 128.349442,117.081726 128.575012,118.697021 
	C128.814407,119.279930 128.691849,119.563339 127.845612,119.896263 
	C125.521049,119.983276 123.629524,120.404739 122.073524,119.862831 
	C115.672234,117.633469 109.372910,115.111320 102.807114,112.609604 
	C102.829994,112.306358 102.917328,111.148720 103.004669,109.991074 
z"/>
<path fill="#F8C442" opacity="1.000000" stroke="none" 
	d="
M102.709778,109.982819 
	C102.917328,111.148720 102.829994,112.306358 102.807114,112.609604 
	C109.372910,115.111320 115.672234,117.633469 122.073524,119.862831 
	C123.629524,120.404739 125.521049,119.983276 127.635956,120.009354 
	C126.569122,121.986191 125.124634,123.958466 123.327469,125.760231 
	C120.642326,125.063141 118.309853,124.536552 115.977386,124.009972 
	C115.977386,124.009972 115.550766,123.991898 115.338036,123.983505 
	C115.245415,120.715904 113.011589,120.733276 110.797112,121.002121 
	C106.644081,121.506310 103.382622,120.261887 101.015709,116.257660 
	C100.850586,114.587448 100.904366,113.204384 101.074310,111.216537 
	C101.316742,110.311058 101.528290,110.093208 101.825127,109.958206 
	C102.021721,109.963669 102.218315,109.969124 102.709778,109.982819 
z"/>
<path fill="#F9D139" opacity="1.000000" stroke="none" 
	d="
M115.978722,124.436523 
	C118.309853,124.536552 120.642326,125.063141 123.040375,125.941864 
	C122.638260,127.117096 122.170555,127.940201 121.206039,129.003204 
	C120.520874,129.543289 120.332527,129.843491 120.144188,130.143692 
	C120.144188,130.143692 120.177177,130.205505 120.186401,130.241028 
	C116.188957,130.497864 115.588287,128.066879 115.978722,124.436523 
z"/>
<path fill="#F5DC55" opacity="1.000000" stroke="none" 
	d="
M120.392181,130.056946 
	C120.332527,129.843491 120.520874,129.543289 120.981842,129.186157 
	C121.049698,129.409546 120.844933,129.689880 120.392181,130.056946 
z"/>
<path fill="#FCB32C" opacity="1.000000" stroke="none" 
	d="
M68.287109,111.197739 
	C67.256149,106.598053 70.959290,105.834900 73.214432,106.512672 
	C80.519775,108.708244 87.571754,111.746841 94.885040,114.778427 
	C94.623634,115.993767 94.198517,116.891418 93.234436,118.019394 
	C92.521492,118.559433 92.347519,118.869141 92.173546,119.178856 
	C92.173546,119.178856 92.226425,119.254761 92.229279,119.301239 
	C84.345749,116.703209 76.459366,114.058708 68.287109,111.197739 
z"/>
<path fill="#F5D756" opacity="1.000000" stroke="none" 
	d="
M66.779022,117.031113 
	C66.557465,117.053589 66.318626,116.798302 66.027016,116.283447 
	C66.236748,116.267036 66.499237,116.510193 66.779022,117.031113 
z"/>
<path fill="#FCF2CF" opacity="1.000000" stroke="none" 
	d="
M87.037674,106.327347 
	C83.971924,106.449173 83.971924,106.449173 86.629044,102.034500 
	C86.927528,103.183067 86.975548,104.552086 87.037674,106.327347 
z"/>
<path fill="#FDF1D1" opacity="1.000000" stroke="none" 
	d="
M101.845398,109.585831 
	C101.528290,110.093208 101.316742,110.311058 101.055450,110.801491 
	C101.031273,109.696770 101.142128,108.402313 101.582535,107.047485 
	C101.896622,107.729233 101.881149,108.471336 101.845398,109.585831 
z"/>
<path fill="#FCF2CF" opacity="1.000000" stroke="none" 
	d="
M96.609138,110.974350 
	C96.118584,110.665039 95.911407,110.277184 95.616722,109.570694 
	C95.983650,109.799973 96.438080,110.347885 96.609138,110.974350 
z"/>
<path fill="#FCF2CF" opacity="1.000000" stroke="none" 
	d="
M92.916946,107.018417 
	C92.787033,107.207176 92.616104,107.197426 92.218948,107.065948 
	C92.287125,106.902779 92.581528,106.861343 92.916946,107.018417 
z"/>
<path fill="#FDF1D1" opacity="1.000000" stroke="none" 
	d="
M102.302216,105.230682 
	C102.633774,105.345894 102.632729,105.606895 102.244804,105.992172 
	C102.019493,105.856903 102.056725,105.610237 102.302216,105.230682 
z"/>
<path fill="#FAC134" opacity="1.000000" stroke="none" 
	d="
M92.437622,119.110497 
	C92.347519,118.869141 92.521492,118.559433 92.962395,118.173599 
	C93.053452,118.412369 92.877571,118.727257 92.437622,119.110497 
z"/>
<path fill="#FAA027" opacity="1.000000" stroke="none" 
	d="
M118.593300,103.649391 
	C114.277603,106.995941 111.357872,106.301674 109.256477,101.066101 
	C112.392120,101.066101 115.270470,100.997353 118.134354,101.169411 
	C118.430061,101.187164 118.639565,102.639893 118.593300,103.649391 
z"/>
<path fill="#A2BCCF" opacity="1.000000" stroke="none" 
	d="
M144.771454,63.107727 
	C143.017075,62.267963 141.592651,61.561501 140.281525,60.685493 
	C139.783859,60.352989 139.177032,59.564621 139.259857,59.097488 
	C139.519089,57.635365 139.692398,55.458828 140.624268,54.984772 
	C141.909149,54.331127 144.638290,54.330429 145.359619,55.201023 
	C146.960098,57.132690 147.695770,59.780880 148.784027,62.136932 
	C147.571533,62.482456 146.359039,62.827984 144.771454,63.107727 
z"/>
<path fill="#6F95B9" opacity="1.000000" stroke="none" 
	d="
M73.053757,71.345467 
	C81.179848,73.818375 89.360008,76.636139 97.770081,79.726990 
	C94.747047,79.738655 91.234810,80.167519 88.298019,79.064384 
	C83.051559,77.093704 78.152252,74.198807 73.053757,71.345467 
z"/>
<path fill="#6F95B9" opacity="1.000000" stroke="none" 
	d="
M114.535347,80.000000 
	C114.999985,80.166718 114.999962,80.333435 114.999817,80.750229 
	C110.326820,84.760300 105.764648,81.885201 101.086365,80.385117 
	C105.356636,80.000404 109.713661,80.000206 114.535347,80.000000 
z"/>
<path fill="#6F95B9" opacity="1.000000" stroke="none" 
	d="
M124.253723,81.275558 
	C125.730705,80.666939 127.461403,80.333565 129.596130,80.000404 
	C128.169266,80.517342 126.338356,81.034073 124.253723,81.275558 
z"/>
<path fill="#BACED5" opacity="1.000000" stroke="none" 
	d="
M123.092667,33.777779 
	C120.030022,39.155457 114.801231,40.552689 110.481087,38.577415 
	C106.371933,36.698612 102.836090,32.490242 100.442886,28.474874 
	C99.513412,26.915380 101.780487,22.500807 103.706467,20.417780 
	C106.417686,17.485491 114.871262,18.660791 119.563789,21.756474 
	C123.966530,24.660990 124.530617,28.742046 123.092667,33.777779 
M118.577179,33.631756 
	C118.586349,31.517147 119.275009,29.062283 118.430237,27.375296 
	C117.407303,25.332548 115.282211,22.900257 113.280304,22.525314 
	C110.724731,22.046669 107.255211,22.691269 105.177032,24.213472 
	C101.034988,27.247391 103.674950,30.689631 106.091759,33.470497 
	C109.300232,37.162292 114.738556,37.407234 118.577179,33.631756 
z"/>
<path fill="#C8D8DF" opacity="1.000000" stroke="none" 
	d="
M118.348419,33.963371 
	C114.738556,37.407234 109.300232,37.162292 106.091759,33.470497 
	C103.674950,30.689631 101.034988,27.247391 105.177032,24.213472 
	C107.255211,22.691269 110.724731,22.046669 113.280304,22.525314 
	C115.282211,22.900257 117.407303,25.332548 118.430237,27.375296 
	C119.275009,29.062283 118.586349,31.517147 118.348419,33.963371 
M107.054695,28.626713 
	C107.852486,29.979105 108.355507,31.743038 109.523003,32.579258 
	C110.967827,33.614120 112.943451,33.997086 114.750687,34.311787 
	C114.952271,34.346893 116.206627,31.810352 115.833366,30.976368 
	C114.955254,29.014391 113.704018,26.816978 111.968292,25.808167 
	C111.077805,25.290609 108.823822,27.119040 107.054695,28.626713 
z"/>
<path fill="#D2DFE5" opacity="1.000000" stroke="none" 
	d="
M107.120361,28.256989 
	C108.823822,27.119040 111.077805,25.290609 111.968292,25.808167 
	C113.704018,26.816978 114.955254,29.014391 115.833366,30.976368 
	C116.206627,31.810352 114.952271,34.346893 114.750687,34.311787 
	C112.943451,33.997086 110.967827,33.614120 109.523003,32.579258 
	C108.355507,31.743038 107.852486,29.979105 107.120361,28.256989 
z"/>
</svg>